<?xml version="1.0" encoding="utf-8"?>
<!-- Generator: Adobe Illustrator 19.0.0, SVG Export Plug-In . SVG Version: 6.00 Build 0)  -->
<svg version="1.1" id="Logo" xmlns="http://www.w3.org/2000/svg" xmlns:xlink="http://www.w3.org/1999/xlink" x="0px" y="0px"
	 viewBox="0 0 87 102.3" style="enable-background:new 0 0 87 102.3;" xml:space="preserve">
<style type="text/css">
	.st0{fill-rule:evenodd;clip-rule:evenodd;fill:#3B454A;}
</style>
<path class="st0" d="M65.3,60.5l-9.8,23.8l-2.6-1.8l5.8-14.7l-10.6,2.8c0,0-5.2-17.1-4.7-28.7c-0.3-8.1,1.1-13.9,3.7-17.2
	c4.1-5.2,11.9-9.6,19.6-6c4.9,2.2,7.9,6.2,8.3,10.2c1.4,17-19.6,24-19.6,24L55,49.2c0,0,6.9-2.7,11-8.6c4.2-5.9,2.1-13.7-2.5-15.1
	C59,24.6,54.2,29.8,53.4,39c-1.8,13.8,2.9,24,2.9,24L65.3,60.5z"/>
<path class="st0" d="M16.9,73.4l15.4,12l1.1-2.6l-8.3-6.1l8.6-2.4c0,0-5.9-15.8-6.3-31.1c-0.4-4.9-0.7-20.6,5.3-23.3
	c1.1-1.8,2.8-3.1,2.8-3.1s-15.3-1.3-14.6,26.5c1.5,18.7,5.3,27.4,5.3,27.4L16.9,73.4z"/>
<path class="st0" d="M46.8,72.8l9.1-2.5L47,91l-18-13.5l7.1-1.9c0,0-15.8-44,2-59.5c11.2-8.9,22-1.1,21.8-0.2c-2.8-0.1-5.1,1-5.1,1
	s-6.1-2.6-10.4,6.7C40.6,31.7,39,45.5,46.8,72.8z"/>
<path class="st0" d="M58.7,28.6c0.8,6.8-3.6,9.6-3.6,9.6l-0.4,3.5c0,0,9.9-5.1,7.8-14.8C61.5,26.9,59.1,28.3,58.7,28.6z"/>
</svg>
