<svg xmlns="http://www.w3.org/2000/svg" width="1280" height="720" viewBox="0 0 1280 720">
  <style>
    path { fill:#000; }
  </style>
  <path id="map" d="M589.056 589.684l-.255.177-.33-.146.06-.594.258-.314.163.142.2.372zm-1.002-1.494l-.175.316-.206-.143-.196-.464.01-.367.166.05.12.14.083.05.163.14zm134.04-35.622l4.082 1.468.655-.03.29.032.337.214.007.137-.026.322.047.135.082-.004.203-.055.084.042.573.845.013.275-.122.006-.078.095-.037.095-.075.14-.97.322-.44.25-.708.676-.115.19-.07.232.04.916.022.46-.074.186-2.916 1.004-.997-.23-3.553-2.327-.173-.222-.93-.603-.292-.125-1.02.18-.4.2-.482.294.61-1.172.986-.96 2.287-1.196-.076.14-.03.278-.073.186.65-.12.593-.53.85-1.184.676-.49zm9.41-1.083l.016.32-2.18-.214-.014-.274.56-.257.635-1.272.33.03.297.215.052.227-.072.233-.236.196.014.273.17.13.258.263zm-98.454-13.54l-.163.183-.202-.276-.038-.55.083-.55.122-.093.12.32.04.185.04.275zm146.126-13.906l-.624.323-3.08-.046-.537-.144-.477-.425-.405-.57-.28-.485.24-1.168.18-.29.315-.114 3.3.905.293.116.3.21.568.554.29.622zm-94.153-5.64l-.22-.82-.01-.415-.17-.27-.124-.228-.045-.136.078-.093.397-.148.116-.187-.003-.138-.045-.182-.086-.228-.218-.73-.254-.544-.045-.228.035-.184.153-.28.077-.14.072-.323-.005-.23-.17-.363-.086-.273-.047-.32.073-.28.072-.322.537-.932.145-.6-.04.046-.235.144-.487-.31-.49-.447-.203-.088-.2.005-.438.01-.16-.042-.123-.09-.083-.134-.124-.226-.084-.136-.327-.36-.083-.136-.288-.36-2.564-2.24-.277.052-.277.098-.745.613-.275.144-.16.002-.28.006-.24-.087-.528-.494-.163-.18-.124-.18-.046-.322-.003-.138-.08-.09-.042-.09-.77-.675-.613-.814-.743-1.41-.084-.228-.046-.32.036-.185-.006-.367-.083-.182-.045-.183-.486-.496-.242-.18-.2-.087-.002-.092-.043-.137.147-.692.112-.37.077-.14.076-.138.117-.094.038-.092v-.046l-.402-.27-.202-.225-.003-.136.038-.14.236-.14.67-.243.116-.14.117-.14.034-.23-.042-.137-.12-.043-.118.048-.16.003-.158-.042-.203-.272-.043-.183.036-.184 1-1.582.115-.232.15-.508.036-.14.078-.092.117-.094.352-.237.078-.093.077-.094.192-.28.077-.092.078-.048.275-.097.87-.063.155-.095.115-.186-.003-.138-.04-.09-.122-.09-.675-.17-.082-.137-.122-.18-.05-.458v-.046l.073-.277.112-.28.154-.232.546-.333.153-.233.037-.138-.048-.413-2.885-.172-.202-.18-.685-.722-.918-.627-.682-.632-.876-.536-.082-.137-.08-.09-.082-.183-.082-.182-.04-.183-.046-.32-.003-.185v-.138l.035-.184.306-.51.155-.187.117-.094 1.172-.48.66-.518.234-.097 1.964-.175.194-.095.225-.602.617-.61.192-.234.113-.187.036-.184-.043-.138-.082-.182-.643-.723-.12-.043-.156.003-.116.094-.462.47-.7.426-.115.095-.077.094-.113.278-.076.14-.116.093-.155.05-.157.048-.275.005-.12-.09-.002-.138.115-.23.037-.14-.003-.138-.043-.137-.04-.137-.205-.364-.122-.273-.043-.183.034-.276.038-.137.076-.14.077-.093.7-.472.19-.188.154-.233.076-.14.035-.183.028-.598.074-.232.037-.138.116-.094.464-.33.116-.095.074-.23.07-.37-.01-.552-.005-.275.035-.14.19-.37.108-.416.075-.14.077-.093.116-.047.157-.05.468-.055.155-.095.154-.14.15-.37.035-.14-.042-.09-.435-.222-.12-.09-.12-.134-.283-.5h-.04l-.157-.088-.59-.218-.706-.08-.158-.087-.12-.136-.163-.32-.08-.09-.118-.043-.784-.077-.433-.176-.278-.27-.29-.96-.044-.23.036-.23.037-.138.15-.28.077-.092.345-.328.113-.232.036-.184-.042-.137-.042-.185-.042-.183-.085-.366.036-.184.074-.14.27-.096.155-.14.19-.19.186-.462.113-.232.152-.14.306-.282.116-.048.117-.002.117-.05 1.264-1.035.27-.143.43-.01.31.04.12.09.438.497.118.09.12.088.155-.003.234-.005.966-.342.312-.007.313.086.12.09 1.392 1.347.158.088.235.042.193-.05.497-.426.27-.098.31-.1.153-.095.114-.14-.005-.185.024-.644-.044-.183-.042-.136-.164-.363-.048-.366h-.04l-1.025-.62-.936-.115-.195-.043-.12-.135-.203-.41-.64-.72-.12-.228-.084-.228.035-.184-.04-.137-.172-.732-.167-.548-.69-1.502-.16-.18-1.23-1.308-.16-.227v-.046l-.002-.092.036-.14.076-.092.916-.617.075-.138-.003-.184-.047-.367-.12-.272-.12-.136-.832-.948-1.65-1.254-.233-.088-.93-.166-.468-.22-.013-.69-.28-.5-.397-.637-.603-1.324-.946-1.178-.357-.592-.01-.69.26-.418.42-.237 1.074-.202.497-.193.872-.752.578.035.59.724 1.58 3.83.44.635.627.538.74.307.77-.063v-.093l.034-.185.074-.185.19-.097.232-.005.39.175.194.042.386-.01.344-.145.684-.43-.166-.5.068-.417.186-.28.226-.235.195.087.23-.052.228-.143.188-.234-.348-.038-1.225.35-.305.192-.14.6-.42.24-.27-.04-.85-.072-1.05-.345-.977-.67-.827-.856-.597-.953-3.006-6.287-.165-.594.066-.554.255-.695 1.595-2.743 1.266-1.773.227-.142.182-.464.977-.71.296-.466-2.1.043-.924-.395-.708-.998-.18-1.423.206-3.178-.288-1.144.366-.743.563-.333 2.223-.92.417-.054.308.223.192.09.072-.186.07-.278.223-.235.187-.14.188-.097-.276-.454.815-.893.098-.692-.41.33-.414.148-.757.11-.116-.09-.435-.91-.045-.322.185-.233.222-.235.223-.19.473-.93.294-.42.788-.34.293-.42.43-1.113-.432-.635-.592-1.137-.355-.682-.124-.412.524-.24.554-.52.36-.744-.056-.827-.15.004-.1.646-.327.514-.704.567-.857.525-.446.376-.18.464-.175.602-.486.332-1.095.07-.31-.27-.35-.592-.164-.64.217-.465-.198-.456-.234-.41-.267-.178-.337.145.125.596-.063.6-.102.553-.067.46-.107.325-.737.98-.362.88-.256.42-.675.38-.03.46.086.597-.03.46-.892-1.226-.23-.18-.38-.038-.342-.086-.268-.18-.27-.27.066-.646.14-.738-.05-.598-.344-.316-.005-.276.79-.29.168-1.244-.062-1.424.023-.83-.374.238-.18.417-.248 1.06.24.824-.374.19-.567-.036-.376.098-.486.237-.537-.543-.93-1.55-.73-.91-.31-.593-.16-.642.072-.323.107-.37.032-.367-.197-.596-.044-.414-.077-.09-.568-.27-.888-1.735-.57-.543-2.33-3.192-.377-.226-.114-.137-.27-.595-.264-.273.184-.324.258-.324.112-.093.47-1.478.634-3.273.76-1.94.323-1.017.182-.37.184-.187.518-.236.258-.188.33-.418.363-.695.174-.783-.196-.734.747-2.448.43-1.156.546-.7.48-.144.3.225.23.32.41.13.26-.003.992-.568-.338-.225-1.197-.625.62-.7.33-.28 1.51-.486.3.087.186.135.152.182.188.135.895.306.483.037 1.99-.635.402-.33-1.667.032-.005-.276.48-.1.365-.238.367-.19.448.174-.005-.276-.598-.264h-.074l.06-.736.32-.696.033-.185.015-1.105.072-.185.146-.095.112.044.934.487.185-.002.367-.054.108-.14.11-.094.387-.93.108-.14.767-.383.182-.142.18-.234.07-.14.498-.838.643-.98.326-.284.44-.148 1.02-.53.653-.475.502-.518.284-.467.53-.934.396-.332.328-.146.107-.14.105-.187.028-.368.033-.14-.002-.09-.038-.092-.077-.136-.08-.182-.007-.322.07-.14.107-.14.287-.284 1.244-1.643 2.076-1.988.252-.145.584-.11.332.038.11.043.263.177.077.136.148.042.22-.052.43-.29.214-.235.103-.233.1-.37.066-.233.138-.326.18-.144.686-.342.21-.283.322-.286.655-.157.29-.147.465-.336.283-.33.246-.33.102-.234.03-.185-.003-.137-.043-.183-.076-.09-.077-.135-.573-.765-.04-.137-.042-.136-.002-.092-.003-.092.035-.047-.04-.137-.005-.14-.272-.497-.342-.45-.388-.724-.433-1.046-.083-.32-.042-.137-.004-.138-.077-.136-.3-.267-.077-.136-.077-.135-.004-.138-.043-.183-.11-.042-.37-.22-.078-.135-.077-.09-.042-.183-.004-.184.03-.185.07-.094.144-.095.288-.1.91-.074.325-.055.25-.146.14-.19 1.248-2.017.1-.28.1-.324.067-.188.105-.14.25-.147.208-.283.143-.096.357-.196.106-.096.56-.662.1-.234.067-.186.052-.646.062-.324.104-.142.143-.096 1.037-.45.347.587 3.227 3.938.362.954.275.542.522.304.12.317.12.272.152.18.215-.1.138-.19.1-.235.07-.094.257.036.296.127.306.358.24.59-.472.017.01.276.298.174.79-.306.514.072 1.685 1.085.013.322-.135.282.048.273.195.314.23.268-.28.287.01.276.188.13.493.44.012.277-.204.376.116.18.262.128.153.178.13.502.22 2.8-.056.415-.082.694.01.23-.022.37.183.913.63 1.08.104.73-.03.187-.028.185-.067.187-.066.186-.097.326.047.274.12.225.048.276.167.5.313.447.578.62-.198.56.156.225.23.22.165.408-.056.417-.133.374-.096.372.13.454.433.627.12.272.113.916.258.864.085.273.114.087.3.126.076.043.043.137.087.318.453 1.086.237.36.127.363.134.546.168.453.304.17.08.136.697.705.202.406.05.275-.067.187.012.276.077.917.053.366.19.13-.055.418 1.675 5.13.543 1.31.907 1.11.385.26 1.292.493.014.323-.484.022.01.184.042.135.162.27.052.318.126.317.162.27.197.22-.17.33-.252.242-.547.3.087.273.12.18.154.084.26-.013.074-.05-.006-.137.03-.14.115.04.078.09.123.224.047.182-.033.094.296-.06.14-.236.13-1.204.475.577.39.304.493.162 1.014.09 1.234.77 5.047 1.312 5.61 3.203.71.652.334.58.057.365-.02.323.1.41.244.354.858.55.358.35.412.62.47.988.36 1.04.05.872.09.27.167.268.198.173.232.08-.05.462-.066.142.2.22.53.66.2.22.996.218.237.17.316.258.582.242.215.448.216 1.093.085.18.682.65 3.053 1.014.92.773-2.082 1.325-.703.917-.504 1.735.6 1.116.886 2.71.492 1.215 2.876 3.97 4.805 6.377.51 1.35-.218 1.395-.144.148-.506.493.452-1.32.068-.74-.403-.297-.545-.103-1.123-.758-.546-.15-.452.12-.915.703-.528.17-.617-.053-.58-.102-.515-.245-.442-.34-2.554-2.98-.877-.593-.885-.086-.23-.034-3.065 1.282-.457.026-1.488.083-.83.23-.157-.084-.643-.563-.08-.088-1.46-.105-.524.212-1.618 1.236.234.08.234.08.2.173.2.173.348-.663.67-.358.76-.087.58.106 1.033.682.283.307.357.21.412-.162.656-.59 4.34-1.075.703.235.546.797 1.923 2.695 1.144.53.82.87.44.296.89.084.353.116 1.24 1.397 2.5 1.822.513.198.466.062.437.202.452.43.097.317.066.41.1.363.166.173.198.08.762.456-.174.288.444.293.462.57.315.67.152.542 2.384 5.552.492 1.533.12 1.79-.39 2.237-.138.286-.26.155-.498.126-.37.3-2.094 2.442-.453.214-.33.297-1.788 3.11-.47.582-.607.27-.37.3-.275.614.07.502.745.045 1.302-.406.32.12.74.55.355.07.652.417 1.416 1.934.672.693.407-.35.54-.127 1.02.024.407.248.77.962.402.156-.02-.275-.198-.63.453-.814.607-.825.313-.573.047-1.017.232-1.168.356-1.038.26-.755.83-.98 1.163-.636 1.337-.372 1.244-.043-.216-.308.49-.22.554.098.598.187.515.1 2.172-.16.99.202 1.206.46 1.185.187 1.125-.593-.286-.163-.32-.112-.314-.022-.307.07-.02-.276 7.867 1.27 3.198 1.353 6.627 4.283.815.806.71.953.644 1.973.574 1.15.42 1.208-.076.93.213.626.112.82.094 1.515.796 1.867-.082.422-.28.394-.475 2.255.075.41-.007.368-.877 3.12-.7 1.536-.248.344-.197.478.017 1.105.24 1.87-.086.837-.312 1.456-.052.788-.262 1.13.012.597-.14.242-1.904 1.038-.394.54-.423-.287-.088.376-.037.51-.17.337-.188.155-.514 1.01-1.66 2.165-.24.48-.27.115-1.93-2.1-.774-.215-1.35-.905-.724-.08.022.274.98.796.546.325 1.216.226.29.115.132.174.013.644-.066.19-.523-.05-.317.025-.5.225-.315.07-.325-.065-.75-.4-.593.092-1.2.51-.666.143.74.265 4.27-.064.49-.363-.01.83-1.863 2.223.34.25.414.15.966.06.216-.293.166-.428.115-.056.11.866-.226.664-1.358 1.537-1.285.98-.808.432-1.774.415-.486-.054-.253-.165-.466-.84-.924-1.08-.28-.53-.02.785-.364.488-.922.532-.738.84-.153.102-.024.232-.04.51-.043.51-.143.24-.276.067-.41.4-.23.155-.32.023-.616-.183-.246-.074-.632.14-1.164.545-.533.407.413.154.483.01.455.197.33.666.665-.786 1.65-.49.772-.428.673-.65.472-.128.43.382.07.363-.05.418-.095.33-.036.048.064.318.144.312.242.534-.266.205-.052.373.077 1.007-.066.19-.224.247-.34.302.678-.1.254.166.134.174-.63 1.245-1.233 1.29-1.108.82-.304.253-1.136.452-2.073-.217-.716.144-.044-.043-.32.024-.12.008-.038.05-.037.048-.485.54-.355.118-.358.072-.314.114-.34.346-.43-.383-.16.012-.56.085-1.77.63-.1.283-.053.418-.126.515-.333.437-.345.254-.393.165-.346.252 1.626-.433.232-.156.1-.283.06-.325.114-.1 1.65-.62 4.184.344.422.244.365.572.066.363-.265.25-.515.128-.94-.162-.4.075-.788.84-.91.295-.46.354.218.214.18.263.22.26.25.075 2.253-.162 1.07.245-.238-.49-.164-.585.09-.42.567.004.077.5.34.758.41.66.307.3 5.606.222 3.142-1.256 8.342-1.503.677.358-.127 1.392-.097.285-.102.238-.106.193-.15.152-.966.08-.106.193.153.862.262.715.494 1.065.377 1.626-.07 1.618-.455 1.374-.616.925-1.692.736-.684.608-.28.068h-.57l-.317.118-.26.297-.178.336-.188.2-.508.27-1.7.18-.516.18-.498.406-.94 1.038-1.186 2.07-.246.526.162 1.046.41 1.624-.907.438-2.005-.538-1.834-.46-1.03.443-2.38 2.703-1.022.58-5.62 1.635-.95.48-.163.01-.258.43-.217.43-.028.186-.9.66-.884 1.483-.98.065-.497-.06-1.255-.376-.29-.028-.938.06-.254-.12-.48-.43-.498-.105-1.15-.02-.46-.155-5.133-1.522-.862-.04-.08.05-.63.406-.963-.358-3.316 1.433-4.53.253-4.256 1.65-.207-.034-.257-.216-.21-.08-.24.103-.144.376.245.768-.1.42-.516.347-.584-.2-2.532-1.432-.175-.22.102-.42.352-.34.762-.312-.015-.275-.295-.168-.517-.525-.334-.12-.117.142-.317.2-.206-.037.258-.564-.295-.17-.25-.126-.865-.095-.612.03-.204.01-.483.16-.293.75-.196 1.018-.33.797-.69.124-.56-.57.21-.746.456-.756.137-.558-.502-.25-1.625.212-.402.157.975.734.133.224.12.82-.06.463-.352.338-.327.016-.5-.207-.462-.254-.174-.222-.182-.404-.88-.42-.677-.52-.87-.236-.334-.17-.513-.528-.56-.664-2.966-1.526-.457-.21.01.23.25.126.502.3.33.033.684.752 2.182 2.247.228.54-.06.508-.562.254-1.71.212-.362.153.17.13.212.175.01.275-1.216.28-.644.257-.318.243-.12.05-.867-.147-.794 1.64-.037.138-.04.048-.538-.162-.588-.344-1.815-.296-.082.004-.532.02-.566.205-1.003.59-.487.155-.66-.113-1.03-.146-.573.02-.526.203-.48.292-.44.383-.39.52-.28.192-.134-.27-.055-.412-.09-.226-1.033-.24-.695.07-.206-.04-.128-.178-.002-.046-.222-.497-.127-.132-.237.237-.89 1.544.366-.06.28-.146.323-.194.28-.24.606.99.297.31.497.122.45-.062.37.08.217.313-.178.74.42.26.124.042-.863 1.178.062.594-.485.246-2.134.118-.454-.075-2.042-.852-4.94-.4-.92-.57-.573.11-.976.348-.315.423-.305.88-.098.92.258.406.664.21.097.502-.268.695-.354.606-.164.005-.086-1.603-.645-1.038-5.65-4.12-4.587-1.638-.614.013-1.55.354-.447.146-.93.616-.613.102-.99-.256-.325.098-.605.516-.122.094-.444.375-.244.095-.287.006-.496-.22-.29-.04-.53.055-.895.473-1.062.247-.28.418-.238.6-.4.557-1.917.9-.617-.037-.412-.132-.374-.36-.337-.592-.342-1.004-.125-.182-.083-.045-.042-.09-.084-.09h-.163l-.08.094-.04.185.044.182.334.363.35 1.463.253.547-.487.465-.403.602-.36.692-.36.875-.273 1.15.052.825.475 1.736-.575.054-.617.145-.448.372-.2.6.215.684.457.225 1.196-.06.003.274-.278.736v.137l-.246.05-.204.14-.122.184-.193 1.057-.287.233-.414-.132-.46-.362-.153.965-.575.327-.618.19-.285.37-.116.735-.282.874-.114.964.22 1.052-.413.234-1.073.332-.456.05-.62-.132-.46-.27-.456-.042-.37.462-1-.91-1.59-1.958-1.747-1.592-.29-.136-.248.094-.702.37-.247.093-.164.093-.37.415-.207.092-.29-.044-.29-.18-.416-.366.082-.137.08-.413-.58-.135-.62-.457-.25-.64.367-.782-.99.097-.29-.09-.372-.23-.124-.273-.125-.32-.207-.46-.208-.686.204-.596.328-.552.286-.597-.535.277-.248-.045-.29-.228-.08.32-.042.138-.205.276-.247.185-.33-.045v.275l.372.274.125.412-.122.46-.206.32-.37.093-1.28-.09.454.64 1.528-.277.58.457-.908.277v.275l.207-.046.537.045-.206.322.744-.002v.275l-.288.092-.206.23v.275l.125.32v.23l-.578-.044-.25-.504-.29-.596-.455-.274-2.272-.593-1.24.138-1.94 1.237-1.035.412-4.382.218v.092l-.082.09-.125.138h-.165l-.368-1.148-.165-.047-.166.09-.166.138-.125.09-.58.045-.538.18-.29.32.203.55-.002.322-.166.136-.25.274-.25.32-.084.274.04.23.123.32v.14l-.295.822-.042.23-.29.273-1.325-.237-.5.226-.5.592-.5.27-1.122.405-.375.364-1.136 1.917-.328-.507-.11-1.514-.372-.278-.5.133-.044.367.038.46-.336.454-.003.276.165.14.41.46h-.25l-.165.043-.334.225-.25.227-.045.274-.003.367-.086.274-.25.18-.878.405.333.003.208.048.372.233h.166l.29-.042.125.048.083.184.078.55.082.14.122.32-.34.776-.802 1.184-.25.043-.54-.098-.292.043-.21.135-.8.954-.345.958-.086.228-.25-.094-.248-.232-.822-.88-.123-.23-.12-.277-.078-.55.045-.32-.038-.323-.16-.414-.776-1.247-.408-.555-.535-.374-1.61-.8-1.077-.2-.864-.563-.454-.19-.58-.008-.71.264-.506.404-.01.596.155.736-.3.545-.504.358-.378.223-1.13.348-1.29.114-.99-.43-.268-1.29.25.006.208-.088.128-.18.006-.276-.08-.185-.082-.093h-.04l-.152-.83-.034-.412.13-.227.043-.136.514-.863.21-.133.794-.26 1.717-.98.96-.305 1.006-.672.62.01.818.79.535.284.542-.313.382-.637.213-.41.088-.365.127-.182.953.014 1-.537 3.1-3.17 1-.724.374-.088.084-.23.047-.502-.035-.505-.198-.828.333-.225.413-.042.164.048 1.866-.99.085-.23.253-.593.263-1.602.007-.872.13-.685.252-.594.538-.407.535.004.207-.136.332-.41.206-.043.163.23.12.46.036.597.037.458.165-.09.083-.09.083-.092.492.278 1.11.054.41.232-.283-.552-.45-.278-.904-.373-.407-.507.044-.412.167-.32-.16-.46v-.274l.657.142 1.974-.124.782-.225.414-.64.332-.733.414-.686-.16-.64.084-.46.288-.182.37.094 1.85-1.598.33-.55.207-.732.493-.55 1.107-.82.74-1.467-.115-3.716.29-1.744.163-.32.37-1.055-.082-.32-.12-.597v-.597l.123-.275 2.36.004.284.092.53.413.284.09 1.507.184.53-.184.406-.276 1.787-2.022.122-.23.12-.276.162-.184.284-.184-.164-.412-.328-1.147-.04-.276-.083-.275-.487-.688-.163-.367.892.09.203-.093.16-.46-.04-.412-.204-.366-.284-.183v-.274l1.983-.832 4.778-.482.97-.374.525-.095 1.863-.014.607-.098.806-.465.484-.05 3.37.884 2.105-.115 3.29.738.82.723.49.268 3-.183 1.894-.627.93-.154 1.743.06 1.01-.203.72-.52.208.318-.353.604.37.267.43-.88.073-.323.03-.506-.045-.274-.086-.228-.09-.412-.03-1.56-.097-.824-.292-.453.528.127.24-.143.114-.368-.013-.643.193-.418.356-.374.154-.37-.372-.406.552-.654.81.167.95-.94 1.72-2.424.434-.376.478-.287.52-.196.6-.06.56-.24.51-.565 2.19-4.004.197-.187.278-.145.196-.19.11-.37.03-.322.15-.417.152-.372.154-.234 1.44-1.6.848-1.263.434-.24 1.11-.445.43-.38.184-.51-.093-.457-.41-.356-.06.782-.467.427-.594.247-.52.06-.475.197-.348.47-.305.56-.347.513-1.494 1.096-.234.236-.23.418zm-185.652-5.752l.2.015.248-.073.186.2-.222.258-.167.08-2.094.527-.27-.16-.344-.21.072-.41.425-.29.495-.144.603.002zm-11.927-13.22l.183.2.12.01.277.023.096.285-.187.307-.504.28-1.033.374-.922.013-.262.253h-.52l-.053-.326.488-.557 1.386-.757.257-.21.478.042zm18.594-49.3l.31.023.59-.092.495.13.6.276.17.335-.257.302.018.278.556.365.08-.04.113.054-.063.317-.475.103-2.833-1.598-.804-.66.3-.347.58-.002zm2.624-3.904l-.867.21-.383-.58-.03-.603-.13-.33.016-.23.26-.35.286-.21.353-.064.34.118.214.246.5 1.052zm-4.833-33.392l.443 1.142-.53-.04.047.37-.026.322-.096.27-.17.216-.025.32.316-.158.272-.07.224.063.21.247-.023.275-.253.302-.202.63-.134.728.067.604-.57.463-.434-.312-.445-.635-.49-.546-.338-.074-.31.068-.258-.113-.08-.422.085-.593.117-.498-.008-.37-.236-.388-.48-.177-1.89.26-.635-.144-1.172-.56-.64-.098.023-.275.61.004.54-.093.45-.377.37-.8.17.245.183.107.233-.073.246-.21.475.685.62-.134.643-.41.55-.232 2.114.217zm38.402-37.787l-1.055.26-.515-.076-.39-.3.016-.276.085-.18-.03-.093-.018-.323.383-.207.113-.04-.03-.14-.067-.096-.03-.094.198-.22.187-.034.142.1.1.19.396.21.282.246.163.378zm29.752-2.49l-.487.164-.194.22-.197.315-.23.22-1.525.167-.306.218-.233.266-.748 1.027.095.373-.078.088-.112-.004-.125.316.103 1.064-.053.366-.16.27-.04.044-.49.21-.195.22-.133.5.065 1.063-.02.46-.298.86-.405.766-1.84 2.08-.177.592-.083 1.01.06.324.106.143-.004.09-.305.125-.26-.01-.437-.25-.715.15-.846-.27-.422.258-.895.787-.843.466-.82.007-.763-.45-.676-.68-.298-.013-.897.784-1.222.538.393.388.144.1-.216.587.164.47.397.295.406.112.217.15.197.56.177.194.224.01.388-.256.15-.04.328.2.75.728.365.202.422-.21.387-.258.256.104.035.83-1.022.274-2.505 2.227-.953.32-.97-.094-1.812-.506-.514.526-.525.71-.333.627-.157.13-.277.262-.618.336-1.293.3-.464.252-.152.038.32.34.057.325.02.323.206.38.564.675.936 1.523.532.627.62.354.677.035.457 1.36.308.613.39.48.184.102.182.1.972.188.325.293.153.698-.016 1.84.307.66.437.345 1.35.25 1.44-.07.447.114 1.674 1.413.177.285.02.37.06.37.293.198 2.578.76.533-.07 1.02-.783.6.072-.28.355.073.096.266-.034.186.054.173.376.03.185.11.052.382-.076 1.155.463.266-.036.152.006-.518-1.218.012-.276.197-.222.737-.43.107.143-.085.273-.053.366-.02.505-.054.367.106.19.31-.173.238-.266.203-.36.093-.41-.097-.418.502-.21-.03-.232-.218-.193-.106-.188.13-.41.163-.268.236-.222.272-.173 1.372-.314.505-.347-.124-.695.358-.446-.837-.77.175-.59-.812-.448-.02-.46.114.004.186.053.12-.178h.038l.204-.36.002-.045-.074-.05-.066-.23-.066-.234.047-.228.077-.043.077-.043.45.108.187.008.812-.567 1.274-1.84.74-.707.754-.018.81.444 1.456 1.34.14.282.2.698.22.146.265.01.142.188.24.653.237.79.014.645-.203.407-.42.215.85.49.18.236.1.373.098.417.1.418.39.703.472.57.513.477.517.34.263.055.196-.224.197-.27.27-.13.3.01.26.194.476.43.363.47.18.237.13.74-.253.773-.59.672.25.514-.053.457-.41 1 .368.287.618.848.373.196.115-.088.158-.18.12-.18.12-.18.188.006.375.15.188.05 2.146-.762.68.02v.046l.107.187.11.187.184.144.152.004.65-.21.57-.077.158-.18.123-.318-.028-.37-.03-.322.047-.275.356-.542.188.05.18.283.297.24.306-.085.344-.175.38-.035.37.332 1.474 1.556.374.194.185.143.326.606.148.142.53.06.226.096.148.142.476.702-.126.503-.82.946-.423.174-.6-.245-.56-.383-.334-.284-.343.037-1.686-.78-1.322-.222-.01.322.3.192-.164.41-.318.543-.17.685-.15 1.238-.06.735.132.74.51.796.826.436 1.82.325-.008.276-.287.775-.058.735.25.65.522.474-.51.54-.146 1.145.01 1.057.065 1.888.098.6.176.603.14.463.225.237.374.286.263.19.396 1.022.678.477.72.386.49.38.22.373.14.556.06.645-.205.594-.44.68-.12.273-.047.32-.2.363-.288.73-.238.315-.182-.418-.42-.103-.504.172-.43.31 1.594.822.104.463.064.508.224.282-.08.136-.162.318-.12.135.42.193 1.037.117.417.286-.288.775-.308-.007-.34-.284-.342-.193-.112-.14-.298-.422-.075-.094-.232.088-.467.172-.154.042-1.492 1.112-.09.457.184.374.563.612.445.747.34.33.69.156.264.235.19.05.268.145-.01.368-.123.32-.08.18-.062.92.024.597.14.6.26.468.26.374.145.463-.173.777.297.467.848 1.86-.08.135-.002.045h-.038l-.08.09.1.692-.062 1.01-.14 1.008-.208.593-.133.686.296.65 1.02 1.266.072.277-.315.177-.12.18-.29.776-.122.18-.28.27-.903 1.956.187.326-1.117 1.03-.32.36-.29.637-.634 1.96.132.968-.083.182-.495 1-1.23 2.128-.137.778-.016.643.243 1.2.062.646-.124 1.79-.373.725-1.6 2.532-.45.54-.438.218-.41.54-.62 1.086-.255.636-.06.78.057.737-.095.548-.15-.326-.19-.235-.235-.053-1.5.05-.51-.154.18-.776-.24.085-.24.13-.2.13-.204.225-.007.23.39.15.343.377.263.467.18.556-.17.41.785.205.228.376.146.417.327-.358.62-.993-.005.23-.46.86.487.978 1.267 1.414-.763 1.77-.37.45-.244.27-.2.086-.237-.053-.31-.285.047-.228.203-.178.252-.498-.034-.185-.316-.055-.16.087-.208.316-.324.267-.043.09h-.08l-1.11.012.01-.276.514.015-.347-.333-.237-.007-.445.31-1.236.237-1.13.61-.43-.107-.653-.71-.467-.29-1.882-.613-1.79.216-.508-.155.01-.322.403-.17.368-.355.294-.495.06-.64-.33.402-.45.444-.482.214-.506-.247-.167.224-.013.368.036.093-.005.14-.05.32.284-.175.084-.135.158.006-.1.64-.088.226-.208.27.16.004.197.007-.01.276-.08.042-.197-.053-.08-.004.188.33-1.902 1.08-.248.268-.335.493-.37.355-.387-.29.217-.498.327-.264.325-.218.328-.31.015-.413-.374-1.715-.15-.28-.26-.424-.266-.33-.272-.148-.265-.332-.347-1.3-.3-.47.06.507.064.462.032.184-.018.46.073.186.33.702.064.416-.356 1.044.024.414.675-.02-.012.32-.446.306-.75.984-.49.35-.56.116-1.15.002-.56.117.175-.452.75-.983-.545-.25-.313-.104-.358.033-.01.275.113.142.073.14.074.142.072.187-.275-.058-.307-.242-.196-.053-.323.125-.207.222-.13.27-.167.223-.524.21-.476-.02-.942-.267-4.938.345-1.826.885-.962.187-.123.087-.09.225-.167.176-.24.035-.193-.146-.065-.324-.066-.28-.074-.14-.443.117-.532.344-.342.537.087.693.253-.31.4-.027.47.16.737.4.198.01.032.184-.182.498-.823.606-.176 1.235-.094.317-.203.083-.28.033-.205.13-.492.298-1.386-.203-.53.25-.264.54.018.46-.168.177-2.728-.5-.07-.186-.022-.37-.102-.372-.27-.197-.045.135-.042.044-.09 1.008-.057.364-.385.533-.38.44-.45.208-.56.018.72.77.314.11-.302.444-.61.2-1.087.174-1.346.53-.427.53.45.574-.413.255-1.977.31-1.017.314-1.646.096-.674-.13-.322.03-.236-.06-.112-.143.098-.317.172-.22.247-.125.2-.035-.03-.186-.1-.373.365-.072.367-.118.37-.21.342-.395-.154-.102-.115-.098-.155-.1-.24-.013.23-.54.13-.177.206-.126-.1-.374-.154-.1-.206.127-.257.308-.347-.25-.513-.12-1.035-.056.013-.23-.227-.243-.442.068-.49.202-.486.11-1.033-.104-.564.06-.533.246.858.37 1.066.244.612.494-.553 1.303.962-.037.314.11-.014.275-.16-.01-.018.322.19.194.117.053-.364.07-.204.082-.167.128.917.05-.478.664-.09.18-.013.228.11.19.064.28-.137.314-.933.914-.303.396-.703.375-.973.173-.332.21-.39.485-.13-.514-.34-.34-.39-.208-.326.073.342.34.133.47-.147.45-.416.252-.15-.883-.54-.354-1.16-.07-.016.276.232.152.517.076.272.154.255-.26.163-.037.1.328-.053.227-.21.17-.21.127-.16.035-.458.94-.097.27.013.46.083.65.013.46-.306-.294-.31-.845-.343-.343-.436-.072-1.304.29-3.064-.51.335.435.43.21.96.06-.015.274-.21.125-.17.173.506.26-.296.26-.18.31-.023.366.09.512-.993-.2-.212.17-.19-.194-.183-.288-.19-.195-.96-.062-.28-.063-.19-.15-.16-.01-.173.173-.507-.262-.39.435-.328.716-.273.49-.943.26-.168.08-.147.406-.194-.105-.22-.336-.07-.142-.155-.102-.495-.446-.275-.11-.323.025-.376.205-1.466.225-.312-.16-.577-.406-.313-.114-.022.32.117.055.226.246-.272.442-.346.345-.376.204-.408.065-.67-.23-.204.032.052.418-.018.275-.402-.028-.18.263-.145.358-.258.213-.284.027-.19-.15-.24-.064-.33.115.02-.274-.07-.188-.026-.186-.064-.235-.715.41-.106.36-.164.036-.2-.014-.21.122-.345.298-.368.066-.807-.01.298-.21.258-.212.22-.26.19-.4-.38.248-.332.114-.11-.145.283-.578.305-.346.675-.413.34-.252-.074-.096.004-.046-.037-.048-.07-.143-.218.214-.878.446-.096.223-.26.256-.597.464-.252-.432.03-.412.234-.444.123-.59-.14-.285-.426-.26-.433-.124-.374.157.164.518-.75.314-1.874.278-.09.13-.07.41-.13.13-.44-.08-.164.034-.56.465-.287.07-.442-.033-.008-.415-.287-.482-.344-.256-.187.354-1.546 1.22.187.197.037.05.118.054-1.834.734.12-.498-.25.074-.775.63-.18-.29-.182.262.08-.5.057-.226.094-.176.017-.23-.194-.106-.113-.1-.17-.43.577-.138.506-.283.993-.845.51-.33.9-.16.582-.234.508-.33 1.222-1.243.508-.33.995-.386.55-.328-1.196-.18-5.16 2.188-1.655.01 1.138-.648.25-.12.292-.115.192-.398.272-.394 1.03-.29 3.328-1.453.4-.522.85-.076.998-.433.976-.16.786-.31.087-.64.135-.22.136-.22.13-.128.018-.23-.383-.257-.42.245-.452.15-.523-.543-.243.028-.113-.1.01-.137.08-.547-.03-.14-.146-.195-.186-.197-.266-.204-.236-.064.083.512-.07.41-.027.366.245.478-.528.1-.376.202-.777.725-.505.284-.57.095-1.692.056-.91.345-3.315.206-1.116.373-.385.29-.05.135-.052.134-.01.136-.09.13-.172.126-1.68.373-.642.455-.316-.07-.465-.223-.278-.07-1.212.04-.582.23-.478.42-.174-.336.21-.12.06-.225.063-.27.097-.223.168-.08 1.8-.36.42-.195.015-.183-.037-.05-.08-.005-.076-.054.16-.493-.173-.337-.393-.124-.398-.032.4-.474.57-.092 1.033.175.577-.185 1.294-1.095.025-.32-1.037-.083.497-.697.85-.577.953-.386.69-.084-.095.177-.192.4-.138.22.447-.058.456-.195.313-.39.133-.68.3.253.433.126 1 .03.02-.274-.195-.06-.5-.27.02-.274.377-.2.697-.73.538-.236.36-.525.134-.174.203-.03.674.097.856-.212 1.578-.757.856-.212.024-.32-1.89.135-2.784.803-.503.284-.26.256-.18.262-.837-.064-.41.106.136.333-.796.445-.323.02.094-.176.12-.498.054-.18-.358-.028-.253.165-.138.22-.17.125-.33.112-.644.042-.286.068-1.188.827-.62.227-.573-.37-.562.51-.682.496-.71.357-.655.13.205-.535-2.378-1.348 1.023-.238.322-.987-.35-1.09-.994-.588-.336.2-.72.955-.3.205-.33.11-.86.71-.42.196-.112-.562.42-1.163-.113-.56-.35-.123-.562-.002-.31-.12.237-.44-.024-.186-.035-.05-.076-.052-.04-.004.05-.134.092-.13.048-.088.06-.226-.12-.01-.163.032-.075-.052.023-.275.843-.02 2.212-.595.437.036.21-.12.102-.267.022-.275-.068-.144-.378-.262-.16-.474-.243-.436-.47-.13.02-.23.337-.202.654-.176.29-.114-.145-.657.577-.228.725-.078.712-.402 1.69-.644 2.46-.353 1.08-.512.67-1.42.198.015-.062.778.212.34.35.12.36-.02-.05-.37.748-2.43.755.52.788.107 1.917-.082-.184-.198-.177-.29-.148-.15.95-.48-5.12-.122.287.898-.196.446-.133.174-.103-.7-.215-.293-.34-.21-.35-.12-.787-.11-3.51.59-.628.363-.254-.298-.203-.43-.258-.253-.284.067-.18.262-.206.074-.615-.743-.277-.022-.73.17-.024.273.237.02.234.067.416.265-.02.23-.664-.15-1.153-.51-.632-.055.016.278.068.144.27.114h-.558l-1.067.37-.566.088-.57-.326-.154-.52.02-.69-.165-.844.25-.117.512-.416.024-.276-.25-.344.35-.34.58-.272.484-.096-.244.532.51.55.307.12.29-.114.106-.314-.052-.327-.016-.28.347-.338-.257-.253-.075-.053.252-.624.33-.156.39.08.486-.098.344-.295.625-.824.29-.158 2.708-.605.403.402-.446 1.575.02.233 1.676-.094.786-.397.733-.724.306-.85-.528-.827.91.027.26.205-.15.403.07.606-.056.687.078.513.337.257.43.08.72.426.85.297 1.065.083.373-.2.606-.645.288-.116.308.115-.168.125-.172.17.377.26 1.87-.086-.362-.442-.343-.165-.828-.064-.79-.567-.348-.12-.42.29-.178-.244-.137-.287-.053-.327-.05-.372.29.345.225.157.275.02.41-.15-.302-.21-.194-.06-.194-.06.025-.322.237.018.687-.177-.218-.754.235-2.01-.396-.49-1.32-.334-.678-.422-.43-.54.424-.382.482-.1 1.74-.003 2.604-.996.374-.248.4-.57.448-.195.666.05.654.234.414.262-.073-.605-.255-.294-.425-.124-.434.013.17-.17.096-.224-.06-.234-.144-.195.024-.32.252-.212.057-.226-.04-.51.142-.31.642-.69.147.15.168-.127.21-.17.28-.07.998.35 2.036.15.19.106.22.2.23.11.286-.164.177-.263.166-.127.24-.03 1.912.23.078.006.232.062.365-.16 1.603.16.913-.12.443-.155.378-.344.368-.205 3.16-.8.45-.29.206.473.424.12.554-.055.364-.16.172-.22.18-.356.22-.354.285-.166 4.454-.268.88-.268-.468-.03-1.6-.744-.81-.236-1.66.17-.423-.12-.262-.2-.022-.278.334-.3.018-.276-.094-.374.072-.502-.012-.416-.378-.208.216-.31.308-.53.21-.218-.675.14-.807.362-.624.558-.072.502-.926 1.55-2.47 2.874-.49.243-2.287.12-.125.083-.433.57-.287.163-.316.023-.31-.068-.304-.16-.222-.2.417-.338.574-.33.46-.38.04-.597-.856.447-1.88.466-1.295-.047-.54-.13-.454-.264-.21-.383-.14-.242-.85-.2-.327-.347.168-.677-.256-.25-.902-.02-.02.275.227.11.18.197.14.24.094.33-1.984.774-1.15.143-.57.234-.27.44-.122.59-.203.077-.22-.2-.154-.06-.742.45-4.552.293.022-.275.45-.195 1.155-.693 1.316-.22 5.497-4.606-.028-.14-.088-.42.284-.118.375-.295.245-.12.357-.066.774.148.276-.025.485-.195.276-.026.283-.118.108-.407.11-.452.226-.4-.104-.19.043-.044.1-.314-.133-.332.244-.12.294-.256.295-.3.263-.397.182-.354.1-.315.098-.27.243-.12.023-.32.078-.548 1.662-1.402.33-.806-.456-.17-1.986-.05-.644-.277.79-.68.3-.347.827-1.23.254-.26.323-.16-.17-.336 1.498-2.474.583-.558.474-.658.412-.893.476-.703.554-.146.557.362 1.082 1.226.565.27.476-.153.524-.287.593-.145.555.406.12-.638-.32-.436-1.1-.396.022-.32 1.487-.178.377.163.73.694.5.078.016-.23-1.004-.665.02-.32.565.267.303.112.292-.304.318-.117.19.06-.182.402.25.34.252.292.3.158.342.114-.14-.838-.133-.33-.138-.287.35-.62.455-.432.85-.544-.27-.018-.476.154-.195.034-2.463-.254-.338-.16.445-.293 1.136-.202.5.033.022-.32-.694-.047.015-.228.245-.214.668-.14.32-.165.018-.275-1.946-.403-.507.058-.91.308-8.102.133-.836.31-.37.295-.59.096-1.04-.076-.48-.312-.283-.39-.162-.426-.32-.392.516-.7-.12-.47-.422-.03-.29.762-.182.908-.346.482-.392.063-.348-.533.024-.32.527-.838-.05-1.894.526-.33.073.052.22.155.19.06.12-.083.182-.356.083-.086.087-.132-.963-1.085.33-.298.963-.482-.918-.114-.43.06-.404.246.312.484-.016.736-.278.625-.475.15-.427-.493.177-.817.324-.713-.015-.324-.108-.1-.105-.146-.11-.1-.167.17-.38.434-.314.07-.217.306-.32.667-.658 1.01-.423.476-1.234.457-.385-.03-.384-.536-.47-.45-1.097.19-.36-.35.127-.13.158-.54.074-.455.102-.315.203-.122.238-.074.307.024.433-.105 1.09-.607.374-.34.017-.23-.845-.064.025-.32.52-.238.02-.275-.344-.027-.28.116-.607.367.017.278-.363.202-.38-.075-.118-.47.182-.355.528-.328.224-.4-.31.023-.21.214-.21.215-.237.073-.224-.11-.18-.152-.228-.064-.29.253-.11.406.003.46.007.416-.28.117-.31.02-.437.15-.964-.03-.338-.12-.254-.204-.243-.343-.12-.425-.13-.287-.335-.166-1.012.102-.61-.096-.31-.44-.208.167-.238.072-.46-.038.283-.622.306-.436.406-.245.506-.05.94.307.386-.015.378-.385.026-.32-.264-.068-.22-.156-.168-.29-.12-.425.53.135.586.37.494.086.267-.44-.502.006-.903-.258-.924-.49-.45-.636-.018-.232-.112-.517-.15-.52-.214-.202-.743.124-.31.02-.21-.25.615-.455.573.047.597.233.608.096-.023-.185-.074-.514-.023-.185 1.108.09 1.082.41.142.15.29.715.24-.12.384-.476.282-.162-1.41-1.128-.34-.534.972-.153 1.895.335.74-.126.883-.484.347-.02.22.156.505.408 1.166.32 1.938.287.02-.275-.44-.264-1.73.006-1.037-.495-1.888-1.393-.196-1.906.183-.862.36-.664.2-.63-.166-.797.244-.165.927-.112.703-.176.578-.048.274-.07.288-.255.152.01.47.36.255.158 4.625-.483.024-.32-.375-.12-.95-.578.158-.08.083-.087.117-.037.156-.035.02-.275-.05-.372.294-.347.886-.626-.187-.06-.435-.308.2-.124.172-.264.138-.312.068-.41-.155.034-.116.038-.12.083-.125.13-.7-.328-3.487-.31-2.537 1.234-1.354.217-.728-.933.325-.252.242-1.134.442-.288-.047-.372.014-.184.102-.315.018-.23-.19-.014.023-.274 1.198-.23.22.11.5.454.333.12.248.248.04.972.248.25.238-.12.024-.32-.002-.463.114-.498-.206-.294-.164-.335-.21-.246-.337-.072-.02.275.125.332-.292-.162-.13-.286-.22-1.08.055-.225.01-.137-.095-.238-.15-.012-.42.013-.1-.192-.058-.234-.133-.24-.16-.383-.03-.602.164-.632.28-.162.313-.114.33-.344-.328-.164.018-.23.21-.26.354-.156-.167-.29.725-.543-.208-.247-.302-.023-.66.18.05.326-.05.18-.118.038-.267.025-.022.275.19.015-.79.86-.69.085-.603-.556-.403-1.14.49.04 1.12-.234.474-.24-.71-.61-.27-.436-.11-.516.177.153.332.117.144.104-.263-.527-.79-1.032.32.257.298.07.24-.166.18-.353-1.195-1.156-.546-.274-.372.386.302.485-.142.358-.426.104-.482-.132.19.477.1.146-.02.276-.336-.073-.305.022-.553.278-.02.23.33.164.093.238-.03.83-.187-.017-.513.236.32.256.27.437.007.37-.426.104-.45-.082-.327-.165-.19-.477.027-.782.154-.495.663-1.147.15-.45.177-.77.214-.304.287-.255.345-.526-.752-.062-.327-.165-.23-.434.45.036.257-.35.195-.536.23-.49.28-.207 1.14-.554.09-.18.094-.222.123-.128.225.018.143.103.016.28.016.277.06.19.317.302.394.26.41.08.393-.2.125.332.21.202.19.014.28-.208.027.14-.008.092.11.055-.61 1.013-.6.414-.595-.14-.595-.6-.217.813.358.26.56.09.438.22.393.307.36-.25.337-.434.395-.2-.3-.53.205-.677.46-.563.393-.2.515.178.778.706.52.132-.086-.376-.17-.243-.505-.316.025-.32.27-.07.225.016.52.132-.43-.31-1.256-.373-.232-.433-.104-.608.063-.318 1.457-.303.515.178.892.67.44.17 4.143.632.266-.026.47-.197.302-.025.18.106.313.392.178.15 1.933.416.232-.075.31-.117.28-.21.207-.262.238-.168.294.113 1.054.58.223.06.14.15.17.84.1.192.457-.06.232-.077.047-.135.165.334.012.37-.094.27-.166.22-.02.274.546.314-.02.276-.513.333.088.376 1.092 1.18.308.483.145.654-.056.826.15.01.05-.734.157-.635.078-.593-.107-.652.542-.194.602-.512.468-.798.224-1.092.422-.663.833-.037 1.445.417.19-.034.123-.13.156-.08.246.29.4.257.404.165.5.446.37.116 1.204.076.538-.15.512-.337.646.547 1.487-.23.693.41.087.42.048.463.126.422.7.32.247.29.48.812.32-.258.378-.024.79.046.018-.275-.33-.204-.443-.164-.363-.253-.123-.468-.132-.33-.362-.253-.444-.165-.376-.023.02-.322.198-.172.294-.49.237-.17.51.307.332.112.164-.22.274-.168 1.71.468-.348-.527-.43-.393-.475-.26-.448-.07-.49-.03-.183-.103-.015-.37.137-.406.294.11.534.538.508-.293-.167-.377-.505-.398-.518-.17-2.404-.144-.104-.143-.013-.416.132-.313.24-.262.312-.165.727-.187 2.932-1.853.382-.116.158-.13.094-.316.085-.825.12-.73.178.15.16.47.022.276.113.006.034.048-.013.23.74-.465.733-.327.075.004 2.008-.302.302-.03 1.13-.72.792-.095.017-.322-.782-.088-.364-.205-.28-.383 1.373-1.077-.033-.785 1.178-.995-.018-1.06.252.197.176.194.18.148.293.107.335-1.363.168-.36-.07-.095-.037-.002-.066-.142-.47.39-.5.25-1.655.186-.937.686-.5.248.015-.275.282-.353.057-.365-.168-.332-.33-.157-.382.163-.68.79-.616.288-1.193 1.222-.353.256-.347.165-.34.073.012-.23.603-.702.39-.3.454-.065.354-.302-.04-.602-.28-.383-.393.346-.148-.008.127-.915-.3-.017-.443.574-.232.77-.163.22-.213-.196-.24-.382-.096-.282.048-.18-.027-.187-.184-.058-.15.037-.273.168-.15.037-.564.013-.303.074-.297.58-.293-.108-.463-.397-1.827-.11-.394-.3.212-.402-.21-.243-1.964-.905-.41-.026.083-.132.046-.135.083-.133.16-.175.015-.23-.32-.25-.13-.284.053-.272.344-.117.375-.022.27-.12.24-.263.068-.503.317-.303 1.79-1.18.608-.195 2.412.19 1.237.534.67.037.015-.275-1.686-.513-.42-.487.384-.16 1.08.016.29.108.27.522.342.527.433.255.46-.204-1.19-1.358-.91-.376-.817-.693-.554-.077.1-.41.19-.08.26.015.265-.076.27-.17.322-.395.31-.212.417.485.517.076 1.163-.163 1.305.626.482.026.015-.275-.406-.068-.507-.26-.382-.48.077-.688.354-.348.916.235.376-.07-.318-.294-.216-.795-.325-.156-.443-.07-.114.04-.12.176-.057.32-.013.23-.008.137-.7-.086-.523-.628-.394-.898-.25-.798.346-.21.214.15.21.243.287.154.336-.027.34-.12.614-.333-.684-.36-.524-.584-.82-1.2.015-.274.2-.22.263-.076.256.06.242.29.285-.444.08-.133-.146-.01.146-.59.19-.08.255.06.27-.17.537-.982.158-.175.206.288.02.97.21.24.157-.174.192-.774.233-.217-.226-1.258-.033-.74.092-.316.31-.26.44-1.264.283-.445.367.02 1.293.67.447-.07.758-.372.41-.07-.204.357-.16.268-.126.27-.096.41.138.19.27-.215.79-.972 1.486-.89.45-.114.347-.305.255-.678.327-.628.557-.065.598.538-.207.45-1.143.724-.014.276 1.022-.5.142.1.173.238.37-.027.375-.12.23-.172.3.615-.013.276-.133.455.222-.035.348-.305.372-.074-.13.41-.198.265-.228.127-.297.032-.015.275.442.02.254.106.224-.035.237-.31.334-.766-.052-.463-.513-.808-.107-.834.43-.485.65-.475.622-.707.063.235.105.097-.647 1.95-.05.273.032.093.065.188.138.19.142.146.22.01.234-.265.223-.035.324.154.46.39.423.435.2.424.032.14.194.562.06.28-.05.32-.147.73-.056.41.205-.404.457-1.084.158-.223.087-.272-.115-.696-.19-.654-.1-.28-.016-.416-.087-.51-.163-.47-.322-.198-.2.312.046.6.118.65.125.467-.33-.062-.207-.286-.207-.287-.21-.286-.69-.218-.243-.288.1-.548.725-1.3.012-.23.838.178.374-.12.88-.696.3-.124.395.202.24.426.163.422.212.193.096.327-.066.642-.14.638-.047.228.094.373.32.29.645.398-.023.506.196.56.238.47.25.197.316.336.043.693-.178.682-.272.31-.337.077-.307.263-.465.485-1.332.814-.013.276 1.453-.21.43.296-.297.86-.31.308-1.22.773-.83 1.114-.35.306-.012.276.487-.116.423-.302 2.396-2.147.26-.034.205-.45.49-.21.56-.113.415-.166.355-.49.177-.684-.085-.602-.432-.248-.103-.19.09-.363.284-.587.044-1.01-.145-.054-.89-1.56-.567-.53-.174-.24-.06-.278-.09-.464.018-.414.572-.435.29-.724.075-.872-.23-.655.403.063.36.154.327.107.38-.26-.068-.14.004-.093.006-.137-.063-.233.458.435.5.344.514.02.96-.97.483-.12.468.25.334.797-.514-.02-.147-.007.427.34.503.297.55.023.455-.304-1.453-1.303-.66-.948-.03-1.014-.607-.393-.283-.243-.17-.283.377-.26.435.11.75.493 1.623.666.4.107.86.54.318.29 1.138 1.932.354.335 1.154.597.877.172 1.083.546.464.386.56-.21.308.655-.104.826-.752.433-.668.113-.822.29-.755.48-.842.795-.79.384-.67.158-.307.31-1.128 1.428-.396.675-.327.77zm22.25 41.612l-.368-.332-.38.035-.345.175-.307.084-.296-.24-.18-.28-.19-.052-.355.542-.046.275.03.323.027.37-.123.317-.157.18-.57.076-.65.212-.152-.004-.184-.144-.11-.187-.107-.187v-.046l-.68-.02-2.147.763-.188-.052-.374-.15-.188-.005-.12.18-.12.18-.157.18-.116.088-.374-.196-.618-.848-.37-.288.412-1 .052-.457-.248-.515.59-.672.25-.774-.127-.74-.18-.237-.364-.472-.477-.428-.258-.193-.302-.01-.27.128-.197.27-.197.224-.263-.055-.517-.34-.513-.477-.472-.57-.39-.702-.1-.418-.098-.417-.1-.372-.18-.235-.85-.49.42-.216.204-.408-.015-.644-.237-.79-.24-.654-.144-.19-.265-.008-.22-.146-.2-.698-.14-.28-1.457-1.343-.81-.445-.753.018-.74.708-1.276 1.84-.813.566-.188-.008-.45-.11-.076.044-.077.043-.047.228.066.233.066.232.074.05-.002.045-.203.36h-.036l-.12.178-.187-.052-.113-.005.02.46.81.448-.173.592.838.77-.357.446.125.695-.505.348-1.372.315-.272.173-.235.22-.16.27-.132.41.106.187.22.193.028.232-.5.21.096.418-.093.41-.203.36-.24.266-.308.172-.106-.19.053-.365.022-.504.053-.366.086-.273-.106-.142-.737.43-.198.22-.013.277.518 1.218-.152-.006-.266.035-1.155-.464-.38.076-.113-.05-.03-.186-.174-.376-.187-.054-.267.035-.072-.095.28-.356-.6-.073-1.02.784-.532.07-2.578-.76-.294-.198-.058-.37-.02-.37-.177-.285-1.673-1.413-.448-.113-1.44.07-1.35-.25-.436-.343-.307-.66.016-1.84-.154-.7-.326-.292-.972-.187-.183-.1-.184-.102-.39-.48-.31-.615-.457-1.358-.677-.035-.62-.354-.533-.627-.936-1.523-.565-.675-.207-.38-.02-.323-.058-.326-.32-.34.153-.038.464-.25 1.293-.3.618-.337.277-.262.157-.13.332-.628.524-.71.514-.525 1.81.506.972.095.953-.32 2.505-2.228 1.023-.273-.034-.832-.257-.104-.388.258-.42.21-.366-.202-.75-.727-.327-.2-.152.04-.387.256-.223-.012-.177-.193-.197-.562-.217-.15-.405-.11-.396-.297-.163-.47.217-.587-.144-.1-.392-.388 1.223-.538.897-.784.298.014.676.678.762.45.82-.006.844-.466.895-.787.422-.257.846.27.715-.152.436.25.26.01.305-.123.003-.09-.106-.144-.06-.325.083-1.008.176-.59 1.84-2.083.406-.766.298-.862.02-.46-.065-1.06.133-.502.195-.22.49-.21.04-.045.16-.27.053-.365-.103-1.064.125-.316.11.004.08-.088-.096-.373.747-1.027.232-.266.306-.218 1.524-.166.23-.22.2-.315.193-.22.487-.166-.29.77.406.018 1.084-.28.442.065 1.012.592.808.168.818-.107.302-.17.543-.67.343-.265.02-.55.213-.73.32-.678.27-.313.31-.402.217-1.88.17-.592.367.014 1.006.726.472.2 3.062-.03 2.766-1.2 1.66-.085.415-.31.384-.494.454-.4.523-.26.515-.03.868.53.546.2.935-.57.585.154 2.28 1.396.366.148.518-.08.93-.39.48-.08.916.208.473.24.176.328.218.097.86 1.034.21.465-.128 2.342-.164.686-.39.865.175.42.443.055.445-.036.33.054.366.192.29.283.176.373-.09.78-.443 1.554.03.277.702.108.62.382.58.564.468.7.067.324.172.647.142.324.143.188.364.33.18.233.217.326.214.42.138.555.062.6.237 1.154.624.425.7.29.54.884.15.002-.43-.928-1.49-1.685.385-.684.74.2.73.703.433.65.272 1.34-.096 1.194-.352.914-.57.587-.715.354-1.426.43-.676.31-.646.584-.462.634-.582 1.046-.35.59.296.19.104.37-.008.37.07.23.3.007.19-.18.117-.272.305-.27.54-.863.23-.27.868-.398.832-.58.528-.267.37.19.367.284.56.056 2.88-.41.147.14.29.558.22.142.26.096.07.277-.004.322.067.46.35 1.48.29.6.408.238.145.37.124 1.658.103.555.73 1.206.15.142-.157.41.034.232.073.14-.04.228-.117.275-.462.73-.157.502.14.69-.086.69-.267.318-.305.27-.118.367.33.465-.378.178-.31.594-.34.04-.26-.28-.215-.6-.25-.833-.298-.144-.22-.418-.18-.463-.03-.46.16-.504.574-.68.123-.64-.053-1.336-.247-.97-.4-.697-1.656-1.684-.666-.38-.71-.06-.005.323.18.37-.083.414-.232.363-.23.272.337.006.26.19.22.234.184.14.898.064.258.234-.378.177-.526.082-.19.18.742.428-.122.504-.01.506.145.37.298.097-.002.184-.04.14-.154.226.183.28-.715 2.194-.195.365-.878.72-.31.454 1.022-.35 1.14-.67 1.02-.258.702.747.2 1.612-.322 1.19-.656.956-.807.86-.114-.002-.3-.05-.114.043-.166.824-.153.135-.228.087-.188-.05-.07-.322-.295-.328-1.43-.118-1.02.07-1.065.394-.49.036-.496.22-.123.503.008 1.426-.003.137-.093.826-.17.87-.207.824-.28.684-.465.543-1.033.483-.776.81-1.043.805-.344.13-.95.07-.414-.1-.41-.333.005-.23.5-.264.19-.04-1.84-.736-.338-.055-.246-.742-.636-.293-.755-.065-.488-.197zm3.592-50.656l.062.463-.16.548-.233.455-.19.27.044-.32.006-.23.04-.137.115-.18-.538-.52-.586-.062-.59.03-.55-.06.266-.27.262-.176.296-.084.295-.04 1.243.217zm25.18-5.256l-1.102.218-1.28-.152-1.056-.427-.98-.61-.976-.887.003-.276.004-.276-.204-1.153-.105-.322.004-.276.147-.09.038-.138.037-.09.113-.23-.572-.836-.427-.834-.17-1.014.13-1.378.34-.916.56-.866.735-.634.8-.128-.033-.184-.07-.277-.033-.184.58.007.218.003 1.518.8.395.418.466.788.318.878.45 2.12-.26.55 1.01 1.068.028.966-.22.136-.33-.003-.22.135.103.6.218.14.946.47-.517.362.03.552.25.647.03.69-.332.364zm2.666-12.12l-.183.23-.29-.003-.216-.37-.283-.738-1.51-1.486-.247-.693-.24-1.198-.032-.507-.827-.606-.14-.278-.174-.646-.28-.74.043-.69.763-.404.716.652.714.835.18.14.217.003.18.14.1.967.18.185.216.094.18.185.284.555.212.553.176.6.207 1.29-.003.276-.183.227-.224.55.253.186.177.324zm-25.582-4.744l.04 1.29.136.416.317.422.356.33.214.144.105.186-.08.32-.12.412-.004.23.104.232.14.187.396.193-.083.458-.012.507.063.415.138.325-.006.276-.294.13-.223.18-.187.226-.118.364-.138-.325-.452.632-.558.493-.628.353-.66.167-1.017-.164-.295.132-.206.915-.112.135-.226.27-.597.49-.626.168-.542-.2-.303-.927.172-.962.526-.583 1.293-.702-.468-1.53-.282-.33-.933-.485-.18-.05.13-.734.6-.766 1.118-1.028-.537-.29-.65-.11-.656.074-.52.4-.584 1.456-.347.68-.74.53-.797 1.083-.3.36-.66.07-.278-.42.02-.69.35-.727-.144-.05-.066-.186-.142-.096.274-.682 1.1-1.532-.783-.576.335-.266.19-.27.12-.41.055-.644.05-.504.193-.363.886-.573 1.284-.562.298-.314.26-.176.284.146-.187.225-.32 1.187-.01.276.162.74.172.328.288.1.007-.276-.16-.833.532-.906.78-.76.847-.484.6-.813.293-.176.363-.083.33-.176.334-.313.222-.225.216.052.14.187.065.277.065 1.796zm-.433-11.835l-.79 1.314-.272.82.018.737-.44.357-.655.167-.647-.062-.463-.242.37-.312.19-.455.124-.55.23-.546.484-.632.15-.226.183-.133.356.147.184-.134-.067-.185-.034-.092-.03-.277.398-.035.364-.175.252.006zm8.126 4.045l-2.03 3.915-.54 1.69-.252-.097-.595.724-.402.175-.187.318-.254 1.65-.16.64-.626.4-.905-.112-.822-.57-.337-1.067-.168-2.03.054-.734.268-.637.332-.268.403-.22.407-.406.7-.58 1.85-.328.772-.627-.58-.012-.834.21-.795.03-.345-.698.31-.96.675-1.088.74-.858.476-.36.725-.214 1.8-1.757 1.212-1.173.728-.492.5.24.063.414.06.598-.044.505-.368.362-.372.637-.476.45zm1.412-5.953l-.576.08.264-.684.403-.407.802-.63.174.326.13.693-.475.405zm2.696-4.184l.026.6-.19.593-.226.64-.238 1.284-.247-.28-.41-1.11.222-.41.305-1.008.256-.317.14.14.107.14.108-.044zm.69-2.61l-.152.504-.22.364-.15.366.133.555-.508.314-.425-.284-.13-.692.3-.823.29-.224.535.102zm1.96-3.97l-.37.73-.437.5-.502.22-.607-.055.114-.366.148-.273.365-.5.714.056.36-.086zm-15.12-2.332l-1.212.017-.567-.107-.593-.568.224-.362.294-.314.29-.13.32.008.31.376.7.57zm-16.678.555l-.464-.016-1.438-.697-.195-.514-.083-.648-.224-.698.51-.304 1.574-.173.505-.166.875-.567.538-.12 1.188-.373.57.02.294.745-.338.54-1.43.137-.06.688-.477.398-.5.075-.508.212-.454.72zm19.75-6.78l.547.885.873 2.274.064.323-.006.276.03.185.248.097 2.314.05.175.14.172.28.14.142.36-.223.25-.04.214.05.176.14.483.792.21.188.21.096.43-.083.143.002.245.234.314.374.276.51.098.508.14.095.36-.085.245.19-.156.824-.176-.142-.177-.095-.426-.054.173.278.346.604.17.555-.327.27-.75-.013-.32-.144.045-.46-.138-.186-.14-.095-.144-.003-.18-.004.062.553-.295.5-.764.676-.005.322.363-.315.433-.177.86-.076.39.192-.188.455-.402.5-2.067 1.384-.934.164-.706-.52.145-.09.255-.27.222-.363.044-.367-.21-.234-.25-.006-.576.218-.145.09-.115.318-.185.272-.218.133-.79.167-1.848.924-.404.45-.256.225-.32-.1-.283-.19-.246-.144-.253.086-.546.4-.254.132-2.15-.055-.145.088-.115.32-.15.27-.22.133-.286-.007-.497-.197-.635-.386-.38-.47-.34-.654-.122-.785.23-.59.512-.355.61-.075.428.057.38.47.27.606.314.376.436-.265.01-.322-.18-.005-.105-.095-.07-.093-.104-.095.4-.174 1.03.258.398-.174.403-.358 1.582-.283 1.055-.757.475-.45-.137-.232-.468.127-1.376.75-1.114.248-.607-.06-.42-.426-.094-.462.118-.41.222-.317.252-.086.324-.084.183-.18.343-.865.08-.32.113-.273.186-.27.252-.087.783.11 1.406-.61.29-.224.153-.41.008-.414-.098-.37-.21-.235-1.477.747-.5.034-.182.134-.182.18-.214.04-.21-.19-.37-.882-.204-.373-.277-.33-.456-.287-2.125-.424-.457-.242-.383-.287-.31-.376 1.124-.8-.167-.37-.448-.565-.128-.51.854-.07.36-.173.364-.312.204.327.21.19.176.004.183-.178.092-.826.687-.488.895-.3.746-.073.314.238 1.09.394-.074.182-.047.458-.04.183zm-12.24.54l-1.203.93-.395.126-.562-.247-.248-.008-.154.363-.086.457-.206-.237-.197-.512-.13-.42.644-.116.623-.578 1.084-1.668.296-.36.762-.527.54-.214.69-.577.394-.126.606-.12.244.145-.19.41-.224.406-.345.865-.15.317-.186.225-.182.18-.218.13-.32-.01zm-18.054-17.04l.166.236-.666-.073-.184.176-.22.22-.186.223-.182.13-.18.084.125.374-.19.268-.36.168-.388.03-1.465-.342-.343-.2.053-.41.265-.404.395-.166.29-.17.123-.41-.048-.508-.233-.287.58-.388.566-.113.438-.35.225-1.14.104.005.067.094.13.237.176.008.104.05.1.097.1.142-.382.72-.147.132.72.445.204.193.093.28.057.325zm25.306-.368l-.008.322.597.014-.355 1.51-.446.86-.644.35-.883.07-.38-.24-.36-1.023-.31-.238-.347-.148-.68-.802-.416-.242 1.415-1.523.72-.577.88-.114 1.173.814.476.61zm-5.544-1.537l-.74.07-.737-.024-.59-.156.36-.31.786-.436.46-.124.237.283.558.155.276.192zm13.595-9.81l-.74.305-.586-.29-.51-.563-.128-.554.565-.355.763.2.58.61zm-31.982-5.897l1.958 1.508-.18.13-.175.04-.41-.2-.01.275.48.158.67.67.518.114-.01.276-.64.342-.478-.296-.4-.43-.917-.59-.426-.663-.4-.477-.532.253.133.144.133.19.13.19.026.23.055.325.17.1.174.006.208.01.51.296.1.097.26.517.34.198.696.03.345.105.23.33.23.333.235.24.35.013-.13.593-.218.22-.285.127-.257.312-.154.36-.28.863-.188.36-.427.167-1.726-.532-.013.276 1.45.474.367.43.183.65.067.924-.103.824-.265.495-.373-.29-.418-.063-.875-.037-.015.322.383.062.81-.06.347.062.372.337.26.47.27.334.452.064-.012.277-.548.53-1.875-.492-.72.43-.597-.807-.19-.468-.5-2.23-.04-.692.158-.454.014-.32-.36-.57-.237-.193-.31-.105.295-.355.187-.268.35-.813.122-.41.05-.366.117-.27.317-.08.2-.543-.225-1.297-.51-1.908.433-.35 1.064-.46zm1.49-3.204l.203.146.208.008.246-.036-.042.182-.002.046h-.035l-.108.086.202.147.173.006.212-.084.21-.037.137.05.604.532-.15.27-.305-.197-.54.44-.417.028.122.42.168.144.52.02.308.15.197.285-.045.274-1.97.52-.585-.163-1.725-1.177-.224-.47.14-.822.34-.63.467-.348.522-.024.232.24.274.104.28-.08.288-.22zm29.398.43l-.084.643-.41 1.232-.347 1.463-.03 1.287.168.28.298.696.123.694-.39.313-.388.175-.355.267-.35.13-.378-.286.04-.275.04-.138.108-.18-.27-.376-.018-.69.273-2.706.156-.686.39-.312.626-.078.007-.276-.134-.233-.134-.187-.164-.463.25-.27.242.005.445.286.007-.32-.3-.56.207.05.172.097.1.186zm.38-1.507l-.015.69-.342-.24-.128-.415.047-.55.29-.546-.103-.094v-.046l-.064-.186.178-.226.144-.18.174-.042.133.232zM432.694 253.97l-.035-.003.005-.046.007-.044.034.004.028.05zm144.973 10.015l.37.245.672-.342.3.242.31.058.517.02.406.245.153.512-.217.268-.408.674-.18.177-.31-.058-.194-.33-.16-.327-.133-.145-.24-.1-.497-.526-1.002-.04-.01.274.24.056.168.1.028.184-.148.224-.013.32.625-.02.2.192.046.6.16.374.346.013.735-.2-.484.9-.534.347-1.32.086-.176.04-.32.216-.14-.006-.167-.145-.15-.558-.134-.143-.28.035-.965.74-.013.322 1.593.065 1.33-.314.45.064.373.198.133.143.093.28-.08.273-.486.856-.932-.13-.49.073-.36.307-.367-.337-.766.06-.413-.108-.202-.147-.064-.14-.257-.47-.06-.234-.094-.233-.165-.237.174.008.462-.303-.76-.078-1.31-.976-.684-.212-.15.27-.147.177-.176.084-.17-.054-.272-.15-.338-.2-1.005-.78.012-.275.535-.343.378-.72.347-.812.376-.674.47.298 1.532-.21-.012.275-.175.04-.424.21.356.568.685-.66.768-.98.54-.483-.01.23-.144.13-.112.18-.264.542 1.222.555.447.065.01-.276-.135-.052-.3-.242.49-.21 1.068-.738.625-.068.26.38.088.416-.15.316zm19.672-1.364l.193.466.165.28.54.43.2.326.528.933.064.23.98.854.4.607.233.374.095.37.135 2.947.177 1.245.02.6-.084.594-.233.96-.048.55-.112.32-.607.582-.218.362.25-.223.39-.266.42-.173.31.146.2.42-.15.41-.253.36-.11.228.087.692.303.468.34.284.133.325-.183.362-.78.44-.286.316 1.924-.23.52.15.096.37-.288.362-.565.263-.006.275.595-.03.53-.265.454-.035.476.516.206.19.313.052.56-.08.345.192.202.372.13.416.135.233.348.053.215-.226.11-.273.143-.135.942.064.64-.63.635-.264.663.013.373.56 1.676.03-.368 1.05-.005.276.096.46-.113.412-.18.32-.467.634-.817.674-.355.178-.912.074-.145.273-.088.918-.222.593-.463.36-.497.265-.215.226-.182.318-1.372 1.856-.394.36-.43.312-1.198.203-.313-.145-.198-.557.087-.733.618-.906-.062-.37.006-.275.143-.09.073-.136.113-.365.075-.184.145-.226.438-.772.217-.27.25-.272 2.195-1.056.005-.276-.636.308-.634.217-1.924-.044-.103-.094-.03-.23.006-.322-.064-.232-.504-.93-.306-.376-.24-.143.06.414.095.37.265.65-.26.592-.146.318-.25.224.167.326-.288.315-.22.454-.222.455-.318.13-.273-.33-.122-.738-.085-.83-.02-.644-.168-.235-.14-.05-.105.044-.18.226-.17-.28-.17-.188-.206-.098-.244-.052-.007.276.342.332-.392.266-3.242.788.01-.322.285-.222.69-.9.007-.277-.42-.01-.387.08-.39.22-.358.266-.436-.7-.292-.79.247-.086.214-.178.18-.225.15-.317-1.05.063-.382-.103-1.005-1.5-.066-.14-.09-.417-.067-.14-.134-.188-.067-.14-.1-.14-.062-.28 1.068-.703.46-.217.485.106.408.38.37.515.477.427.59.154-.265-.558-1.396-1.235-.268-.375-.137-.096-.275-.1-.246.085-.494.17-.278-.008.32-.266.01-.276-.174-.05-.444-.29.175-.04.07-.045.076-.182-.205-.098-.132-.233-.06-.37.12-.456-.317.082-.47.584-.318.174.15-.363.012-.414-.058-.37-.2-.328-.19.546-.283.175-.248.085-.22.36-.05.46.22.788-.083.457-.36.31-2.067-.755-.51-.384-.4-.52-.155-.602-.172-1.11-.914-.766-.21-.927 1.387.045-.3-.378-.194-.466-.018-.505.192-.546.328-.45.21-.085.204.145 1.156 1.83.127.373.2.282.37.334.312.055-.122-.51.008-.276.107-.09.074-.135.14-.042-.4-.518-.032-.093-.065-.14-.2-.282-.028-.185.04-.183.21-.085.074-.136.18-.177.38.058.648.343-.184-.787-.534-.66-.68-.482-.547-.2.29-.406.262-.59.052-.596-.23-.375.01-.32.45.013.335.332.23.376.475.336.093.37.023.37.026.276.234.283.134.142 1.023.583.236.237.23.42.338.333.278.008.317-.175.38.012-.555 1.225.242.053.503-.583.266-.82.307.147 1.636 2.344.008-.275-.1-.14-.096-.28-.1-.186.016-.552-.297-.56-.737-.94-.357-.883.115-.41.29-.407.3-.865-.244.04-.274-.054-.204-.144-.17-.143.122-.595-.095-.324-.2-.28-.096-.28-.02-.46.073-.182.14-.042.913-.526.144-.18.22-.5.153-.5.18-.27.272.144.174-.087.07-.044zm-19.124-1.143l-.668.296-.513-.113.972-1.02.417-.074.19.467zm-30.954-5.395l-.487.063-.427-.348-.188-.886.324.343.82.14.365.207zm35.092-2.862l-.034.92-.247.174-.77-.58-.12.5-.148.27-.246.13-.31-.013.08-.317.005-.092-.033-.046-.03-.14.962-.883.488-.21zm3.515-14.077l.684.85.243-.13.196.238.162.236.125.326.09.37-1.837-.063.01-.276.237.008.068.003.01-.276-.267-.148-.19-.42-.083-.51.15-.407zm14.757-3.872l.268.146.34-.038-.008.322-.48.217-1.004.755-.35.405.092.37-.04.274-.176.18-.274.04-.275.13-.22.59-.652.26-.075.273.058.37-.042.32-.21.223-.24.086-.613-.018.39.7.81.253.885-.022.62-.26 1.085-1.166.344-.176.41-.128.237.052-.21.27-.007.276.136.003-.108.228-.108.227-.105.135.063.185.092.416-.586.26-.208.133-.174.18-.215.41-.072.135-.413.173-.306-.054-.634-.477-.372-.1-.99.063-.338-.1-.668-.48-.34-.01.468 1.53.224.513-.175.18-.072.134-.006.23.093.324-.384.312-1.13.197-.78.942-.312.174-.24-.007-.3-.24-.237-.053-.597.58-1.17.285-.34-.057-.01.276.82.072 2.888-.648.696-.393.308-.036.267.237.228.42.087.555-.016.55.067.05.198.234-.143.225-.21.178-.174.087-.24.04.234.19.27.1.273.053.273.007-.423.448-.32.45-.353.358-.517.123-2.077-.43-.473-.198-.102-.003-.147.316.2.19.44.198.364.378.746.252.33.424-.01.32-.243.132-.363.68-.18.27-.42.262-.273-.008-.27-.192-.407-.104-.01.32.102.05.098.14.1.096-.01.322-.52.214-.41-.06-.334-.33-.26-.47-.187-.603-.096-.232-.203-.1-.11.228.09.462.187.558.163.28-.144.226-.71-.39-.2-.192-.128-.234-.12-.51-.543-1.258-.152-.603-.048-.6.378-1.09.67-.576.794-.25.82-.02.01-.276-2.118-.066-.01.275-.118.455-.535.672-.636.577-.453.26.293.47.402 1.3.232.238.302.194.264.33.192.42.197.282-.107.09-.106.087-.106.09-.172.04.163.28.17.098.168.097.1.095.06.278.074.876-1.804-.52-.773-.486-.21.13-.112.227-.112.273-.214.27.268.192.438.244.202.144.484.936.094.28-.148.316-.28.174-.417.078-.376-.06-.01.277.14.005-.01.275-.48-.108-1.003-.816-.183.316.134.097.16.327.168.144-.29.404-.25.267-.603.484.102.05.132.14.066.096-.464.443-1.38.915-.43.444-.168-.1-1.085-1.42-.203-.098-1.276-1.796-.233-.193-.093-.28-.16-.328.012-.275.347-.08.274.058.165.19.122.372.05.508 1.885-1.63.293-.495.52-.12 1.063.085-1.033-.91.01-.276 1.156-.602.658-.16.645.206.434.337-.2-.19-.2-.192-.198-.19-.066-.094-.063-.14.42-.26.208-.04.01-.275-1.303-.045-.304-.15-.56-.663-.302-.15-1.305.045-.573-.25-.145-.696-.317.22-.17-.008-.998-.82.354-.308.29-.356.282-.22.444.017.01-.23-.066-.094.002-.045-.033-.047-.03-.14.653-.066.763-.248 1.36-.73-2.105.52-.65-.026.12-.41.177-.176.24-.037.238.055.01-.276-.614-.023.21-.13.18-.176.144-.224.114-.318-.982.653-.172.04-.596-1.403-.162-.236.122-.5-.13-.19-.166-.098-.095-.188.09-.548.252-.358.015-.413.174-.085.104-.087.04-.137.11-.224-.132-.097-.165-.146-.098-.095.01-.277 1.637-.03.45-.166-.57-.298-.195-.238-.083-.51.053-.502.148-.316.462-.49.295.288.833.49.168.053.177-.178 1.17.64-.01.276-.646-.07.148.603.416.75.26.332-.056.64.208.882.313.793.257.422-.02-.368.007-.23.054-.55-.127-.28-.314-.746-.122-.417.245-.175.077-.273.046-.32.07-.09.998-.24.21-.178.38-.08.568.297.492.568.252.606.608-.854-.532-.385-.163-.236-.094-.233-.078-.69-.095-.234-.134-.05-.343.08-.135-.05-.03-.094-.056-.37-.03-.138-.26-.377-.094-.233-.094-.233.105-.087.105-.088.105-.09.17.007-.125-.326-.095-.187-.133-.097-.238-.01 1.853-1.544.463-.675.265.192.174-.132.142-.18.208-.13.746.024.582-.166 1.412-.69.175-.18.598-.717 3.98-2.963 1.12-1.393.623-.58.54.06.426.47.35.79.285.79.083.69.354.7.058.414-.378.22-.176.225-.55 1.73.16.28zm95.093 106.765l-1.037.45-.142.095-.103.142-.062.324-.052.646-.066.186-.1.234-.56.662-.107.096-.357.196-.143.096-.21.283-.248.146-.105.142-.067.187-.1.324-.1.28-1.247 2.017-.14.19-.25.145-.326.056-.91.074-.287.1-.143.097-.07.095-.03.185.004.184.043.183.076.09.076.136.37.22.11.04.043.184.003.138.077.136.077.137.3.267.077.135.004.137.04.137.084.32.433 1.045.388.724.342.45.272.497.004.14.042.136-.035.047.003.092.002.092.04.136.042.137.573.765.077.135.076.09.043.183.004.138-.03.186-.103.233-.246.33-.283.33-.466.336-.29.147-.654.158-.32.287-.212.283-.687.342-.18.144-.136.326-.065.232-.1.37-.103.234-.213.236-.433.29-.22.05-.147-.04-.077-.137-.262-.176-.11-.042-.332-.037-.584.11-.252.145-2.076 1.988-1.244 1.643-.287.283-.107.14-.07.14.008.322.08.182.076.136.04.09v.093l-.032.14-.028.368-.105.187-.107.14-.328.147-.397.332-.53.934-.283.467-.503.518-.654.475-1.02.53-.44.148-.325.284-.642.98-.498.84-.07.14-.18.233-.183.142-.767.384-.108.14-.388.93-.11.094-.107.14-.368.054-.186.003-.934-.486-.112-.044-.146.095-.07.185-.016 1.105-.034.185-.32.696-.06.737-2.025.59-7.638-.432-.41-.13-.372-.18-.372-.134-.332.142.075.09.037.047.04.183-.406.19-.37-.134-.712-.635-.283 1.152.19.458.122.826.048.92-.03.69-.25.693-.406.234-2.23-.206-.63.098-.513.88-1.71-.262.076.23.112.09-.222.186-.186-.044-.15-.183-.113-.275.255-.508.11.09.114.184-.04-.322-.038-.137-.075-.138-.292.51-.37.324.116.46.076.183-.186.002-.332.278.824.822-.22.23-1.26.563-1.85 1.484-1.154.145-.745-.042-.002-.322-.112-.045h-.074l-.076-.092-.075-.09.073-.14.074-.138v-.046l-.04-.414.11-.552-.078-.414-.336-.136v-.23l-.334.323-.295.6-.07.735.225.643-.93.188-1.23-.824-.86-1.423.218-1.703-.37.23-.593.784-.37.186-.373-.046-1.785-.87-.26-.23-.223-.277-.223-.598-.11-.46-.186-.322-.37-.092-.15.185-.185.414-.15.55-.074.46.223.967.184.598.15.276.37.047.373.092.297.23.298.367.075.55-.223.462-.112.55.336.598-.298.598.075.874.113.828-.15.322-.148.092-.112.184-.15.23-.26.092-.56-.09-.485-.232-.634-.46-.224-.138-.858.045-.186-.184-1.412-2.166-.78-.784-2.858-1.804-1.076-.327-.52-.326-.438-1.198-.482-.233-.928-.006-.596.272-.524.455-.486.503-.376.503-.226.413-.076.23-.04.23-.002.275.035.368.145.507.145.416.26.185.145.46.29 1.015.366.968.705.603-.003.37-.117.78-.04.368.036.23.293.692-.522-.142-1.04-.605-.485-.096-.22-.323-.145-.645.005-.69.302-.413-.185-.23-.11-.278.003-.323.115-.32-.447-.05-.186-.048-.185-.187-.07-.368-.108-.6-.144-.553-.26-.232-.48-.234-2.24-2.828-.694-1.25-.43-1.522-.09-1.657.09-1.518.156-.78.337-.318.516.05.26-.042.112-.137.116-.505.257.233.218.462.072.23.364.602.18.416.108.46.033.46-.047 1.013.07.37.33.462.405.37.407.097.45-.456.075-.185.075-.137.002-.276-.837-1.755-.107-.415-.07-.323-.038-.047-.325-.877-.07-.46.046-.966.04-.276.115-.367.416-1.008.19-.55.045-.875.228-.78.446-.456 1-.637 1.563-2.15.11-.092.26-.043.036-.138.002-.46.002-.185.56-1.422.113-.367.003-.414-.068-.92.076-.414.112-.23.813-1.006.405-.366.222-.23.112-.412.225-1.01.222-.46.772-.686 1.577-.776.55-.826.223-1.15-.216-1.012-.545-.738-.875-.28.514-.78v-.045l-.105-.873-.507-.876-.69-.6-1.31-.56-.727-.05-.253-.138.184-.413.003-.323-1.34-.883-.76-.74-.468-.648 1.062-1.143.37-.917-.1-1.38-.142-.508-.142-.37-.106-.46-.132-1.794v-.046l-.1-1.15.152-1.103.366-.734.51-.502.724-.27.47-.09h.29l1.477.745.397.048.29-.09.506.324 3.867.608.58-.367-2.53-.557-.94-.233-1.01-.647-1.184-1.523-.937-.373-.43-.462-.358-.554-.286-.553-.28-1.244-.036-.23-.324-.095-.11.32-.003.46.14.508 1.11 1.708.248.74-.147.366-.433.043-.578-.004-.54-.234-.25-.6-.066-.735-.024-1.61.038-.368.915-2.387 1.668-2.704.11-.6-.106-.183-.252.182-.326.458-1.346 2.797-.327.504-.503.042-.178-.323.044-1.335-.104-.552-.213-.416-.322-.14-.326.41.28.74.314 1.473.17 1.473-.04.644-.326.09-.038.322.066.873-.006.828.068.553.105.46-.326.183-.324-.14-.396-.188-.396-.14v.275l.287.186.323.186.25.324.105.506-.113.597-.22.413-.29.32-.185.366-.112.505-.076.414-.113.414-.22.412-.33.365-.29.045-.722-.145-.394-.51-.314-1.06-.206-1.198-.1-.83-.927-1.296-.103-.507-.177-.37-.364.318.353.693.844 2.264.173.875-.185.41-.433-.14-1.54-1.305-.212-.554.01-.873-.257.32-.187.55-.15.595-.078.413-.112.32-.7 1.004.566 1.202.21.647.172.737-.435-.006-1.008-.61-.794-.285-.25-.325-.13-1.06-.142-.185-.18-.095-.18-.186-.067-.323.004-.367.01-.782.077-.32.224-.457.04-.367-.03-.37-.272-1.244.585-.636 2.613-4.476 1.338-.583.978-.726.218-.273.845-1.923.4-.55.685-.452.9-.407.83-.59.438-1.102-.396.273-.868.96-.397.226-.934.084-.396.134-.362.32-.256.548-.553 1.467-.255.273-2.788 1.9-1.945 2.967-.218.135-.433.04-.182.09.033.23-.152.596-.15.504-.073-.047-.223.457-.507.177-.577-.054-.43-.144.003-.23.005-.37-.068-.23-.18.09-.077.228-.003.23-.004.276-.18 2.297.072.094.358.19h.11l.24.88.064.46.03.414.068.323.286.28-.004.277-.145-.002-.004.276.072.048.25.233-.11.092-.11.09-.11.09 1.248 1.444.603 1.02.167 1.06-.153.596-.33.272-.803.265-.366.224-1.07 1.227-.297.41-.225.457-.153.504-.08.367-.083.735-.04.322-.517.406.034.184.105.186.034.138-.052.966.215.233.29.096.176.417-.155.55-.404.178-.258.226.134.784-.527 1.004-.153.41-.004.23-.012.783-.04.32-.075.046-.11-.047-.11.09-.535 1.418-.375.547-.555.313-.004.276.293-.04.217.094.216.234.215.325.387.972-.003.184.29.28-.267.594-.79 1.137-.41.408-.447.36-.555.267-.553.082-.22-.05-.472-.238-.257-.005-.258.088-.56.404-.258.087-.697-.06-.438-.147-.21-.51-.258-1.845-.02-.92.128-.827.67-.537.936-1.087.228-.41.016-.873-.09-.968-.02-.967.35-1.19-.102-.323-.14-.28-.068-.322.082-.46.606-1.23.5-1.462.126-.87-.245-.558 1.292-1.08.154-.504.155-.55.377-.73.41-.59.33-.27.66-.312.846-.722.742-1.093.455-1.28-2.326 2.586-.846.676-.292.133-.29-.005.154-.55-.65-.24-.286-.236-.32-.42-.17-.555-.015-1.15-.104-.325 1.004-1.5.15-.32.155-.55.37-.453.44-.406.37-.454-.547.267-.812.95-.62.312-.442.406-.182.043-.176-.28-.135-.507-.027-.46 2.6-4.003.225-.502-.106-.186.148-.18.147-.183-.322-.144-.29.133-.33.315-.365.224-.158.778-1.03 1.132.017.966-.412.728-.074.137-.252-.096-.068-.23.042-.322.113-.228.13-1.148.896-1.685 1.81-2.544.075-.183.04-.183.04-.183.18-.043.144.002.178.095.142.14v.047l.07.094.178.14.18.004.04-.23-.104-.277-.14-.186-.144-.093-.07-.047-.133-.693-.03-.322.077-.32.774-1.138.15-.412.153-.55-.685.174-.55.68-.48.682-.546.45.16-.87.336-.823.41-.822.44-.683-.205-.555.294-.41.507-.313.468-.085.253-.134.04-.32-.138-.325-.32-.144-.973.306-.18.135-.22.273-.256.226-.214-.05-.137-.37.08-.506.266-.87.312-1.558.224-.548.436-.453.425.237.646-.036 1.152-.488.003-.23-.535-.008-1.007.352-.534-.146.487-1.372.184-.32.253-.18.324-.132.182-.182-.1-.37.582-.818.79-.356 2.322-.198 1.848.575.787-.175.613-.545 1.483-2.007.765-1.74.506-.685-.5.318-.327.594-.258.734-.362.64-.936.864-.545.913-.253.274-1 .08-2.453-.583-.65.588-.353-.28-.368-1.615-.287.133-.29.364-.44.913-.318-.28.85-2.01.115-.598.56.605.568.192.498.007.43-.178 1.115-.86.572-.268.323-.18.218-.41-.753.495-.285.043-.462-.006h-.072l-.395.316-.25.088-.506.454-.285.042-.284-.142-.35-.42-.32-.05.076-.32.073-.138.108-.044.145-.182.11-.228.075-.32.074-.184.62-1.14.18-.275.972-.86.144-.275.146-.274-.457-.328.003-.275.215-.136.503-.454.602.1.284-.043.68-.59.532.006.99.286.46-.133.894-.59 1.882-.395.392-.273-3.8.79-1.76-.892v-.23l.22-.596.145-.228 1.576-1.685.433-.685.362-.824-1.357 1.227-.18.32-.11.275-.25.227-.284.18-.25.044-.177.135-.074.275-.076.413-.075.32-.29.595-.323.364-.323.18-.425-.006-.178.09-.253.365-.463.225-.18.227-.29.502-.65.82-.36.27-.462.085-.25.133-.33.777-.217.18-.32.088-.252.18-.254.318-.946 1.365-1.56 1.815-1.59 1.26-.143.09-.21-.19-.24-.555-.247-.097-.39-.1-.424-.19-.386-.285-.278-.373.333-.637.115-.366.043-.413-.142-.004-.913 1.178-1.38-.304-3.35-2.925-.134-.37.05-.644.22-.316.357-.13 1.136-.02.778.154.737.43.626.61.184-.27-.523-.472-.243-.28.01-.415 2.444-1.605.568-.08 1.44.807.564.102 1.243-.07.675-.173.466-.313-2.13.286-.495-.1-1.155-.804-.917-.248-2.543 1.33-.857.257-.248-.007-.28-.144-.524-.38-.282-.052-1.597.055-1.69-.5-.567.032-.472.45-.396.265-.564-.152-.524-.29-.31-.33-.1-.232-.1-.233-.066-.232-.028-.275.08-.412.108.002.14.05.18-.087.515-.77.29-.268 3.546-.28.287-.133.792-.58.356-.13.386.1.208.235.206.28.347.284 1.192.578.21.142-.027-.46-.097-.417-.24-.328-.387-.1.006-.275.282-.04.283.005.245.143.244.19.362-.407.498-.174.597.196.458.147-1.714-.908-.413-.562-.025-.46.325-.315 2.37-.275.962-.396.755-.768-.315-.144-.424.038-.356.178-.402.728-.458-.055-.877-.248.184-.41.935-.994-1.018-.203-2.16.415-1.052-.298.78-.213.812-.03.007-.322-.174-.095-.448-.516.397-.45.264-.87.23-.96.264-.823.398-.544.677-.446.672-.217.595.104.206.28.44.836.277.327.31.282.35.19.737.105 1.235-.255 1.1-.534.005-.32-.39.13-.355.225-.353.087-.28-.143-.532.312-.49-.147-.45-.33-.49-.192-.312-.236.08-.55.046-.55-.485-.378-.213.04-.46.176-.246.042-.244-.097-.378-.42-.245-.05-.24-.328.366-.682.97-1.223.29-.454.142-.182.28.007.666.058.248-.18.39-.223.556.24.97.752.45.238 2.21.08.142-.135.18-.32.35.006.385.098.173.095.14.002.005-.322-.452-.282-1.898.293-.53.22-.315.042-.138-.186-.583-.745-.242-.234-1.88-.63-.273-.42.153-.732.825-1.134.29-.593-.407-.697.574-.817.953-.583.77-.17.725.563.685.884.76.61.912-.263.004-.275-.94-.244-.205-.232-.34-.603-.205-.28-.243-.14-.205-.28.324-.592.532-.59.562-.22.004-.323-.554-.238-.388.316-.288.547-.248.226-.42.132-.778.586-.456.13-.487-.054-.83-.43-.453-.1-.982.305-.453-.055-.198-.602.106-.135.547-1.278.178-.18.494-.313.213-.226.213-.18.136.187.134.278.102.14.525-.083 2.562-1.153 1.023-.95.192-1.193-.38-.097-.602.634-1.068 1.454-.6.45-.52-.1-.517-.285-.66-.104.563-.36.18-.27-.03-.37-.2-.51-.028-.275-.105-.002-.354.362-1.533 1.995-.597.264-1.188.16-.518-.24-.35-1.707.07.047.105-.044.108-.136.037-.137-.032-.138-.202-.327-.067-.14.01-.55.077-.275.248-.27-.204-.143-.69-.244-.172-.095-.025-.46-.194-.74-.024-.506.04-.322.328-.682.11-.274.012-.597.01-.552.112-.32.346.008-.03-.184-.06-.46-.065-.232.418-.13.38.1.375.238 1.187 1.31.376.283.213-.18.37.604.205.187.65.47.24.098-.1-.232-.064-.23-.065-.232-.067-.184 1.634-.248.9.153.553.01.074-.274-.65-.608-1.034-.247-.973.122-.633.54-.745-.933.105-.137.215-.41-.76-.152-.367-.65-.26-.83-.403-.7-.343-.143-.344-.053-.274-.143-.128-.554.148-.502.46-.497-.132-.37.006-.322.873-.488.414.008.643.747.277-.04.247-.318.18-.456-.24-.05-.168-.233-.134-.28-.236-.28-.24-.14-1.85-.497-.06-.46.125-1.1-.026-.46.075-.367-.19-.83-.023-.552.113-.458.18-.364.212-.363.314-.224.555-.22.585-.035.58.24.543.333-.114.595.053.828.157.83.16.648.2.417.304.327.34.19.346.006-.17-.233-.1-.186-.162-.51.276-.04.24.096.408.283-.124-.83.08-.597.043-.55-.298-.65-.81-.84-.3-.465.248-.455-.17-.05-.07-.047-.065-.185.214-.408.526-.68.21-.318.302.418.238.142.824.014-.156 1.146.604.883.92.52.72.103-.133-.324.246-.364.293-1.19.213-.41.308.004.99.474.305.234.607.79.75.468 1.607.663-.337-.6-.237-.28-.65-.283-.982-1.024-1.398-.708-.17-.14-.03-.277-.067-.093v-.09l.108-.276.14-.044.168.187.136.047.144-.503.408.282.605.927.513.282.24-.043.415-.226.24-.043.274.096.51.42.205.048.273.187.815.837.922.47.642 1.155.443.28-.135-.23-.134-.37-.133-.415-.065-.276-.1-.276-2.21-2-.514-.143.004-.32.412.004.175-.32-.028-.46-.165-.553-.272-.232-.717-.146-.305-.325-.65-.146-.908-1.206-.58-.145.07-.092v-.046l.104-.09-.302-.51-.442-.144-.924.032.07-.182.07-.137.07-.136.106-.136.004-.276-.698-1.343.42-.592.848.288.497 1.11.483-.407.477.143.477.098.555-.68-.136-.003.107-.412.005-.367-.132-.37-.133-.277.307.005.004-.32-.44-.283.276-.226.65-.176.275-.134.003-.322-.716.038-.34-.097-.304-.233.174-.274-.167-.23-.203-.142-.168-.14-.203-.095.037-.182.075-.504.036-.183-.272-.003-.202-.14-1-1.622.01-.69.377-.132.507.237.91.655.372.143.375-.133.857-.587.478-.132.475.05.472.374.173-.274.275-.272.308-.227.205-.044.406.142.64.604.305.094 1.088-.082.34.095 1.52 1.206-.234-.46-.237-.232-.608-.51.307-.227.613-.087.307-.227-1.39-.288-.443-.004-.17.09-.242.366-.238.09-.237-.094-.44-.372-.236-.094-.336-.233-.636-1.016-.2-.186-.033-.184-.4-.647-.102-.093-.164-.507-.065-.322-.03-.322.44.005-.232-.416.005-.46.173-.41.21-.412.035-.23-.03-.275.002-.23.07-.09.167.047.304.14.135.048 1.244.93.915-.037-.605-.51-.2-.278.07-.32-.133-.323-.205.227-.205.09-.237-.003-.27-.003.002-.32h.237l.068.002.003-.276-.17-.047-.066-.093-.2-.186 1.19-.723.54.28.67.467-2.38-2.18.008-.736.038-.366.17-.182 1.155-.723.34-.366.242-.64h-.135l.176-.826.075-.872.176-.733.34-.457 2.823.664.502.37.367.508.03.23.1.643.13.553.068-.045-.037.504-.068.367-.07.275-.17.32.407-.32.17-.366.07-.46.002-.413.07-.642.205-.228.136-.32-.13-.69.4.323.67.922.37.185.605.508.27.046.235.186v.32l-.07.414-.102.23-.27.366-.78.777-.377 1.055-.41.778-.24.55.407-.044 1.325-1.463.204-.138.136-.642.373-.275.438-.228.407-.412.238-.734.137-.733.204-.596.54-.228.943.186.91.414 1.078.782v.32l-.034.14-.033.045.068.412-.507.597-.338.78-.27.87-.408.92.372-.184.372-.367.61-.873.033-.184-.035-.183v-.184l.068-.046.1-.046.88-1.01.067-.092.843-.597.607-.276.202-.047.44.183.64.595.508.138-.305-.32.202-.185.135-.23.1-.23.17-.184.235-.047.405.228.304.046.202-.092.167-.552.235-.138.843-.004.44.136h.2l.236-.14.2-.322.266-.69.202-.14.202-.046.033-.046.034.092.41.824.1.09.506-.093 1.856.31 1.85-.337.94-.467 1.505-1.16.804-.423 1.376-.245.673-.007.507.223-.2.232-.1.093.545.453.606-.054 1.24-.43 1.22.535.606-.01.256-.876-.372-.13-.375-.317-.376-.408-.243-.547.495-.696.33-.234.338.04.104.23.074.41.072.367.17.135.673-.01 1.406-.482.873-.106 1.157.852.707-.013 1.44-.347.746.307-.12.783-.42.88-.09.6-.228.37-.322.788-.197.326-.53.56-.163.28-.22.83.012.69.212.5.478.267.27-.005.234-.142.2-.096.208.226.077.504-.093.37-.2.232-.234.097-.175 1.472-.914 1.9-1.122 1.765-.798.98-.908.52-1.926.718-.774.517-1.14 1.21-.198.416-.16.69-.4.696-.906 1.068-4.8 4.096-1.634.84-.407.418-.2.46-.2.876-.134.277-.17.23-.58.326-.683.142-1.398 1.02-.24.14-.134.276-.066.322-.032.46-.344-.228-.103-.092.135-.276-.31-.136-.582-.09-.62-.364-.1.138.07.368.172.366.344.228.687.043.344.182.14.183.484.824-.442.784-.1.414.07.505-.343-.044-.654-.225h-.345l-.205.14-.376.553-.17.185-.62-.044-1.308-.64-.618-.182-1.786.463-.482-.32-.722-1.01-.412-.413-.446-.138 1.168 1.79.723.597.826.182.893-.462.48-.047.38.367.38.46.55.364h.344l-.106-.69 1.414.96.792.226 1.233-1.017.723.178.382.503-.272.554.724.225.823-.42.786-.742.61-.97.34-.37.276.043.14.414-.062.69-.17.37-3 4.02-.48.416-.58.923-.308.324-.448.094-.346-.18-.106-.414.272-.645-.59-.593-.79.28-1.72 1.615-.31.14-.552.046-1.45.418-.414-.09h-.38l-.172.505-.137.553-.345.276-.31.137-1.453 1.517-.21.276-.172.413-.208.644.14.046.276-.23.692-.322.312-.32.31-.414.243-.414.276-.414 1-.6.863-.92.966-.508.172-.046.276.137.278.368 1.14.27.484-.047.345-.276.275-.323.998-.6.31-.05.14.506-.477.876-.652.83-.62.51-.79 1.29.07.228.07.138.07.092.104.09-1.04.143-.448.23-.38.508.21.414-.14.047-.52-.182-1.212.003v.323l.625-.002.312.047.276.23-.413.965-.242.414-.24.322.798.228.416.045.45-.276.38-.46.138-.277.035-.092.52-.048.207-.14.414-.644.345-.323.345-.232.312-.093.415-.186-.28-.46-.835-.777.624.043 2.075-.333 2.147.215.69-.235 3.366-2.604 1.344-.337-.168.46-.102.186-.17.23.278.228.276-.05.31-.14.345-.05-.462-1.144.798.312.45.04.448-.097.31-.234.338-.464.2-.554-.11-.504.202-.417.206-.048.21.134.276.042.31-.096.58-.376.275-.095 2.76.05 1.676 1.12 2.952.96 1.003.026.89-.34 1.36-1.038.343-.145 3.555-.08.14.135.252.362.21.133.24-.098.203-.143.172-.05.248.27.75-.432 1.915.64.69-.063.394.587.17-.097.13-.325.305-.192.38.036 1.086.52.165-.325.175.088.178.18.243.038.273-.146.37-.378.204-.098.422.263.278.084.13-.233.063-.23.133-.235.202-.144.205-.098.45.078 1.02.567.453.124.584-.112 1.277-1.098.378-.058 2.45-.036.04.182.152.363.185.362.214.223.278.036.368-.333.242-.01.18.18.26.54 1.978 2.092.234.726.097.732.168.776.37.63.01.276-.085.51.26.45.65.71-.31.058-.126.327.014.367.216.176.28.082-.128.28-.503.48-.858 1.273-.388.796-.016.55-2.286 2.336-.526.94-1.332 3.954-.452 2.176-.11.878.095.78.43.307.083.366-.324.793-.034.046-1.927 3.375-.654 1.54-.27 1.526.083.365.147.227.116.318.016.505-.1.234-.405.564-.063.232-.12.74-.336.516-.758.622-.572.937-.536.982-.375.47-1.25.865-.342.378-.412.472-.198.465-.1.233-.196 1.846-.27.56-.306.422-.197.603.01.37.157.546.006.23-.133.326-.378.47-.23.696-.343.47-2.128 1.62-.368.928-.455.334-.878.48-.17.327-.437 1.115-.212.097-.18-.09-.183-.18-.287-.084-1.243.212-5.438.942-.107.002-.884.43-.772.658-2.385 2.525-.96.43-1.005-.306.292.362.396.178 1-.016.464-.146.955-.614.89-.246 4.56-2.48.243-.28.207-.372.492-.333.568-.15.398.267.4.406.823.027.298.546.053.78-.16.785-.273.604-.383.468.573-.013.11.09.084.596.075.137.254.132.215.04.146.09.186.27 2.115.134.507.264.806.715.18.088.88.76.007.23-1.223 1.274-.373.837-.566.29-1.107.258-1.447 1.092-.5.15-.576-.08-1.452-.75-1.113.024-.572.15-.21.326-.17.37-1.24.946-1.266 1.496-.355.237-.464.19-.244.465-.3 1.386-.277.65-.32.235-1.62.12-.465.237-.82.565-.895.428-.935.198-.903-.08-3.8-1.055-2.052.07-.905-.314-.834-.59h-.036l-.836-.82-.473-.64-.327-.227-.468.004.003.277 1.376.954.22.32.18.137.806 1.42.147.32.182.09.466-.097.145-.002.183.23.11.273.148.23.29.135 1.296-.336.542.038 4.02 1.052 1.082-.015.43-.19.217.042.258.318.403.362 4.23.25.183.135.445.59.11.136.328.086 1.442-.212 1.753-.818.532-.47.384-.653.385-.56.575-.058-.156-.503-.04-.184-.113-.18.39-.378.7-.89.464-.194 3.898.183.473.172.674.948.44.264-.2.696-.137.233.363.084.575-.107.367.22.068-.14.247-.237.14-.187.37.358.957.665.91.25 1.516 1.2 1.03.567 3.78.62.22.084.12.364.048.367.083.32.186.13.513.17.45.536zm-22.96-126.082l-.593.426-.13.185-.026.368.14.273.04.23-.263.28.25.683.11.548-.157.462-.462.33-1.064-1.125-.005-.275.294-.328-.248-.637-.69-1.043.27.18.27.04.267-.052.23-.188-.006-.322-1.473.03-.005-.276.828-.383.966-.203.973.072.506.218zm-7.85-3.018l1.166 1.77-.297.235.005.32.267-.003.17.134.308.41.005.275-.4.052-.5.193-.462.375-.225.6.636-.056 1.26-.666.606.08-.522.837-1.066.34-2.01.034-.14-.228-.417-1.05-.106-.365-.205-.225-.27-.18-.205-.226-.447-.82-.004-.276.063-.185.065-.186-.138-.227-.134-.044-.264.233-.1-.044-.204-.18-.233.048-.168-.043-.073-.413.323-.83.03-.138.495-.512.93-.38.266-.005.337.223.746.723.505.13zm1.754-10.357l.777.72.266-.005.263-.143.232-.004.235.18.342.498.2.133-.294.236-.132.048.408.452 1.244.71-.166.05-.065.046-.063.185.102.09.1.09.103.09-1.287.53-.168-.09-.187.693-.42.65-.492.423-.364.143.337.27.403.176.835.12.295-.28.322-.558.36-.282.85.763.297-.098.26-.28.296-.19.37.222.242.408.24.224.358-.33-.062.23-.023.46-.06.23.468.083.36-.238.327-.328.397-.147.5-.057.2.087.106.227-.123.462-.852.66-.326.33.28.544.307.315.37.128.398-.1-.32-.866-.14-.318.4-.01.72-.52.332-.1.304.176.14.318.047.504.014.596-.16.325-.428.24-.797.203-.296.19-.48.975-.328.284-.335-.04-1.652-.65-.272-.225-.208-.364-.836-1.68-.173-.273-.266.05-.29.42-.327.373-.402-.083-.23.188-.2-.042-.202-.087-.3-.04.344.59-.67-.033-.263.143-.093.46-.538-.22-1.3.253-.542-.542-.25-.913.052-.92.254-.783.323-.602-.005-.276-.17-.226-.104-.274-.106-.32-.072-.32-.23.188-.163.186-.03.23.138.273.005.276-.202-.136-.167-.043-.198.05-.165.14.203.18.07.275-.027.322.068.09.11.55-.16.37-.526.513.004.275-.738-.264-.65-1.09-.32-1.373.315-1.244.16-.323-.16-1.88.546-1.247.952-.703 1.025-.2 1.03.028zm11.6-.664l-.062.14.597-.016.265.04.205.224-.3-.084-.227.235-.024.368.242.408.267.04.295-.1.49-.29.005.184-.03.093-.068-.044-.064.094-.12.462.14.272.607.35-.387.425-.926.208-.425.287-.09-.962-.312-.45-.434-.082-.39.33.085.688-.462.15-.34-.313.412-.79.33-.146.33-.053.26-.19.09-.462-.14-.272-.683-.717-.235-.132.854-.342.3.038.007.275zm-8.912-1.084l.165-.004.89-.247.265-.006.336.176.004.23-.032.046-.066.002-.066.047-.354.512.08.687-.022.55-.625.29-.664-.034-.634-.17-.573-.404-.51-.633-.146-.777.388-.558.59-.332.53.036.036.09.036.138.103.18.135.136zm5.54-2.735l.005.276.264-.05.267.038.202.18.142.41-.124.37-.446.744-.095.185.016.688.046.55.172.317.366.038.006.275-.625.244-.364.053-.17-.134-.11-.55-.21-.407-.27-.223-.334-.085-.02-.87.27.222.232-.05.195-.143.263-.052-.003-.138-.116-.73.027-.277-.078-.55.057-.413.225-.235.364-.01.006.322zm7.91-2.315l.077.41-1.023.075-.39.24-.153.464-.225.234-.405.975-.126.232-.23.144-.057-.916-.362.055-.895 1.17.087-.46.063-.14-.007-.275-.423.287-.167-.042-.17-.225-.767 1.12-.418.47-.367-.083-.053.552-.125.278-.102-.09-.01-.458.083-.645.128-.186.23-.1.258-.235.192-.28.314-.65.193-.234.26-.144.2-.005.16-.14.085-.6-.136-.134-.342-.45.53-.013.843-.573.527-.06.008.32-.29.238-.324.284-.51.702.166.042.067.044.07.135.225-.235.69-.156.545-.657.33-.055.363-.01.294-.1.442-.746.287-.376.136.134zm-11.806-2.004l-.032.047h-.066l-.032.048-.258.327.004.183.107.365-.462.056-.133-.043.005.276 1.695.515.3.177.422 1.092.137.227.234.132.233.04.2.043.205.315.006.23-.43.01-.26.234-.48.698.025-.368.027-.276.093-.277.16-.233-1.08-1.032-.6-.31-.564-.08.007.322.102.136.207.454-.304-.315-.158.37-.163.14-.166-.042-.234-.133-.17-.18-.103-.228-.315-.865-.07-.228-.07-.182-.205-.363-.2-.135-.165.05-.134-.09-.106-.41.462-.01.664.17.36-.19.576-.883.325-.236.402.267zm28.192-9.157l-.02.367.296-.012.01.275-.35.244-.378.428-.29.15-.156-.638.137-.693.377-.427.485-.203.392-.016.04.182-.03.093-.065.002-.063.048-.294.058zm5.06-23.105l-.02.23.183-.237.13-.006.076.272-.076.462-.144.42-.165.65-.115.325-.13-.04.02-.276.076-.462-.02-.503-.037-.09-.02.275-.022.23-.3.563-.278.288-.072-.18.273-.425.077-.46.07-.6.177-.42-.077-.273-.137-.177.024-.185.383-.108.12-.19.098-.003.05.365zm-15.188-.925l-.305.514-.492-.213-.4-.352-.17-.27.024-.276.154-.234.316-.24.482-.06.227.037.11.363zm20.174-3.063l.052.41.082.364.163.04.248-.242.013.274-.035.598-.107.464-.146.328-.086.92-.22.103-.635-.428-.206-.266v-1.375l-.345-.488-.022-.458.416-.066.363.166.19-.1.046-.37.124-.097zm1.74-6.686l-.79.314-.427-.21.118-.233.087-.187.055-.186.08-.325.177-.33.252-.103.222-.058.185-.146.117-.235.734-.08.22-.104.06-.05.127-.05.042.18-.117.236-.27.38-.327.52zm2.887-11.33l.192-.008.123-.098.088-.142.09-.097.323.075.234.217.083.363-.104.463-.484.53-.582-.154-.588-.292-.605.03.017.32.135.132.07.134.04.135.07.133-.55-.11-.478-.663-.77-1.383-.016-.32 2.415-.12.195.08.046.273.016.32zm-9.903.795l-.02.276-.12.19-.188.053.2.954-.17.466-.273.332-.23.56.413-.018-.085.233-.094.05-.22.055.13.086.07.09.065.043.16.04-.35 1.435.188-.055.188-.1.184-.19.15-.237.14.27-.26.652-.053.232.077.27.012.276-.41.2-.414 1.486-.368.382.014.32.258.035.254-.058.25-.148.215-.193-.065-.73.524-.48 1.298-.288-.993-.735-.303-.353.177-.328.276-.242.196.083.064.73.18-.283.38-.75.085-.28.186-.145.393.21.275.446-.106.463.26.125.232.173.175.312.087.5-.088.188-.028.093.27.264-.246.24-.46-.254-.184.192-.177.33-.182.19-.186.146.07.135.252-.103.47-.25-.093.095-.182.192.014.32.685-.444.232.173.067.776.16-.008.077-.416.062-.05.1.088.152-.19.083-.28.052-.276.08-.37.177-.284.07.134.038.136.047.318.16-.695.263-.517.405-.25.383-.017-.255.7-1.385 1.853-.08.324.014.32.13.085.15-.237.205-.422.092-.095.277-.242.256-.013.15.452.01.228-.042.46-.076.417-.184.192-1.593.257-.314.152.437.392 1.07.225.564.386-.943 1.1-.218.146-.093.095.01.23.043.226.073.18.098.043.12-.235.13.04.164.084.29.032.102.087-.764.862-.377.2-.358-.074-.218-.54-.208-.312-.195-.037-.116.28.012.228.14.27.167.13.01.228-.225.01-.156.1-.312.242.01.23.836-.04-.114.327-.116.28-.134.603.327-.61.216-.195.253-.103-.546 1.446-.07.6.302-.473.442-.203.234.172-.256.746.736.562.013.274-.58.027.016.322.16-.008.014.275-.365-.214-.185.192-.213.285-.353.062.303.26-.08.372-.12.19-.126.096-.227-.035.013.274.163.04.43.21-.333.518.22.54.403.35.196.036-.07.6-.308.335-.386.064-.33-.123.093.594.54 1.168-.174.466-.29.013-.668-.427.103.867.007.87-.127.787-.298.61-.073-.18-.07-.09.184.45.085.456-.01.505-.17.558.242.31.08.364-.082.325-.187.192-.107-.225-.355-.627-.142.465-.2-.083-.043-.273.24-.423-.01-.274-.338-.26-.643.165-.366-.166-.28-.493.365-.565-.16-.636.147-.374.22-.193.222-.1.26.033-.01-.23-.408-.44-.2-.128-.013-.275.582-.026-.16-.726.195-.696.293-.7.202-2.028.288-.792.187-.88-.178-1.093-.106-.177-.127.05-.13-.04-.083-.408-.006-.137.054-.232.283-.884-.193.01-.312.242-.058.14-.225.01-.105-.18.05-.322.273-1.112.143-.42.177-.374.184-.192-.015-.32-.388-.03-.3.473-.49 1.35-.33-.947-.354-.718-.435-.394-.683-.154.014.32.392.167.338.353.31.49.286.63-.103.6-.438-.44-.2-.128-.256.01.03.734-.105.553-.188.146-.122-.592-.245.285-.08.416-.045.46-.147.327-.194.008-.83-.56-.068-.09-.44-.486-.062.047-.145-.407-.01-.183.12-.28.215-.238.603-.21.284-.148-.267-.218-.55-.85-.084.326-.07.6-.243.375-.253.102-.114-.408-.143-.362-.286.104-.625.437-.45.063-.194-.038-.133-.132-.04-.228-.04-.182-.165-.085-.42-.03-.2-.22-.237-1.09-.256-.817.086-.23.275-.378.28-.286.375-.244.41-.154.356.032.3.263.238.31.268.265.353-.014-.186-.588.75.29-.012-.32-.16.006-.01-.274.955-.177.304.355.085 1.234.094-.05.216-.193.093-.096-.107-.224-.148-.452-.072-.18.45-.02-.07-.134-.116-.453.47-.25.554.16.475.576.265.906.267-.517.272-.38-.604-.57.37-1.115.167.176.13.04.29.034-.277-.492.378-.155 1.027.002-.496-.345-.614-.11-.526-.298-.166-.865-.365.474-.218.146-.226-.036-.238-.31-.082-.41.048-.368.21-.33-.01-.274-.64.027-.292-.08-.202-.22.01-.55-.062-.685-.215-1.32-.255.79-.172.465-.216.193-.325-.124-.08-.318.112-.417.244-.286-.415.017-.346.107-.32.013-.333-.353-.172.466-.28.194-.736-.016-.073-.225.107-.51.17-.51.15-.235.515.07.124-.095.084-.28.02-.32-.044-.273.055-.232.175-.42.242-.33.253-.056.305.446.29.858.7.658.81.287.65-.486-.23-.173-.323-.078-.51.02-.166-.13-.204-.31-.237-.312-.352-.03.178-.33.225-.742.12-.142.222-.055.616-.53-.233-.22-.1-.087.18-.283.054-.23-.038-.137-.07-.18.496-.296.544.068.587.295.497.437.055-.186.09-.14-.368-.397.014-.414.437-.936.227.815.046.318-.08.325zm4.088-5.868l.257.72.2-.467.434-.204.892.05.026.547-.022.185-.123.097.015.32.097.04.102.134.1.086-.198.513.02.41.418.76-.104.462-.137.465-.707-.79-.362-.258-.415-.027.266.262.312.535.5 1.122-.243.24-.282.106-.29-.078-.297-.215.117.453.267.262.325.122.32.03-.025.14-.123.096.37.395.058.547-.235.424-.41.11.354.717.113.363.054.455-.036.552-.155.1-.49-.206-.508.07-.262-.126-.11-.315-.094.05-.09.142-.018.276.236.264.013.275-.71-.15-.502-.482-.33-.9-.435-3.922.15-.923.66-.168.012.274-.04.505.244.447.332.305.248-.15-.072-.18-.337-1.083-.123-.59.05-.277.163-.603-.038-.136-.134-.13-.02-.412.013-.413.08-.325.168-.466.234-.423zm6.087-2.638l-.367.247-.268.335.183.494.017.32-.412.02.13.04.162.084.134.13.017.32-.81.912-.147.237.184.493.308.443.18.403-.3.38-.187.056-.163-.083-.166-.13-.197-.127-.384-.026-.315.06-.597.123-.322-.076-.36-.212.076-.416.012-.414-.05-.364-.108-.27.393.256.08-.324-.06-.593-.184-.494.338-.2.163-.557-.03-.64-.27-.31-.016-.32.31-.15.36-.43.258-.518-.02-.41.168-.422.22-.01.238.308.09.545-.04.46-.206.285-.21.24-.172.375.07.134.247-.15.273-.243.146-.236.364-1.576.204-.33.138.22.13.04.285.03.258.08.232.216.175.312.09.5-.156.053-.368.248.39.21.162.038zm-80.51 315.656h.27l.464-.043.154.184.384.37.346.414.23.553.076.552.116.23.23.23.116.323-.117.46-.193.136-.27-.138-.5-.46-.5-.968-.27-.277-.192-.045-.734.043-.153-.093-.42-.737v-.322l.658-.595zm39.195 2.28l.468.22.93.166.234.088 1.648 1.254.832.948.12.136.12.273.047.368.004.184-.074.14-.916.616-.076.093-.036.14.002.092v.046l.16.227 1.23 1.307.16.18.69 1.503.168.548.17.732.043.137-.034.184.083.228.12.228.64.72.202.41.12.135.195.042.936.115 1.026.62h.038l.048.366.164.364.042.137.044.184-.024.644.005.184-.114.14-.153.096-.31.1-.27.098-.497.425-.193.052-.235-.04-.158-.09-1.393-1.347-.12-.09-.312-.084-.312.008-.966.342-.233.005-.155.003-.12-.09-.117-.09-.44-.495-.117-.09-.31-.04-.43.01-.27.142-1.263 1.036-.116.05-.116.002-.116.048-.306.282-.153.14-.114.232-.186.463-.19.188-.155.14-.27.097-.076.14-.037.184.085.366.042.183.042.184.042.136-.036.184-.113.232-.345.328-.076.093-.15.28-.038.137-.035.23.044.23.29.96.28.27.432.177.783.077.117.044.08.09.162.32.12.135.157.088.705.08.59.218.16.09.038-.002.284.5.12.135.12.09.434.222.04.09-.035.14-.15.37-.153.14-.155.096-.468.056-.156.05-.115.047-.077.095-.075.14-.11.415-.188.37-.036.14.004.275.01.552-.07.37-.074.23-.116.094-.464.332-.116.094-.037.138-.074.232-.028.598-.035.184-.076.14-.153.232-.19.188-.7.472-.076.093-.076.14-.037.138-.033.277.043.184.122.274.204.364.04.137.043.137.002.138-.037.14-.114.23.004.138.12.09.274-.005.157-.05.156-.048.117-.094.076-.138.113-.278.077-.093.116-.094.698-.427.462-.47.116-.093.157-.003.12.043.642.723.082.182.042.137-.037.183-.114.186-.193.233-.616.61-.224.602-.194.095-1.964.175-.234.097-.66.517-1.172.48-.117.093-.154.186-.305.51-.036.184v.138l.004.184.045.32.04.184.083.182.082.183.08.09.082.137.876.536.682.63.918.628.685.722.2.18 2.886.173.048.414-.037.138-.153.233-.546.333-.154.233-.113.28-.074.276v.046l.05.458.122.18.082.138.675.17.12.09.042.09.003.138-.115.186-.156.095-.87.064-.275.098-.078.048-.078.093-.193.278-.077.094-.078.093-.35.237-.118.094-.078.093-.036.138-.15.508-.114.232-1 1.58-.036.185.043.183.203.272.16.043.158-.002.118-.048.12.043.042.137-.035.23-.118.14-.116.14-.67.243-.235.142-.037.14.003.136.202.227.402.27v.045l-.037.092-.117.094-.077.14-.078.14-.112.368-.147.692.043.137v.092l.202.088.24.18.487.496.044.184.082.182.006.367-.036.185.046.32.084.228.743 1.41.613.815.77.675.042.09.08.09.004.14.046.32.124.18.163.18.528.496.24.088.28-.006.16-.003.276-.145.746-.613.277-.098.277-.052 2.564 2.24.288.36.083.136.327.36.084.136.125.227.084.136.122.09.16.04.44-.01.2-.004.2.087.492.446.487.31.236-.144.04-.047-.145.6-.537.933-.072.323-.073.28.048.32.088.272.17.364.004.23-.072.323-.077.138-.153.28-.035.184.045.23.254.544.218.73.086.227.045.182.003.138-.116.186-.397.147-.078.094.044.137.124.227.168.27.01.415.22.82-.74.936-.47.425-1.24.306-.948.71-.475.333-1.077.436-2.21.185-.363-.13-.208-.317-.126-.272-.123-.135-.278.19-.626.885-.156.278-1.51.993-.04.048-.32.098-.436.33-.67.746-.08.14-.15.507-.12.185-.158.14-.402.053-.12.094-.038.047.378.865-.186.92-.435.514-.527-.13-.363-.04-1.844.81-6.505-.55-.487-.27-.49-.637-.78-1.047-1.544-1.27-.362.005-.48.236-.568-.316-.528-.5-.286-.41-.002-.184.04-.092h.08l.04-.047-.17-.825-.08-.23-.207-.548-.288-.686-.326-.548-.204-.228-.445-.317-.242-.32-.408-.777-.243-.227-.362-.134-.802.144-1.966.242-.36.14-.36.232-.24.277.003.414.203.412.243.366.204.366-1.086.006v.092l-.118.23-.16.047-.042-.23-.082-.137-.16-.137-.243-.09-.162-.046-.08.092-.24.414-.12.093-.16-.046-.282-.228-.644-.136-.24-.045-.282.138-.28.277-.36.414-.24.183-.283-.09-.282-.183h-.242l-.08.414h-.32l-1.57-.638-.442-.046-.08-.137-.04-.138-.08-.32.52-.37-.08-.458-.242-.505V519l.88-.323.12-.138.24-.507.2-.23.162.32h-.16v.277l.16.137.202.137.802-.23 1.324-.098 1.203-.326.558-.966v-.276l-.002-.23v-.045l-.12-.092-.32.37-.2.185-.32.047-1.004-.134-1.405-.776-.36.23-2.044.326-.562-.23-.72-.55-.602-.733-.36-.78 1.08.183.48-.093.24-.367-.48.046-.48-.137-.4-.275-.24-.505.08-.092.16-.322.118-.367v-.368l-.2-.32-.16.137-.2.46-.12.137-.24.367-.16.09-.24-.09-.24-.184-.2-.322-.52.092-.08.275.2.415.4.413-.88.46-1.002.043-1.96-.278-.762.09-.92.272h-.162l-.843.64-.044 1.055-.24.044-.08.046-.002.184-.04.32-.486 1.146-.24-.047-.36-.323-.16.137-.445.457-2.328-.06-.4.09-.404.273-.243.32-.204.365-.242.32-.483.18-.204.412-.24.09-.12-.047-.28-.186-1.682-.564-.638-.465.245-.456-.353-.83-1.28-.333-.516-.555.163-.32 2 .34-.038-.183-.078-.277-.038-.138.36-.042.68.235.36.095.36-.09.887-.497 1.244-.266.644-.41.282-.09.32.187v-.23l-.715-.786-.154-1.01.446-.825.96-.27.002-.32-.28.226-.763.317-1.44.128-.323.182.4.003.32.186.116.37-.164.64.397.325-.124.458-.363.41-2.047.49-.56-.005-3.6-.54-.443.18.233.69-.285.364-.36-.004.045-.458.003-.276-1.27-1.024-.52-.144.56.006.363-.087.32-.18.287-.456.364-.364.883-.175.442-.178.444-.408.083-.413-.15-1.056.008-.643-.113-.643-.234-.508-.316-.326-.202.274-.435-.418-1.036-.15-.435-.326-.404.317-1.44.258-.48-.006.162-.135.2-.136.005-.32-.117-.185-.04-.093.083-.136.24-.18.004-.23-.193-.554.243-.227.918-.08.482-.178.807-.817.32-.18.797-.083 1.08-.402.803-.68.09-1.103.36.004v-.276l-.314-.278.042-.276.28-.18.44-.088.714.052.278.05 1.385.79.478.005.758-.316-.194-.554.477.05.99.42.558.095.24-.18-.037-.414-.116-.46.042-.368.2-.182.834-.133.518-.364.36-.46.64-1.052.48-.503.357.002.83.692-.035-1.24.954-.503 3.17.146.32-.138.158-.23.12-.275.158-.23.754-.274.515-.32.515-.46.753-.92.356-.275.435-.09.514-.047.474-.138 3.04-2.67 1.496-2.12.744-1.472.31-.966.23-1.793.192-.965.31-.83.274-.6-.12-.41-.08-.506.036-.506.155-.322.198-.047.55.27.277.046.43-.14 1.33-.973v-.322l-.708.005-1.293.467-.707.142-.394-.32-1.146-1.603-.316-.64.075-1.058.427-1.06.545-.782.43-.324.077-.138.115-.552.076-.185.078-.045.274-.14 1.052-.786.31-.462-.664.095-.43.37-.428.094-1.927-2.38-.51-1.01-.12-.413.078-.322.43-.14.31-.322-.08-.643-.198-.643-.118-.275-.003-.6.076-.275.155-.184 1.477-1.11-.195-.044-.08-.09-.077-.14-.27.324-.273.185-.273-.045-.197-.46-.66.464-.662.094-1.44-.272-1.83.6-.428.23-.507.324h-1.714l-.545.276-.468.413-.897 1.056.077.092.078.183-.39.23-.235.506-.04.55.312.415-.313.37-.196.136-.157.092-.312-.047-.35-.413-.547-.185-.507-.415-.272-.092-.312.09-.157.138-.157.183-.196.138-.547.182-1.405-.19-.392.274-.354.412-.353.136-.39-.23.276-.414.04-.183-.116-.23.158-.23.354-.686 3.523-4.077.39-.23.467-.044.467-.137.506-.274 2.025-1.56.506-.874 1.63-1.103.195-.506.115-.782.038-1.747.077-.505.155-.138.194.092.076.275.078.276.232-.367.155-.46.04-.184 1.004-1.244.27-.184.465-.185.308-.507.538-1.058.54-.692.694-.462.695-.232.81-.05.195.046.194.137.193.044.347-.232.54-.278.578-.14.846-.742 2.733-1.168.85-.006-.276-.78-.738-.73-.197-.504.462.043.502.134.427.273.313.41.5-.28.54.18.506.455.43.64.388.226 2.855-.122 1-.24 4.712-2.41 1.04-.06.932.445.547.405.238.456.276.317 3.24 2.06.393.406.32.547.158.18.074-.184zm-27.93-1.355l.31.046.347-.047.54-.14.308-.048.154-.093.23-.415.154-.093.154.046.31.182.116.046.733-.004.347.045.31.274-.5.555-.88 1.66-.578.323-.618.14-.655.324-.58.462-.462.553-.116.138-.038.092v.507l-.037.32-.077.048-.117-.045-.888.645-.387.507-1.586.967-.272.092-.31-.092-.62-.275v.09l-.154.14-.194.09-.155-.045-.04-.276v-.37l.04-.367.078-.138.193-.183.27-.414.117-.368-.232-.184-.387.184-.542.827-.387.138-.04-.138-.81-.736-.078-.045-.195.09-.077-.045v-.092l.04-.367-.04-.09v-.46l-.115-.323-.502-.46-.807-1.657-.462-.553.002-.32.155-.415.04-.643.003-.92.118-1.425-.037-.598-.267-.644.463-.32 3.157-1.1h.346l1.692.275.5.045.925.55.27.23.116.506.04.504.077.23v.092l.31.23.346.228h.154v.506l-.037.276.116.09v.093l.425.458.117.505.04.368z"/>
</svg>
