<svg xmlns="http://www.w3.org/2000/svg" width="1280" height="720" viewBox="0 0 1280 720">
  <style>
    path { fill:#000; }
  </style>
  <path id="map" d="M560.9 589.8l-.4.18-.52-.14.06-.6.4-.3.25.12.32.37zm-1.63-1.47l-.26.32-.32-.14-.32-.44v-.37l.26.04.2.13.12.05.26.14zm210.7-34.5l6.36 1.65h1.04l.45.04.52.23v.14l-.07.3.07.15h.13l.32-.05.12.05.84.87v.27h-.2l-.12.08-.06.1-.13.13-1.56.3-.72.22-1.17.64-.18.18-.13.23v1.37l-.14.18-4.66.87-1.56-.28-5.44-2.47-.26-.23-1.42-.64-.46-.14-1.62.14-.65.18-.78.28 1.03-1.15 1.62-.92 3.7-1.1-.13.13-.07.3-.13.17 1.04-.1.97-.5 1.42-1.14 1.1-.46zm14.98-.64v.3l-3.44-.3v-.3l.92-.22 1.1-1.24.52.05.45.22.06.23-.13.23-.4.18v.28l.27.13.4.28zM628.9 537.4l-.26.2-.32-.3-.07-.54.13-.55.2-.1.2.33.06.18.06.28zm234.62-8.6l-1.04.26-4.92-.27-.84-.18-.72-.45-.58-.6-.4-.5.53-1.15.33-.27.5-.1 5.2 1.15.45.14.45.23.84.6.4.63zm-150.86-10.37l-.33-.82v-.42l-.26-.26-.2-.23-.06-.13.14-.1.65-.13.2-.18v-.14l-.08-.18-.13-.23-.33-.72-.4-.55-.06-.23.08-.18.26-.28.13-.14.13-.32v-.23l-.26-.36-.13-.3-.06-.3.13-.28.13-.33.9-.92.27-.6-.07.05-.38.14-.78-.32-.78-.46-.32-.1H710l-.26-.05-.2-.1-.12-.13-.2-.23-.13-.15-.52-.36-.13-.15-.46-.37-4.1-2.3-.44.06-.46.1-1.23.6-.45.12h-.71l-.38-.1-.84-.5-.26-.18-.2-.18-.06-.32v-.14l-.13-.1-.07-.08-1.23-.7-.97-.8-1.16-1.43-.13-.23-.07-.32.07-.2v-.35l-.13-.2-.07-.17-.77-.5-.4-.2-.32-.08v-.1l-.06-.13.26-.7.2-.35.12-.14.13-.14.2-.1.06-.08v-.05l-.66-.28-.32-.23v-.15l.06-.14.4-.12 1.1-.23.2-.14.18-.13.07-.23-.07-.13-.2-.04-.2.05h-.25l-.25-.04-.32-.27-.06-.2.06-.18 1.68-1.56.2-.23.27-.5.06-.14.13-.1.2-.1.58-.22.13-.1.13-.08.32-.28.13-.1.13-.04.46-.1 1.42-.03.26-.1.2-.18v-.14l-.07-.1-.2-.08-1.1-.18-.13-.14-.2-.18-.06-.46v-.06l.13-.27.2-.28.25-.24.9-.32.26-.23.08-.12-.07-.42-4.7-.23-.34-.18-1.1-.73-1.5-.64-1.1-.65-1.42-.55-.13-.13-.12-.1-.12-.18-.13-.18-.07-.2-.06-.32v-.32l.06-.18.52-.5.26-.2.2-.08 1.94-.46 1.1-.5.4-.1 3.22-.13.33-.08.4-.6 1.02-.6.33-.22.2-.2.06-.17-.07-.14-.13-.2-1.03-.72-.2-.05h-.25l-.2.1-.77.45-1.17.4-.18.1-.13.1-.2.27-.13.14-.2.08-.26.05-.25.04H694l-.2-.1v-.13l.2-.23.07-.12v-.14l-.07-.14-.06-.14-.33-.36-.18-.28-.07-.18.07-.27.06-.14.13-.14.14-.1 1.17-.46.33-.18.26-.23.12-.14.07-.2.05-.6.13-.22.06-.14.2-.1.78-.3.2-.1.12-.23.13-.35V473.82l.06-.14.33-.36.2-.42.12-.13.13-.1.2-.04.26-.05.78-.04.26-.1.26-.13.26-.36.06-.14-.06-.1-.7-.22-.2-.1-.2-.13-.46-.5h-.06l-.26-.1-.97-.22-1.17-.1-.26-.08-.2-.14-.25-.3-.14-.1-.2-.05-1.3-.1-.7-.17-.45-.28-.45-.96-.06-.23.05-.22.07-.14.26-.27.13-.1.6-.3.18-.24.07-.2-.07-.12-.06-.18-.07-.18-.13-.37.07-.18.12-.15.45-.1.26-.13.32-.18.33-.46.2-.23.25-.14.52-.26.2-.05h.2l.18-.05 2.14-1 .45-.15h.72l.5.05.2.1.72.5.2.1.2.08h.65l1.62-.32h.52l.5.1.2.1 2.28 1.36.25.1.4.04.32-.04.83-.42.45-.1.52-.08.26-.1.2-.13v-.18l.06-.64-.07-.18-.06-.13-.27-.38-.06-.37H710l-1.68-.64-1.56-.13-.32-.04-.2-.14-.32-.42-1.04-.74-.2-.22-.12-.23.06-.2-.06-.13-.26-.74-.26-.55-1.1-1.5-.26-.2-2-1.32-.27-.23V454.38l.08-.13.13-.1 1.56-.58.13-.14v-.18l-.07-.37-.2-.28-.2-.13-1.35-.97-2.72-1.28-.4-.1-1.55-.17-.76-.23v-.7l-.46-.5-.64-.64-.98-1.32-1.55-1.2-.57-.6v-.68l.45-.4.7-.24 1.83-.18.85-.2 1.5-.72.96.05.98.72 2.53 3.85.72.64 1.04.56 1.23.32 1.28-.05v-.1l.07-.17.13-.18.32-.1h.4l.64.2.32.03h.65l.6-.12 1.16-.42-.26-.5.13-.4.32-.3.4-.22.32.1.38-.05.4-.15.32-.23-.6-.04-2.06.32-.5.18-.27.6-.7.23-.46-.04-1.43-.1-1.75-.36-1.63-.7-1.36-.86-.96-.96-4.86-6.32-.26-.6.13-.55.46-.68 2.8-2.7 2.2-1.74.38-.14.33-.46 1.7-.68.5-.46h-3.55l-1.56-.4-1.17-1.02-.26-1.42.45-3.16-.45-1.15.65-.74.97-.32 3.8-.87.72-.05.52.23.32.1.13-.2.12-.27.4-.23.32-.13.32-.1-.45-.45 1.43-.87.2-.7-.72.33-.7.14-1.3.1-.2-.1-.7-.92-.07-.32.33-.23.4-.23.37-.18.85-.93.5-.4 1.37-.33.52-.4.78-1.1-.7-.66-.98-1.14-.6-.7-.18-.4.9-.23.97-.5.65-.73-.07-.82h-.26l-.2.64-.6.5-1.22.54-1.5.5-.76.37-.33.47-.33.6-.84.32-1.88.03-.52-.27-.58-.6-.26-.64.38-.46-.33-.45-.4-.4-.44-.2-.57.15.2.6-.14.6-.2.54-.13.45-.2.32-1.3.96-.64.87-.45.4-1.17.38-.05.46.13.6-.07.45-1.48-1.25-.4-.18-.64-.04-.58-.1-.45-.18-.46-.27.12-.65.26-.73-.06-.6-.58-.32v-.27l1.36-.27.32-1.23-.06-1.42.06-.83-.65.23-.32.4-.46 1.07.38.82-.64.2-.98-.06-.64.1-.85.23-.9-.55-1.56-1.56-1.22-.9-.52-.6-.26-.65.13-.32.2-.37.06-.36-.33-.6-.07-.4-.12-.1-.98-.28-1.5-1.74-.96-.55-3.95-3.2-.66-.24-.2-.12-.44-.6-.46-.28.33-.32.45-.32.2-.1.84-1.45 1.16-3.25 1.36-1.92.58-1 .33-.38.3-.18.92-.23.45-.18.6-.42.63-.68.33-.78-.33-.74 1.36-2.42.78-1.15.97-.7.85-.12.52.23.4.32.7.13h.46l1.75-.55-.6-.23-2.06-.64 1.1-.67.6-.28 2.64-.46.52.08.32.14.26.18.33.14 1.54.32.84.05 3.5-.6.7-.3h-2.9v-.28l.84-.1.65-.22.65-.2.77.2v-.28l-1.04-.27h-.13l.13-.74.58-.67.06-.2.07-1.1.13-.17.26-.1.2.05 1.6.52h.34l.64-.05.2-.14.2-.1.7-.9.2-.14 1.36-.38.32-.13.33-.24.13-.14.9-.83 1.17-.97.58-.27.78-.14 1.82-.5 1.17-.46.9-.5.5-.47 1-.92.7-.32.58-.14.2-.14.2-.18.05-.37.07-.13v-.1l-.07-.1-.12-.13-.12-.18v-.33l.13-.14.2-.13.52-.28 2.26-1.6 3.76-1.93.46-.15 1.03-.1.58.06.2.05.46.2.13.13.25.04.4-.04.77-.28.4-.23.18-.23.2-.36.12-.23.26-.32.33-.14 1.24-.33.4-.28.57-.28 1.18-.14.5-.14.86-.32.5-.32.47-.32.2-.23.07-.18v-.14l-.07-.18-.13-.1-.13-.13-.97-.78-.06-.14-.06-.14v-.18l.07-.04-.06-.14v-.14l-.45-.5-.6-.46-.64-.74-.72-1.05-.13-.3-.05-.15v-.13l-.13-.14-.52-.28-.13-.13-.13-.14v-.14l-.06-.2-.2-.04-.64-.23-.13-.14-.12-.1-.07-.18v-.18l.08-.2.13-.08.27-.1.5-.08 1.63-.05.6-.04.44-.15.26-.18 2.33-1.97.2-.28.2-.32.12-.18.2-.14.45-.14.4-.27.24-.1.65-.18.2-.1 1.02-.64.2-.23.13-.18.13-.65.13-.32.2-.13.26-.1 1.88-.4.58.6 5.5 4.02.6.96.44.55.9.32.2.32.2.28.26.18.4-.1.25-.17.2-.22.12-.1.44.05.52.14.52.37.4.6h-.85v.27l.5.2 1.44-.28.9.1 2.92 1.13v.32l-.27.28.07.27.32.32.4.28-.53.27v.27l.3.14.86.46v.28l-.4.37.2.2.46.13.26.18.2.5.18 2.8-.13.42-.2.7v.22l-.05.36.25.92 1.04 1.1.13.73-.06.2-.07.17-.13.18-.13.2-.18.3.06.28.2.23.06.3.26.5.52.45.97.64-.4.54.26.23.4.23.25.4-.12.42-.26.37-.2.36.2.46.7.64.2.27.14.92.38.87.13.27.2.1.52.12.12.05.06.14.13.33.72 1.1.4.36.2.36.18.55.26.47.52.18.13.14 1.17.72.33.4.06.3-.13.17v.27l.07.9.06.38.33.14-.14.4 2.52 5.18.84 1.33 1.5 1.15.64.28 2.2.55v.32h-.84v.18l.07.14.25.27.06.3.2.34.26.27.33.24-.34.32-.45.23-.96.26.13.28.2.18.25.1h.46l.13-.05v-.14l.07-.14.2.04.12.1.2.22.05.18-.06.1.5-.05.27-.24.32-1.2.77.6.64.32.86.2 1.75.13 2.08.83 8.6 1.56 9.4 3.47 1.17.7.52.58.07.37-.07.32.13.4.4.38 1.4.6.6.36.64.64.72 1 .52 1.07v.86l.12.27.26.28.33.2.38.08-.13.46-.13.14.32.23.84.7.33.22 1.7.28.38.18.52.28.97.27.32.46.25 1.1.13.17 1.1.7 5.12 1.18 1.5.83-3.7 1.2-1.3.86-1.03 1.7.9 1.14 1.23 2.75.72 1.24 4.47 4.12 7.44 6.63.7 1.38-.5 1.38-.27.14-.9.46.9-1.28.2-.74-.65-.32-.9-.14-1.82-.82-.9-.18-.8.1-1.6.63-.9.14-1.05-.1-.97-.13-.84-.28-.72-.36-4-3.12-1.44-.64-1.5-.14-.38-.04-5.3 1.1h-3.3l-1.44.18-.26-.1-1.03-.6-.13-.08-2.46-.18-.9.18-2.86 1.15.4.1.38.1.32.17.33.18.64-.64 1.16-.3 1.3-.05.97.13 1.68.74.46.32.6.23.7-.14 1.16-.55 7.45-.82 1.17.27.84.82 2.98 2.8 1.88.6 1.3.9.7.33 1.5.14.58.14 1.94 1.46 4.02 1.97.84.22.78.1.7.22.73.46.12.32.07.42.13.36.26.2.33.08 1.23.5-.32.28.7.32.72.6.46.68.2.55 3.36 5.7.65 1.55v1.8l-.9 2.2-.27.26-.45.15-.83.1-.65.27-3.76 2.3-.78.17-.58.27-3.3 2.97-.84.55-1.04.22-.65.28-.52.6.07.5 1.23.1 2.2-.33.52.14 1.17.6.58.1 1.03.45 2.14 2.02 1.03.73.7-.32.92-.1 1.68.1.65.27 1.17 1 .64.2v-.28l-.27-.64.85-.78 1.1-.78.58-.55.2-1 .5-1.15.73-1 .5-.74 1.5-.92 2-.54 2.27-.27 2.07.03-.32-.32.84-.17.9.13.98.23.84.13h3.63l1.63.28 1.94.56 1.94.27 1.96-.5-.46-.2-.5-.12-.53-.04-.52.05v-.27l12.9 1.88 5.1 1.6 10.37 4.83 1.23.87 1.04 1 .77 2.02.77 1.2.52 1.23-.26.92.26.64.07.83-.07 1.5 1.04 1.94-.2.4-.52.38-1.1 2.2.07.4-.07.38-1.87 3.02-1.36 1.47-.45.32-.4.46-.13 1.1.13 1.87-.26.83-.7 1.42-.2.78-.6 1.1-.05.6-.27.22-3.24.87-.72.5-.65-.32-.2.36-.12.5-.32.33-.32.14-.97.97-3 2-.45.47-.45.1-2.85-2.25-1.23-.3-2.07-1-1.17-.13v.27l1.5.87.83.38 1.96.32.45.14.2.18-.06.64-.13.2-.83-.1h-.52l-.84.18-.5.04-.53-.1-1.16-.45-.97.05-2 .4-1.1.1 1.16.32 6.92.28.84-.32-.13.82-3.3 2.07.52.27.65.18 1.55.14.4-.27.3-.42.2-.04.07.88-.45.64-2.4 1.42-2.2.87-1.36.38-2.9.27-.78-.1-.4-.17-.64-.87-1.36-1.14-.4-.55-.12.8-.65.45-1.55.46-1.3.8-.25.08-.07.23-.13.5-.13.52-.26.22-.45.05-.7.36-.4.13h-.5l-.98-.23-.4-.1-1.03.1-1.95.45-.9.37.64.17.77.05.7.23.46.7 1.17-.75 2.72-.36 1.3-.37 1.16-.6.78-.1.65.42.07.36-.13.4-.2.33-.06.04.07.32.2.32.32.55-.46.18-.12.38v1l-.13.2-.38.22-.6.28 1.1-.05.4.18.2.2-1.17 1.2-2.14 1.18-1.88.73-.5.24-1.9.37-3.3-.36-1.16.1-.07-.05h-.7l-.07.03-.07.05-.83.5-.58.1-.6.04-.52.1-.58.3-.65-.4h-.25l-.9.05-2.93.5-.2.28-.12.4-.26.5-.6.43-.58.22-.64.14-.6.23 2.67-.32.4-.14.18-.26.13-.32.2-.1 2.72-.5 6.67.64.65.28.5.6.08.36-.45.23-.85.1-1.5-.24-.63.04-1.36.78-1.5.23-.78.32.32.23.26.27.33.28.38.1h3.64l1.7.3-.34-.5-.2-.6.2-.4.9.04.07.5.46.77.58.7.46.3 8.94.65 5.18-1 13.54-.83 1.04.4-.4 1.38-.18.27-.2.23-.2.2-.25.12h-1.56l-.2.2.14.86.33.73.65 1.1.4 1.64-.33 1.6-.9 1.33-1.1.87-2.8.6-1.16.55-.47.03-.9-.04-.52.08-.45.27-.32.33-.32.18-.84.23-2.72.03-.84.14-.84.37-1.62.96-2.14 1.97-.45.5.13 1.06.45 1.65-1.5.36-3.1-.68-2.85-.6-1.68.37-4.08 2.52-1.7.5-9.05 1.24-1.56.4h-.25l-.45.4-.4.43-.06.18-1.5.6-1.54 1.43h-1.55l-.78-.1-1.94-.45-.46-.05h-1.5l-.38-.14-.72-.46-.78-.14-1.8-.1-.72-.18-7.97-1.83-1.35-.1-.13.04-1.04.37-1.5-.4-5.36 1.24h-7.2l-6.86 1.42-.32-.05-.4-.22-.32-.1-.38.1-.26.37.32.78-.2.4-.84.33-.9-.23-3.9-1.56-.25-.23.2-.4.6-.33 1.22-.26v-.28l-.45-.18-.78-.55-.53-.14-.2.13-.5.18-.34-.04.46-.55-.47-.17-.38-.14-1.36-.14h-1.3l-.8.13-.5.73-.4 1-.58.78-1.1.1-.84-.6.4-.72.77-.74.25-.55-.77-.28-2.6.14-.64.13 1.48.77.2.23.12.83-.13.46-.58.3h-.53l-.78-.22-.72-.28-.26-.23-.26-.4-1.36-.47-1.03-.55-1.36-.27-.5-.2-.8-.54-.83-.68-4.6-1.65-.7-.22v.23l.38.14.77.33.52.04 1.04.8 3.3 2.33.33.55-.12.5-.9.23-2.73.15-.58.14.25.12.33.2v.26l-1.94.23-1.03.24-.52.23-.2.04-1.35-.17-1.36 1.6-.07.14-.06.05-.84-.2-.9-.35-2.85-.37h-.96l-.9.18-1.63.55-.77.14-1.03-.14-1.62-.18h-.9l-.85.18-.78.28-.7.38-.66.5-.46.18-.2-.27-.06-.42-.13-.23-1.62-.28-1.1.05-.33-.05-.2-.18v-.06l-.32-.5-.2-.14-.38.23-1.5 1.5.6-.03.45-.14.52-.18.45-.23.9 1 .46.33.78.13.7-.03.6.1.32.3-.33.74.65.3.2.03-1.43 1.15.06.6-.77.22-3.37.05-.72-.1-3.18-.9-7.77-.56-1.43-.6-.9.1-1.56.3-.52.42-.5.87-.2.9.38.42 1.04.23.13.5-.46.7-.57.6h-.26l-.06-1.62-.97-1.05-8.74-4.26-7.2-1.74h-.97l-2.46.32-.72.13-1.5.6-.96.1-1.56-.28-.52.1-.97.5-.2.08-.7.37-.4.1h-.45l-.78-.24-.45-.04-.84.04-1.43.46-1.68.23-.46.4-.38.6-.65.56-3.05.88-.97-.05-.64-.13-.58-.37-.52-.6-.52-1-.2-.2-.12-.03-.06-.1-.13-.1h-.26l-.13.1-.07.2.07.17.52.37.5 1.46.4.55-.77.46-.66.6-.6.7-.57.87-.45 1.14.06.84.72 1.74-.9.04-.98.14-.72.37-.32.6.32.68.72.24 1.88-.05v.27l-.46.73v.14l-.4.05-.3.12-.2.2-.33 1.04-.44.23-.65-.15-.7-.36-.26.95-.9.32-.98.18-.45.37-.2.73-.44.87-.2.96.33 1.06-.66.23-1.68.32-.72.03-.97-.13-.7-.28-.72-.04-.6.45-1.54-.9-2.45-1.98-2.72-1.6-.46-.14-.38.1-1.12.36-.38.1-.26.1-.6.4-.3.1-.46-.05-.46-.18-.64-.36.12-.14.13-.4-.9-.15-.97-.46-.4-.63.6-.78-1.56.08-.46-.1-.58-.22-.2-.27-.2-.34-.3-.45-.34-.68.33-.6.5-.55.47-.6-.84.28-.4-.04-.45-.22-.13.32-.06.14-.32.27-.4.2-.5-.05v.27l.57.28.2.4-.2.47-.33.32-.58.08-2.02-.1.7.65 2.4-.27.9.45-1.4.3v.26l.3-.04.85.04-.32.33h1.18v.26l-.46.1-.32.22v.28l.2.32v.23l-.9-.04-.4-.5-.46-.6-.7-.27-3.57-.6-1.94.13-3.05 1.23-1.62.42-6.86.23v.1l-.13.1-.2.13h-.26l-.57-1.15-.26-.05-.26.1-.25.13-.2.1-.9.04-.84.18-.44.33.32.56v.32l-.26.13-.4.3-.38.3-.13.28.08.23.2.33v.14l-.46.83-.07.23-.45.27-2.07-.23-.78.23-.78.6-.77.27-1.75.4-.6.38-1.73 1.92-.52-.5-.2-1.5-.58-.3-.78.15-.06.37.06.45-.52.45v.28l.26.14.65.45h-.4l-.25.05-.5.23-.4.23-.07.27v.37l-.12.28-.4.18-1.35.4h.52l.33.06.58.23h.26l.45-.05.2.05.12.18.12.55.13.14.2.32-.52.78-1.23 1.2-.4.03-.83-.1-.45.06-.33.14-1.24.96-.52.96-.13.22-.38-.1-.38-.22-1.3-.87-.2-.23-.2-.28-.12-.55.07-.32-.08-.32-.26-.4-1.23-1.25-.65-.55-.84-.36-2.52-.78-1.7-.2-1.35-.55-.7-.18h-.92l-1.1.28-.78.4v.6l.26.74-.45.54-.78.36-.58.23-1.75.37-2 .14-1.56-.42-.45-1.28h.4l.32-.1.2-.17v-.28l-.14-.2-.13-.08h-.06l-.26-.83-.07-.42.2-.23.07-.14.78-.86.32-.14 1.23-.27 2.66-1 1.5-.33 1.54-.7h.98l1.3.8.83.27.86-.32.58-.65.32-.4.13-.37.2-.2h1.48l1.55-.54 4.8-3.22 1.55-.73.58-.1.13-.22.06-.5-.07-.5-.33-.83.52-.23.63-.05.26.05 2.9-1 .14-.24.4-.6.37-1.6v-.87l.2-.7.4-.58.84-.4h.84l.33-.15.52-.4.33-.06.26.23.2.46.07.6.06.45.26-.08.12-.1.13-.08.78.27 1.74.06.65.23-.45-.56-.7-.28-1.44-.36-.65-.5.07-.42.26-.32-.25-.46v-.28l1.04.14 3.1-.14 1.23-.22.64-.65.52-.73.64-.7-.26-.63.13-.47.46-.18.6.1 2.9-1.6.52-.56.32-.74.78-.55 1.75-.82 1.16-1.47-.2-3.7.45-1.74.26-.32.6-1.05-.13-.33-.2-.6v-.6l.2-.27h3.75l.46.1.84.4.45.1 2.4.18.84-.18.66-.28 2.85-2.02.2-.22.2-.28.26-.18.45-.2-.25-.4-.52-1.14-.06-.28-.13-.27-.78-.7-.26-.36 1.43.1.32-.1.26-.46-.05-.4-.33-.37-.45-.18v-.27l3.17-.83L658 535l1.54-.37.84-.1h2.98l.97-.1 1.3-.44.78-.06 5.38.92 3.37-.1 5.25.78 1.3.74.77.27 4.8-.14 3.04-.58 1.5-.14 2.78.1 1.62-.2 1.17-.5.32.33-.6.6.6.28.7-.87.14-.3.06-.52-.06-.27-.13-.22-.12-.42v-1.55l-.13-.82-.46-.46.84.14.38-.14.2-.36v-.64l.32-.42.58-.36.26-.37-.58-.4.9-.65 1.3.18 1.56-.92 2.85-2.38.72-.37.78-.27.84-.18.97-.05.92-.23.84-.55 3.7-3.94.32-.17.45-.14.32-.2.2-.36.06-.32.27-.4.26-.38.26-.23 2.4-1.55 1.4-1.23.72-.23 1.82-.43.7-.36.33-.5-.12-.46-.65-.36-.13.78-.78.4-.98.24-.84.04-.78.2-.58.45-.52.54-.58.5-2.47 1.05-.38.22-.4.42zm-299.9-.87h.3l.4-.1.32.2-.32.27-.26.1-3.3.68-.46-.14-.58-.2.06-.4.65-.33.78-.18.97-.06zm-21-12.2l.32.2h.65l.2.27-.27.32-.77.32-1.63.45-1.5.1-.38.27-.85.04-.13-.32.7-.6 2.15-.86.4-.23h.76zm24.03-50.48h.5l.98-.14.84.1 1.04.22.32.32-.4.32.08.28.97.32.13-.05.2.05-.07.32-.8.13-4.9-1.37-1.44-.6.46-.36.97-.05zm3.88-4.08l-1.43.27-.7-.56-.14-.6-.25-.3v-.24l.4-.37.44-.23.58-.1.58.1.4.23.96 1zm-12.5-32.8l.9 1.1h-.9l.12.35v.33l-.13.27-.25.23v.32l.5-.18.47-.1.38.05.38.22v.27l-.38.32-.26.64-.13.73.18.6-.9.5-.78-.28-.84-.6-.9-.5-.6-.05-.5.1-.47-.1-.2-.4.06-.6.13-.5-.07-.38-.45-.38-.85-.13-3.17.4-1.1-.1-2.07-.45-1.12-.05v-.27l1.04-.05.9-.13.72-.42.52-.82.32.24.33.1.4-.1.38-.23.9.65 1.05-.18 1.03-.46.9-.27 3.64.05zm61.73-40.2l-1.8.32-.9-.04-.73-.28v-.27l.13-.2-.06-.08-.07-.32.65-.23.2-.04-.07-.14-.13-.1-.06-.08.32-.23.32-.05.26.1.2.18.7.18.53.23.3.36zm51.83-3.94l-.85.18-.32.23-.32.3-.4.24-2.65.23-.53.23-.38.28-1.25 1.05.2.37-.13.1h-.2l-.2.3.27 1.06-.08.37-.25.27-.07.05-.84.23-.33.23-.2.5.2 1.07v.45l-.45.88-.65.77-3.04 2.16-.27.6-.06 1 .12.32.2.14v.08l-.53.14h-.45l-.78-.23-1.23.17-1.48-.23-.7.28-1.5.82-1.43.5-1.43.05-1.36-.42-1.22-.64h-.52l-1.5.82-2.06.6.7.37.27.1-.33.58.33.47.7.28.72.1.38.13.4.55.3.18h.4l.65-.26.26-.05.57.17 1.36.7.65.17.7-.23.66-.26.45.1.12.82-1.75.32-4.14 2.33-1.62.38-1.68-.05-3.17-.4-.84.54-.83.73-.52.65-.26.13-.46.28-1.04.37-2.2.36-.78.27-.26.04.58.33.13.32.07.32.4.37 1.02.64 1.75 1.47.98.6 1.1.32h1.17l.9 1.32.6.6.7.45.33.1.32.08 1.7.14.57.27.32.7.12 1.82.58.65.78.33 2.33.18 2.48-.13.77.1 2.98 1.32.33.27.06.36.13.37.52.18 4.47.65.9-.1 1.7-.82 1.03.06-.46.36.14.1.46-.05.32.04.32.38.07.18.2.05.65-.08 2 .4.46-.04h.27l-.97-1.2v-.26l.32-.23 1.23-.47.2.14-.13.27-.07.37v.5l-.06.38.18.18.52-.18.4-.27.3-.36.14-.4-.2-.43.85-.22-.07-.22-.4-.2-.2-.17.2-.42.27-.28.4-.23.44-.18 2.33-.38.84-.36-.25-.7.6-.45-1.5-.72.26-.6-1.42-.4-.06-.47h.2l.3.06.2-.2h.07l.32-.35v-.04l-.13-.04-.14-.23-.13-.24.06-.23.12-.05.13-.04.78.1h.32l1.36-.6 2.1-1.9 1.22-.72 1.3-.05 1.42.42 2.6 1.27.25.27.38.7.4.13h.44l.26.18.45.64.45.77.07.64-.32.43-.72.23 1.5.45.33.24.2.37.2.42.18.42.72.68.84.55.9.46.92.32.45.05.33-.23.32-.28.45-.14h.52l.45.18.85.4.64.47.32.24.26.73-.4.78-.96.7.45.5-.06.45-.64 1 .65.28 1.1.83.65.2.2-.1.26-.18.2-.2.2-.17h.32l.65.14.32.03 3.62-.82h1.17v.05l.18.2.2.17.32.14h.26l1.1-.23.97-.1.26-.18.18-.32-.06-.36-.07-.32.07-.28.58-.55.33.05.32.27.52.23.52-.1.57-.17.65-.05.64.32 2.6 1.5.64.2.33.13.58.6.27.14.9.04.4.1.25.13.85.7-.2.5-1.36.97-.7.18-1.04-.23-.97-.37-.6-.27-.58.04-2.9-.73-2.28-.2v.33l.52.18-.26.42-.52.55-.26.7-.2 1.23-.05.73.25.74.9.77 1.44.42 3.1.27v.28l-.45.8-.05.72.45.64.9.46-.83.55-.2 1.14.07 1.07.2 1.88.18.6.33.6.26.45.4.23.64.27.46.18.7 1 1.18.47 1.23.37.85.36.4.37.25.55.13.64-.33.6-.7.68-.2.28-.07.32-.32.37-.45.72-.4.32-.3-.4-.72-.1-.84.18-.73.32 2.72.78.2.46.12.5.4.28-.14.13-.26.3-.2.15.72.2 1.75.08.7.27-.46.78h-.5l-.6-.27-.58-.18-.2-.13-.5-.43-.14-.1-.4.1-.77.2-.26.03-2.47 1.15-.13.46.33.37.97.6.77.73.6.32 1.15.14.46.23.32.03.45.14v.37l-.2.32-.12.18-.06.92.06.6.26.6.44.45.46.38.26.45-.26.78.5.47 1.5 1.83-.12.14v.05h-.07l-.12.08.2.7-.07 1-.18 1-.33.6-.2.7.52.63 1.74 1.24.13.28-.52.18-.2.2-.45.76-.2.2-.45.26-1.42 1.97.32.3-1.8 1.07-.53.36-.46.65-.98 1.97.26.96-.13.2-.78 1-1.94 2.15-.2.78v.64l.46 1.2.12.64-.13 1.8-.6.73-2.52 2.56-.7.54-.72.23-.65.55-.96 1.1-.4.64-.06.78.13.74-.12.55-.26-.33-.32-.22-.4-.05-2.45.1-.84-.15.27-.78-.4.1-.38.13-.33.14-.33.23v.23l.65.14.57.36.46.46.32.54-.26.4 1.3.2.38.36.25.42.52-.37.97-1v.22l-.7.87.83.96 2.14 1.38-1.17 1.8-.6.44-.38.28-.32.1-.4-.06-.5-.27.06-.23.3-.18.4-.5-.06-.2-.52-.04-.26.1-.33.32-.5.27-.08.1h-.13l-1.8.05v-.28h.83l-.58-.32h-.4l-.7.32-2 .28-1.83.64-.7-.1-1.1-.7-.8-.26-3.1-.55-2.9.26-.85-.14v-.32l.63-.18.6-.37.44-.5.07-.64-.52.42-.7.46-.8.23-.83-.22-.27.23v.37l.06.1v.13l-.07.32.45-.18.13-.14h.27l-.13.64-.13.23-.3.28H538.66v.27l-.13.05-.32-.05h-.13l.3.32-3.03 1.15-.4.26-.5.5-.6.38-.64-.28.32-.5.52-.28.52-.23.5-.32v-.4l-.7-1.7-.27-.28-.45-.4-.45-.33-.46-.14-.45-.32-.65-1.3-.5-.44.1.5.14.46.08.18v.46l.13.18.6.7.12.4-.52 1.06.07.4 1.1-.04v.32l-.7.33-1.18 1-.8.37-.9.14-1.87.04-.9.14.25-.46 1.17-1-.9-.23-.53-.1-.58.05v.27l.2.13.12.14.13.14.12.2-.45-.06-.52-.22-.32-.05-.52.14-.32.24-.2.27-.25.24-.84.23h-.8l-1.54-.23-8.04.55-2.9.95-1.57.23-.2.1-.12.22-.26.2-.4.03-.3-.14-.14-.33-.13-.27-.13-.14-.7.14-.85.36-.52.55.2.7.38-.32.65-.04.78.13 1.24.37h.32l.06.18-.25.5-1.3.65-.2 1.24-.12.33-.33.1-.45.03-.33.14-.77.32-2.27-.14-.84.28-.4.55.07.47-.25.18-4.47-.37-.12-.18-.07-.37-.18-.36-.46-.2-.06.15-.07.05-.06 1-.07.37-.58.55-.58.45-.7.23-.92.05 1.23.73.52.1-.46.45-.96.24-1.75.23-2.14.6-.65.54.8.56-.66.28-3.18.4-1.62.38-2.65.18-1.1-.1-.53.05-.4-.04-.18-.13.12-.32.26-.23.38-.14.33-.04-.08-.2-.2-.35.6-.1.57-.14.58-.23.52-.4-.26-.1-.2-.1-.26-.1h-.4l.34-.54.2-.2.32-.13-.2-.37-.26-.1-.32.15-.4.32-.57-.23-.85-.1h-1.7v-.22l-.38-.23-.7.08-.8.23-.76.15-1.68-.05-.9.1-.85.27 1.43.32 1.75.17 1.03.46-.77 1.33 1.56-.1.52.1v.28h-.26v.32l.32.18.2.05-.6.08-.3.1-.27.13h1.5l-.72.7-.13.18v.23l.2.2.12.27-.2.32-1.42.95-.45.4-1.1.42-1.56.23-.5.23-.6.5-.25-.5-.58-.32-.65-.17-.5.1.57.3.25.47-.2.46-.64.27-.32-.87-.9-.32h-1.88v.27l.4.15.83.05.45.14.4-.28.25-.05.2.34-.07.22-.33.2-.32.13-.25.03-.65.96-.13.27.07.46.2.64.06.46-.52-.28-.58-.82-.6-.32-.7-.04-2.07.37-5-.32.6.42.7.18h1.56v.28l-.33.13-.26.2.85.23-.45.27-.26.32v.37l.2.5-1.63-.14-.3.18-.34-.18-.32-.28-.32-.18h-1.56l-.45-.05-.32-.14h-.25l-.26.2-.85-.23-.58.46-.45.73-.4.5-1.5.32-.25.1-.2.4-.32-.08-.4-.32-.12-.14-.25-.1-.84-.4-.44-.1-.52.05-.58.22-2.33.32-.52-.14-.96-.37-.52-.1v.33l.2.05.38.24-.4.46-.5.36-.6.23-.64.08-1.1-.18-.32.05.13.4v.28h-.65l-.26.28-.2.38-.38.22-.46.05-.32-.14-.4-.03-.5.13v-.27l-.14-.18-.06-.2-.13-.22-1.1.46-.13.36-.26.04h-.32l-.33.14-.52.32-.57.1-1.3.04.46-.23.38-.23.32-.27.26-.42-.58.28-.52.14-.2-.14.4-.6.45-.36 1.04-.46.52-.27-.13-.1v-.03l-.06-.05-.13-.14-.33.24-1.35.5-.13.24-.38.27-.9.5-.46-.4v-.42l.32-.46.13-.6-.26-.27-.7-.23-.73-.1-.58.2.33.5-1.18.36-2.98.42-.13.13-.05.42-.2.13-.7-.04-.27.03-.84.5-.46.1h-.7l-.07-.4-.5-.47-.6-.23-.25.37-2.34 1.33.34.18.06.05.2.05-2.85.87.13-.5-.4.1-1.16.68-.32-.28-.26.28.06-.5.07-.24.13-.17v-.23l-.33-.1-.2-.08-.3-.42.9-.18.77-.32 1.5-.92.77-.36 1.43-.23.9-.3.8-.35 1.8-1.33.78-.37 1.56-.46.84-.37-1.94-.1-8.03 2.57-2.66.14 1.75-.73.4-.13.44-.14.26-.4.4-.42 1.6-.36 5.2-1.7.58-.55 1.36-.14 1.55-.5 1.57-.24 1.23-.36.06-.65.2-.2.2-.24.18-.14v-.23l-.64-.24-.65.28-.7.18-.92-.5-.4.04-.18-.1v-.13l.06-.55-.05-.14-.26-.18-.34-.18-.45-.2-.38-.03.2.5-.07.42v.36l.45.46-.84.13-.58.23-1.17.78-.76.32-.9.13-2.73.18-1.42.4-5.3.47-1.76.46-.58.33-.06.13-.07.14v.14l-.12.14-.26.13-2.65.52-.98.5-.52-.04-.78-.2-.45-.03-1.95.13-.9.28-.72.46-.32-.32.32-.14.07-.23.06-.27.14-.23.26-.1 2.85-.5.65-.23v-.18l-.07-.05h-.12l-.12-.04.2-.5-.33-.33-.65-.1h-.65l.58-.5.9-.13 1.7.1.9-.24 1.94-1.2v-.3h-1.68l.7-.74 1.3-.66 1.5-.45 1.1-.15-.14.18-.26.4-.2.24.72-.1.7-.22.46-.4.13-.7.53.23.72.1 1.6-.05v-.28l-.3-.04-.85-.22v-.28l.58-.23 1.04-.77.84-.28.52-.55.2-.18.32-.06 1.1.05 1.36-.3 2.46-.86 1.36-.27v-.32l-3.04.27-4.4 1-.8.33-.38.27-.25.28h-1.35l-.65.14.26.32-1.23.5-.52.05.14-.18.13-.5.06-.18h-.58l-.4.18-.18.23-.26.14-.5.12-1.05.1-.45.1-1.82.9-.97.28-.96-.32-.84.55-1.04.55-1.1.4-1.03.2.25-.56-4-1.14 1.6-.32.4-1-.72-1.06-1.68-.5-.52.22-1.03 1-.46.24-.52.14-1.3.77-.64.23-.25-.55.52-1.2-.26-.54-.57-.08-.9.05-.53-.1.33-.45-.07-.2-.06-.03-.13-.06h-.07l.07-.14.13-.13.06-.1.07-.22h-.2l-.26.04-.13-.05v-.28l1.36-.1 3.5-.77h.7l.34-.14.13-.27v-.3l-.13-.12-.65-.23-.33-.46-.46-.42-.76-.1v-.23l.5-.22 1.05-.23.44-.14-.32-.64.9-.28 1.17-.13 1.1-.45 2.65-.78 3.95-.55 1.68-.6.9-1.46h.34v.78l.38.32.6.1.57-.06-.13-.36.9-2.48 1.3.46 1.3.04 3.1-.22-.32-.2-.32-.26-.26-.14 1.5-.55-8.37.26.6.88-.27.45-.2.18-.25-.7-.4-.27-.58-.17-.58-.1-1.3-.04-5.64.86-.97.42-.47-.28-.38-.4-.46-.24-.46.1-.26.27-.32.1-1.1-.7h-.46l-1.16.23v.28h.38l.4.04.7.23v.24l-1.1-.1-1.94-.4h-1.04l.07.27.14.15.45.1-.9.04-1.7.44-.9.14-.98-.27-.32-.5-.07-.7-.38-.8.38-.15.78-.46v-.28l-.44-.32.52-.37.9-.32.78-.13-.32.55.9.5.52.1.45-.14.14-.32-.13-.32-.05-.27.52-.37-.46-.23-.1-.05.3-.64.53-.18.65.04.77-.13.52-.3.9-.88.46-.2 4.34-.8.7.35-.5 1.6.06.24 2.72-.22 1.23-.46 1.1-.78.4-.87-.98-.78 1.5-.05.44.18-.2.4.2.6v.7l.2.5.58.23.7.04 1.24.37 1.43.23h1.74l.58-.23.9-.7.46-.12.52.1-.26.12-.26.2.65.22 3.04-.24-.65-.4-.58-.15h-1.36l-1.36-.5-.58-.1-.65.33-.33-.23-.26-.27-.12-.32-.13-.36.52.32.4.14h.44l.66-.18-.52-.2-.33-.03-.3-.06v-.32h.38l1.1-.23-.45-.74.13-2.02-.72-.46-2.2-.23-1.16-.36-.78-.52.65-.4.77-.15 2.85-.13 4.15-1.2.58-.27.6-.6.7-.22h1.1l1.1.2.7.22-.18-.6-.46-.27-.7-.1-.72.05.26-.18.13-.23-.13-.24-.26-.18v-.32l.4-.23.05-.23-.14-.5.2-.33.97-.73.26.14.25-.14.32-.18.46-.1 1.68.28h3.38l.32.1.4.17.38.1.45-.18.26-.27.25-.14.4-.03 3.16.1h.14l.4.03.57-.18 2.67.05 1.5-.2.7-.17.6-.37.57-.23 5.12-1 .7-.33.4.46.7.1.92-.1.58-.18.26-.23.26-.37.32-.36.45-.2 7.32-.55 1.43-.32h-.78l-2.72-.64-1.36-.2-2.72.28-.7-.1-.47-.17-.06-.27.5-.32v-.26l-.2-.37.08-.5-.07-.42-.63-.18.32-.32.44-.55.33-.23-1.1.18-1.3.42-.97.6-.07.5-1.36 1.6-3.75 3.02-.78.27-3.76.27-.2.1-.64.6-.45.18-.53.04-.52-.04-.52-.14-.4-.2.66-.35.9-.37.7-.4v-.6l-1.35.5-3.04.6-2.13.04-.9-.1-.8-.22-.37-.37-.26-.22-1.43-.14-.57-.32.2-.68-.46-.23-1.5.05v.28l.4.1.32.17.25.23.2.32-3.18.92-1.88.23-.9.27-.4.46-.13.6-.33.1-.38-.2-.26-.04-1.17.5-7.45.64v-.28l.7-.23 1.83-.78 2.15-.32 8.48-5-.06-.13-.2-.4.46-.15.58-.32.4-.14.58-.1 1.3.1.45-.05.78-.23.46-.05.45-.14.14-.4.13-.47.33-.4-.2-.2.07-.04.13-.32-.26-.32.4-.14.44-.27.45-.32.4-.42.25-.36.13-.32.14-.28.4-.14v-.32l.05-.54 2.58-1.5.46-.83-.78-.14-3.3.08-1.1-.23 1.23-.73.44-.37 1.23-1.28.4-.28.5-.2-.32-.3 2.2-2.58.9-.6.72-.68.6-.92.7-.73.9-.2.98.33 1.94 1.14.96.23.78-.18.84-.32.97-.18.98.36.13-.64-.6-.4-1.87-.33v-.3l2.46-.3.64.15 1.3.64.84.04v-.23l-1.75-.6v-.3l.96.22.52.1.46-.33.5-.15.34.05-.26.4.45.33.46.28.5.15.6.1-.33-.84-.26-.3-.26-.28.52-.64.72-.46 1.36-.6h-.46l-.78.18-.32.05-4.14-.1-.6-.13.72-.32 1.88-.27h.85v-.33h-1.17v-.22l.4-.23 1.1-.2.5-.17v-.27l-3.3-.27-.84.1-1.5.36-13.53.68-1.37.36-.58.32-.97.14h-1.75l-.84-.27-.53-.37-.32-.4-.6-.38.8-.73-.27-.46h-.7l-.4.77-.2.9-.5.52-.66.08-.65-.5v-.33l.78-.87-.32-1.87.84-.36.13.04.4.14.3.05.2-.1.26-.36.13-.08.12-.14-1.75-1 .52-.33 1.55-.55-1.56-.04-.72.1-.65.26.58.46.08.73-.4.66-.77.18-.76-.46.2-.82.44-.74-.06-.32-.2-.1-.2-.13-.18-.1-.26.2-.6.45-.5.1-.33.32-.45.68-.97 1.06-.65.5-2 .55h-.66l-.7-.5-.85-.42-1.82.3-.64-.33.2-.14.2-.55.06-.46.13-.32.3-.14.4-.1h.52l.7-.12 1.76-.7.58-.36v-.23h-1.42v-.32l.84-.27v-.28h-.58l-.45.14-.98.4.07.3-.58.22-.65-.05-.25-.47.26-.37.85-.36.32-.4-.5.03-.34.23-.32.23-.38.08-.4-.1-.3-.13-.4-.04-.46.28-.13.4.07.47.06.4-.45.15-.5.05-.72.18-1.62.05-.58-.1-.46-.18-.45-.32-.26-.4-.25-.3-.58-.12-1.68.18-1.05-.05-.58-.42-.33.18-.4.1H398l.4-.65.44-.44.65-.28.84-.1 1.63.24.65-.05.58-.4v-.33l-.45-.05-.38-.14-.33-.28-.27-.4.9.08 1.05.32.84.05.4-.46-.85.05-1.56-.2-1.6-.4-.85-.6-.07-.23-.25-.5-.33-.5-.4-.2-1.22.2-.52.03-.38-.23.97-.5h.97l1.03.18 1.04.05-.07-.18-.2-.5-.06-.2h1.88l1.87.33.26.14.6.68.38-.13.58-.5.45-.2-2.53-1-.65-.5 1.62-.23 3.24.18 1.23-.18 1.43-.55.58-.06.4.14.9.37 2.02.22 3.3.14v-.26l-.78-.23-2.9.15-1.82-.42-3.37-1.23-.6-1.88.2-.87.53-.7.26-.63-.4-.78.4-.18 1.55-.2 1.16-.22.97-.1.45-.08.46-.27h.25l.84.3.45.14 7.76-.82v-.32l-.64-.1-1.7-.5.27-.1.12-.08.2-.05.25-.04v-.28l-.13-.36.46-.38 1.42-.7-.32-.03-.78-.3.32-.13.26-.27.2-.32.06-.4-.26.03-.2.06-.18.1-.2.13-1.23-.3-5.97-.03-4.15 1.42-2.26.3-1.36-.86.52-.28.25-1.14.72-.33-.13-.37v-.2l.13-.3v-.24h-.33v-.28l2-.32.4.1.9.4.6.1.44.22.2.97.45.22.4-.14v-.32l-.06-.46.12-.5-.38-.28-.33-.32-.4-.23-.57-.05v.28l.26.32-.52-.14-.26-.27-.52-1.05.07-.23v-.13l-.2-.24h-.24l-.72.04-.2-.18-.12-.23-.26-.24-.32-.36-.13-.6.2-.64.45-.18.52-.14.52-.37-.6-.14v-.23l.33-.27.58-.18-.3-.28 1.16-.6-.4-.22h-.5l-1.1.23.12.32-.07.18-.18.05-.45.04v.28h.32l-1.24.9-1.17.15-1.1-.5-.85-1.1h.84l1.87-.32.78-.28-1.3-.55-.52-.4-.26-.52.33.14.58.1.26.1-.52-.52-1.5-.96.6.22.5.04.4-.18.26-.37-2.2-1.04-.97-.23-.58.4.6.47-.2.37-.72.14-.84-.1.4.47.18.14v.28l-.58-.04-.52.04-.9.33v.23l.58.14.2.23.06.83h-.33l-.84.27.6.23.5.4.08.38-.72.15-.77-.05-.6-.14-.4-.46-.05-.77.2-.5.97-1.2.2-.46.18-.78.33-.33.45-.27.52-.55h-1.3l-.58-.14-.45-.4h.77l.4-.37.25-.55.32-.5.45-.23 1.88-.64.13-.18.13-.23.2-.14h.4l.25.1.06.26.08.28.13.18.6.28.7.23.72.03.64-.23.26.32.4.2h.32l.45-.24.05.13v.1l.2.05-.9 1.06-.98.46-1.04-.1-1.1-.54-.26.83.65.23.97.04.77.2.7.26.6-.27.5-.45.66-.23-.58-.5.26-.7.72-.6.65-.22.9.14 1.43.64.9.1-.2-.37-.3-.22-.92-.28v-.32l.46-.1h.38l.9.1-.77-.27-2.2-.27-.45-.4-.26-.6.06-.33 2.46-.4.9.13 1.63.6.77.13 7.2.32.44-.04.8-.23.5-.04.33.1.58.36.34.14 3.37.27.4-.1.5-.13.47-.23.32-.27.38-.18.52.1 1.88.5.38.04.26.13.4.82.2.18.76-.1.4-.08.06-.14.32.32.07.37-.13.27-.26.23v.28l.97.27v.28l-.83.36.2.37 2 1.1.58.46.33.63v.83h.26v-.74l.2-.64.05-.6-.26-.64.9-.23.97-.54.73-.82.26-1.1.63-.7 1.43-.08 2.52.32.33-.04.2-.14.26-.1.46.28.7.23.72.15.9.4.65.1h2.07l.9-.18.85-.37 1.16.5 2.53-.3 1.24.35.2.4.12.47.26.42 1.23.27.46.3.9.76.53-.27.65-.06h1.36v-.27l-.58-.18-.78-.15-.65-.23-.26-.46-.26-.32-.63-.23-.78-.13h-.66v-.32l.32-.18.46-.5.4-.2.9.3.58.08.26-.23.45-.18 3 .36-.66-.5-.78-.37-.84-.23-.78-.04h-.84l-.32-.1-.07-.36.2-.4.53.08.97.5.84-.32-.32-.37-.9-.37-.92-.14h-4.14l-.2-.15-.06-.4.2-.33.38-.28.52-.18 1.23-.23 4.86-2 .64-.15.25-.14.12-.32.07-.82.12-.74.32.14.33.46.06.27h.2l.06.05v.23l1.22-.5 1.23-.36h.13l3.43-.4.53-.06 1.88-.78 1.37-.14v-.32l-1.36-.04-.64-.2-.52-.35 2.27-1.15-.12-.78 1.95-1.05-.13-1.06.45.2.32.18.33.14.52.1.45-1.38.26-.37-.13-.1h-.07l-.13-.13-.77.4-.85.3-2.85.26-1.55.73-.84.28v-.27l.45-.36.06-.37-.33-.32-.58-.14-.65.2-1.1.8-1.04.33-1.94 1.3-.58.26-.6.18-.57.1v-.22l.97-.74.65-.32.77-.1.58-.3-.13-.6-.52-.37-.64.36h-.26l.13-.9h-.52l-.7.6-.33.77-.26.23-.38-.18-.45-.37-.2-.27.07-.2-.06-.17-.33-.04-.26.05-.46.2-.26.04-.97.04-.5.1-.46.6-.52-.1-.84-.37H461l-.7-.26.3-.4-.37-.24-3.5-.78h-.7l.1-.14.08-.14.14-.13.26-.18v-.23l-.58-.24-.26-.27.06-.3.58-.12.65-.05.46-.14.4-.28.06-.5.52-.33 2.98-1.3 1.03-.22 4.2.05 2.2.46h1.17v-.3l-2.98-.4-.8-.46.66-.18 1.88-.05.52.1.52.5.65.5.77.24.78-.23-2.2-1.27-1.62-.32-1.5-.63-.96-.05.13-.4.32-.1h.45l.46-.1.45-.18.53-.4.52-.24.77.46.9.04 2.02-.23 2.33.55h.84v-.27l-.7-.05-.9-.23-.72-.45.07-.7.58-.36 1.62.2.65-.1-.6-.28-.44-.78-.58-.14-.78-.04-.2.04-.2.2-.05.3v.37l-1.24-.04-.96-.6-.77-.88-.52-.78.58-.23.4.15.38.23.53.14.58-.05.6-.14 1.03-.36-1.23-.32-.97-.55-1.56-1.15v-.27l.33-.23.45-.1.45.05.46.28.45-.46.14-.14h-.26l.2-.6.32-.1.45.06.45-.18.85-1 .26-.2.4.28.12.96.4.23.25-.18.26-.78.4-.23-.53-1.24-.13-.73.13-.32.52-.28.65-1.28.45-.47h.65l2.33.6.78-.1 1.3-.4.7-.1-.32.37-.26.27-.2.28-.12.4.26.2.45-.24 1.3-1 2.5-.96.8-.13.57-.3.4-.7.5-.64.98-.1 1.1.5-.32.47-1.94.78v.28l1.74-.55.25.1.32.22.65-.04.64-.13.4-.18.6.58v.28l-.2.46.38-.05.58-.32.65-.1-.18.42-.33.27-.4.14-.5.05v.27h.76l.46.1.38-.05.4-.32.5-.78-.12-.46-.97-.8-.25-.8.7-.52 1.1-.5 1.05-.73.13.22.2.1-.98 1.97-.06.27.05.1.13.2.26.17.26.14h.4l.38-.27.4-.04.57.12.84.37.77.4.4.42.05.13.4.55.12.28-.06.32-.2.73-.06.4.32-.4.7-1.1.27-.23.14-.27-.26-.7-.4-.63-.18-.28-.06-.4-.2-.5-.32-.47-.6-.18-.3.32.12.58.26.64.26.46-.58-.04-.4-.28-.38-.27-.4-.3-1.22-.17-.45-.28.12-.55 1.17-1.33v-.22l1.5.13.64-.13 1.5-.74.5-.13.72.2.45.4.33.4.38.2.2.32-.07.63-.2.64-.05.23.2.37.57.27 1.16.37v.5l.4.56.44.46.45.18.6.32.12.7-.26.68-.45.32-.58.1-.52.27-.77.5-2.27.86v.27l2.53-.27.78.27-.44.88-.52.33-2.07.82-1.36 1.15-.58.32v.27l.85-.15.7-.32 4.02-2.24.45-.06.32-.46.84-.22 1-.14.7-.2.58-.5.26-.68-.2-.6-.77-.22-.2-.18.13-.37.46-.6v-1l-.26-.05-1.7-1.5-1.02-.52-.33-.23-.13-.27-.2-.46v-.4l.98-.47.46-.73.06-.87-.45-.65.7.05.66.14.58.1.66-.28-.13-.13V364.25l-.13-.23.84.4.9.33h.9l1.63-1 .85-.14.84.23.65.77H516.85l.78.33.9.27h.98l.77-.32-2.65-1.24-1.23-.9-.14-1.02-1.1-.37-.52-.23-.33-.27.66-.28.78.08 1.36.46 2.9.6.73.1 1.55.5.58.27 2.14 1.9.65.3 2.07.56 1.56.14 1.94.5.84.37.97-.23.6.64-.14.82-1.3.46-1.17.14-1.43.32-1.3.5-1.42.83-1.36.4-1.17.2-.5.3-1.9 1.48-.64.7-.5.77zm40.93 40.7l-.64-.33-.65.05-.58.18-.53.1-.52-.24-.32-.27-.33-.05-.58.55-.07.28.07.32.06.36-.2.32-.25.2-.97.08-1.1.23h-.26l-.33-.14-.2-.18-.18-.2v-.03h-1.18l-3.63.83-.33-.04-.65-.15H548l-.2.18-.2.2-.25.17-.2.1-.64-.2-1.1-.82-.64-.27.65-1 .07-.46-.45-.5.97-.7.38-.77-.26-.73-.33-.23-.65-.45-.85-.4-.45-.2h-.52l-.45.14-.32.27-.33.23-.45-.05-.9-.32-.92-.46-.84-.55-.7-.68-.2-.42-.2-.4-.2-.38-.32-.23-1.5-.44.73-.23.32-.42-.07-.63-.45-.78-.45-.65-.26-.18h-.45l-.4-.14-.38-.7-.27-.26-2.6-1.28-1.42-.43-1.28.05-1.23.73-2.1 1.88-1.35.6h-.32l-.78-.1-.13.05-.13.05-.07.23.13.23.13.22.12.04v.05l-.33.37h-.07l-.2.2-.32-.06h-.18l.06.47 1.43.4-.25.6 1.5.74-.6.47.26.7-.83.35-2.33.37-.45.17-.4.23-.26.28-.2.4.2.2.4.18.05.22-.85.23.2.43-.14.4-.3.38-.4.28-.52.18-.2-.18.07-.37v-.5l.07-.36.13-.27-.2-.14-1.23.46-.32.22v.27l.97 1.18h-.26l-.44.05-2-.4-.66.08-.2-.04-.06-.18-.32-.37-.32-.03-.46.04-.13-.08.47-.36-1.04-.05-1.68.83-.9.1-4.48-.65-.52-.18-.13-.37-.06-.36-.33-.28-2.98-1.34-.77-.1-2.47.15-2.32-.17-.78-.32-.58-.64-.13-1.83-.33-.7-.58-.26-1.7-.14-.32-.1-.33-.08-.7-.46-.6-.6-.9-1.33h-1.17l-1.1-.33-.97-.6-1.74-1.46-1.03-.64-.4-.37-.06-.32-.13-.32-.58-.32.26-.03.78-.28 2.2-.37 1.04-.37.45-.28.25-.13.52-.65.84-.73.85-.55 3.17.4 1.7.06 1.6-.37 4.15-2.32 1.75-.32-.13-.83-.46-.1-.65.28-.72.24-.65-.18-1.36-.7-.58-.17-.27.04-.65.27h-.4l-.3-.17-.4-.55-.4-.14-.7-.1-.7-.27-.34-.46.33-.58-.26-.1-.7-.36 2.07-.6 1.5-.82h.5l1.24.64 1.37.4 1.42-.03 1.42-.5 1.5-.83.7-.28 1.5.23 1.22-.18.78.22h.45l.52-.14v-.1l-.2-.13-.13-.32.06-1 .26-.6 3.03-2.16.65-.77.45-.88v-.45l-.2-1.06.2-.5.33-.22.84-.23.07-.05.25-.27.07-.37-.27-1.05.2-.3h.2l.12-.1-.2-.37 1.24-1.05.37-.28.52-.23 2.65-.23.4-.23.3-.3.33-.24.85-.18-.46.78h.72l1.86-.32.78.04 1.8.55 1.44.14 1.42-.14.52-.18.9-.7.6-.26v-.56l.32-.73.52-.68.45-.32.53-.4.26-1.9.24-.6h.65l1.8.7.85.18 5.37-.14 4.8-1.28 2.9-.14.73-.32.64-.5.77-.4.9-.3.9-.03 1.57.5.97.18 1.63-.6 1.04.15 4.08 1.32.65.14.9-.1 1.62-.4.84-.1 1.62.2.84.22.33.32.4.1 1.54 1 .38.46-.13 2.33-.26.68-.66.87.33.4.78.06.77-.04.6.05.63.2.52.27.33.36-.13.78-.72 1.57.07.28 1.23.1 1.1.35 1.04.55.83.7.13.3.32.65.26.33.26.18.65.33.32.23.4.32.38.4.26.56.14.6.45 1.14 1.1.42 1.22.27.97.87h.25l-.77-.92-2.66-1.65.65-.68 1.3.17 1.3.7.77.63.52 1.33-.13 1.2-.6.9-.96.6-1.23.37-2.46.46-1.17.32-1.1.6-.77.63-.97 1.07-.58.6.52.18.2.36v.38l.12.23h.52l.32-.17.2-.28.52-.27.9-.87.4-.27 1.48-.4 1.43-.6.9-.28.64.18.65.28.96.05 5-.46.25.13.53.55.38.14.47.1.13.27v.3l.13.46.64 1.47.52.6.7.23.26.36.26 1.65.2.55 1.3 1.2.25.13-.26.4.08.24.13.13-.06.23-.2.27-.77.74-.26.5.27.7-.13.68-.45.32-.53.27-.2.37.6.47-.66.18-.5.6-.6.04-.44-.28-.4-.6-.45-.83-.5-.14-.4-.4-.32-.47-.06-.47.26-.5.97-.7.2-.63-.14-1.33-.44-.97-.7-.68-2.93-1.65-1.16-.37-1.23-.04v.32l.32.36-.13.42-.4.36-.38.28h.6l.44.18.38.23.32.15 1.56.04.45.22-.64.18-.9.1-.33.18 1.3.4-.2.52v.5l.26.37.5.1v.17l-.05.14-.26.23.3.28-1.15 2.2-.33.37-1.5.73-.5.46 1.74-.37 1.95-.68 1.75-.3 1.23.74.4 1.6-.52 1.2-1.1.96-1.37.87h-.2l-.52-.04-.2.04-.25.83-.26.14-.4.1-.3-.06-.14-.32-.52-.32-2.45-.1-1.75.1-1.82.4-.84.06-.84.23-.2.5.07 1.42v.14l-.13.8-.26.88-.32.83-.46.7-.77.55-1.75.5-1.3.83-1.75.82-.58.14-1.62.1-.7-.1-.72-.32v-.23l.85-.3.32-.03-3.17-.7-.58-.04-.46-.73-1.1-.27-1.3-.05-.84-.18zm3.96-50.55l.13.46-.26.54-.4.46-.33.27.07-.32v-.23l.06-.14.2-.18-.97-.5-1.04-.05-1.05.05-.97-.05.45-.28.46-.18.5-.1.52-.05 2.2.2zm44.3-5.68l-1.94.23-2.27-.14-1.87-.4-1.75-.6-1.74-.88V356l-.4-1.14-.2-.32v-.27l.27-.1.08-.13.06-.1.2-.22-1.04-.83-.78-.83-.32-1 .2-1.38.58-.93.97-.87 1.3-.64 1.42-.14-.07-.18-.13-.28-.06-.18h1.44l2.7.78.73.4.84.8.6.86.83 2.1-.45.56 1.8 1.05.08.96-.4.13H610l-.4.14.2.6.38.13 1.7.46-.92.37.06.55.46.64.06.7-.58.35zm4.54-12.1l-.33.23h-.52l-.37-.37-.52-.72-2.7-1.47-.47-.67-.45-1.2-.06-.5-1.5-.6-.25-.27-.33-.64-.52-.74.07-.68 1.35-.42 1.3.65 1.3.82.3.14h.4l.33.13.2.96.3.17.4.1.33.18.53.55.38.55.34.6.4 1.28v.27l-.34.23-.4.55.47.18.32.32zm-45.8-4.3l.13 1.28.25.4.58.42.65.32.4.14.18.2-.13.3-.2.42v.23l.2.23.26.2.7.17-.12.46v.5l.12.42.26.33v.27l-.5.14-.4.18-.33.23-.2.37-.25-.32-.78.64-.97.5-1.1.37-1.17.18-1.8-.13-.53.14-.32.93-.2.14-.38.27-1.03.5-1.1.2-.98-.2-.6-.9.27-.97.9-.6 2.27-.73-.9-1.52-.53-.32-1.68-.45-.33-.05.2-.73 1.03-.78 1.95-1.07-.97-.27-1.16-.1-1.17.1-.9.4-.98 1.48-.58.68-1.3.55-1.35 1.1-.53.37-1.17.1-.52-.42v-.7l.6-.72-.27-.05-.12-.18-.26-.1.45-.68 1.88-1.57-1.42-.55.58-.27.33-.27.2-.4.06-.65.06-.5.32-.37 1.55-.6 2.27-.58.52-.32.45-.2.52.15-.33.23-.52 1.2v.27l.32.73.33.32.52.1v-.28l-.33-.83.9-.92 1.36-.78 1.5-.5 1.02-.83.52-.2.65-.08.58-.2.6-.3.38-.24.4.05.25.2.13.26.2 1.8zm-1.3-11.78L566 331.5l-.45.82.07.73-.78.37-1.17.18-1.16-.04-.84-.23.65-.32.34-.45.2-.55.38-.55.84-.64.26-.22.32-.14.65.14.32-.14-.13-.18-.08-.1-.06-.27.7-.05.66-.2h.45zm14.77 3.85l-3.5 3.94-.9 1.7-.45-.1-1.04.73-.7.18-.34.32-.4 1.65-.25.64-1.1.4-1.62-.1-1.5-.54-.63-1.06-.4-2 .07-.74.46-.65.58-.26.72-.23.7-.4 1.24-.6 3.3-.36 1.37-.65h-1.04l-1.5.22-1.42.05-.65-.7.52-.95 1.16-1.1 1.3-.87.85-.37 1.3-.23 3.17-1.78 2.14-1.2 1.3-.5.9.23.13.4.12.6-.06.5-.65.38-.64.64-.84.46zm2.34-5.96l-1.04.1.45-.7.7-.4 1.44-.65.32.33.26.7-.84.4zm4.72-4.22l.06.6-.33.6-.38.64-.4 1.28-.45-.28-.77-1.1.4-.4.5-1.02.46-.32.25.14.2.14.18-.05zm1.16-2.6l-.26.5-.4.36-.25.37.26.55-.9.32-.77-.28-.26-.68.52-.83.5-.23.98.1zm3.43-4l-.65.74-.78.5-.9.23-1.1-.04.18-.36.26-.28.66-.5 1.3.04.64-.1zm-27.54-2l-2.2.03-1.04-.1-1.1-.54.4-.36.5-.33.53-.13h.58l.58.37 1.3.55zM536 316.27h-.83l-2.65-.64-.4-.5-.2-.65-.44-.7.9-.3 2.86-.24.9-.2 1.56-.58.97-.14 2.14-.4h1.04l.6.72-.6.55-2.6.2-.05.68-.85.4-.9.1-.92.24-.78.73zm35.58-7.33l1.03.87 1.7 2.25.13.32v.26l.06.2.44.08h4.2l.34.13.32.28.26.14.65-.24.46-.05.4.06.3.13.92.77.4.2.38.08.78-.1h.25l.45.24.58.35.52.5.2.5.25.1.65-.1.45.2-.25.82-.33-.14-.32-.1-.78-.04.32.27.65.6.32.54-.6.3h-1.35l-.58-.15.05-.46-.26-.2-.26-.08H583.75l.13.55-.52.5-1.36.7v.3l.65-.3.78-.2 1.55-.08.72.17-.33.46-.7.5-3.7 1.42-1.7.18-1.28-.5.25-.1.45-.27.4-.36.05-.37-.38-.23h-.46l-1.02.23-.26.1-.2.3-.32.3-.4.13-1.42.18-3.3.96-.7.46-.47.23-.57-.1-.52-.2-.44-.12-.45.1-.96.4-.46.14h-3.88l-.26.1-.2.3-.26.28-.4.14h-.5l-.9-.18-1.18-.37-.7-.47-.66-.64-.26-.8.4-.58.9-.37 1.1-.1.78.06.7.46.53.6.57.37.78-.28v-.32h-.33l-.2-.1-.12-.08-.2-.1.72-.18 1.88.23.7-.18.72-.37 2.85-.32 1.88-.78.84-.46-.27-.24-.84.14-2.47.78-2 .28-1.1-.05-.8-.4-.18-.46.2-.4.38-.33.46-.1.57-.08.32-.18.58-.87.13-.32.2-.28.32-.27.46-.1 1.42.1 2.53-.64.52-.23.26-.4v-.43l-.2-.36-.38-.23-2.65.8-.9.03-.33.14-.33.18-.38.05-.38-.18-.72-.88-.4-.36-.5-.32-.85-.28-3.88-.36-.86-.23-.7-.3-.6-.35 2.02-.83-.33-.37-.84-.55-.27-.5 1.56-.1.63-.17.65-.33.4.33.38.18h.32l.33-.17.14-.83 1.23-.5 1.62-.32 1.35-.1.58.23 2 .38-.12.18-.06.46-.06.18zm-22.3.87l-2.13.96-.7.14-1.04-.23h-.45l-.26.36-.14.46-.4-.23-.37-.52-.27-.4 1.16-.15 1.1-.6 1.87-1.7.52-.35 1.35-.55.97-.23 1.23-.6.72-.14 1.1-.13.45.13-.32.42-.4.4-.57.88-.26.32-.33.23-.32.2-.4.13h-.57zm-34.2-16.3l.33.22-1.22-.05-.32.17-.4.23-.3.23-.34.14-.32.1.26.36-.33.27-.64.2-.73.03-2.72-.27-.64-.2.07-.4.45-.4.72-.2.52-.18.2-.4-.14-.5-.45-.3 1.03-.4 1.04-.14.78-.37.32-1.14h.2l.12.1.26.22h.33l.2.05.2.1.18.13-.65.73-.26.14 1.36.4.4.2.2.27.12.32zm46.58-1.25v.32h1.1l-.58 1.5-.77.87-1.16.37-1.62.1-.7-.24-.73-1-.6-.23-.64-.14-1.3-.78-.77-.23 2.52-1.56 1.3-.6 1.6-.13 2.2.78.92.6zm-10.3-1.37l-1.36.1h-1.36l-1.1-.15.65-.32 1.42-.46.84-.14.45.28 1.05.15.52.18zm24.68-10.13l-1.36.32-1.1-.3-.97-.53-.25-.55 1.04-.37 1.4.18 1.1.6zm-59.78-4.86l3.75 1.43-.3.14-.33.05-.78-.2v.3l.9.12 1.3.65.96.08v.27l-1.16.37-.9-.28-.8-.4-1.74-.56-.84-.64-.78-.46-.97.28.26.13.26.18.25.18.06.23.14.3.33.1h.7l.97.28.2.1.5.5.66.18h1.3l.66.1.45.3.46.33.46.22h.64l-.2.6-.38.22-.52.14-.45.32-.25.37-.45.87-.33.37-.77.2-3.24-.47v.28l2.72.42.7.4.4.65.2.92-.14.8-.45.52-.72-.28-.78-.04h-1.62v.32l.7.04 1.5-.1.65.06.7.32.53.46.52.32.84.04v.28l-.97.55-3.5-.42-1.3.45-1.16-.78-.4-.45-1.1-2.2-.13-.7.26-.45v-.32l-.7-.55-.47-.18-.58-.1.52-.36.32-.28.6-.82.18-.4.07-.38.2-.27.57-.1.33-.56-.52-1.28-1.1-1.88.77-.36 1.95-.5zm2.52-3.24l.4.14h.38l.45-.05-.05.18v.05h-.07l-.2.1.4.13h.32l.4-.08.38-.05.26.05 1.16.5-.25.28-.6-.2-.96.47-.8.05.27.4.33.15h.97l.58.13.4.28-.07.27-3.63.6-1.1-.14-3.3-1.1-.46-.45.18-.82.6-.64.83-.38.98-.04.45.22.52.1.52-.1.52-.22zm54.87-.5l-.13.64-.7 1.23-.6 1.47v1.28l.33.28.58.68.26.7-.72.3-.72.2-.64.27-.65.15-.7-.28.05-.27.07-.14.18-.18-.52-.37-.06-.68.4-2.7.24-.7.72-.3 1.16-.1v-.27l-.26-.23-.26-.2-.32-.44.45-.28h.46l.83.28v-.33l-.58-.55.4.05.3.1.2.18zm.65-1.52v.7l-.65-.24-.26-.4.05-.56.52-.55-.2-.1v-.05l-.12-.18.32-.23.26-.18.32-.05.26.24zm-323.43-2.6h-.06v-.1h.07l.07.04zm272.25-2.48l.72.23 1.23-.38.58.23.58.04h.97l.78.22.32.5-.38.28-.72.7-.32.17-.58-.04-.4-.32-.32-.32-.25-.13-.46-.1-.97-.5h-1.88v.28l.46.04.32.1.06.18-.26.23v.32l1.17-.05.4.18.12.6.3.37h.66l1.36-.23-.84.9-.97.38-2.45.14-.33.03-.58.23h-.26l-.32-.13-.33-.55-.26-.14-.52.04-1.74.78v.32h3l2.45-.36.84.04.7.2.26.12.2.28-.13.27-.85.87-1.75-.1-.9.1-.65.33-.7-.33-1.44.1-.78-.1-.38-.13-.13-.14-.52-.46-.13-.23-.2-.23-.32-.22h.32l.85-.32-1.43-.04-2.52-.92-1.3-.18-.26.27-.26.18-.32.1-.33-.06-.5-.14-.66-.18-1.95-.73v-.28l.98-.37.64-.74.6-.83.63-.7.9.3 2.86-.3v.3l-.32.03-.77.23.7.55 1.24-.7 1.36-1 .98-.5v.23l-.25.15-.2.18-.45.55 2.33.5.84.05v-.27l-.26-.05-.57-.22.9-.23 1.95-.78 1.17-.1.5.38.2.4-.25.33zm36.8-2.02l.38.46.33.27 1.03.42.4.3 1.03.92.12.23 1.88.83.77.6.46.36.2.37.38 2.94.4 1.24.06.6-.12.6-.4.95-.06.55-.2.32-1.1.6-.38.36.45-.23.7-.27.8-.2.57.15.4.42-.27.42-.45.36-.2.23.2.7.58.45.65.27.26.32-.33.37-1.43.46-.52.32 3.57-.28.96.14.2.37-.53.36-1.03.3v.26l1.1-.04.97-.28.84-.04.92.5.4.2.57.03 1.03-.1.64.2.4.36.25.4.26.23.65.05.4-.23.18-.28.27-.13 1.75.04 1.17-.64 1.15-.28h1.23l.7.55h3.12l-.64 1.07v.27l.2.46-.2.4-.33.33-.84.65-1.5.68-.65.2-1.68.08-.26.27-.12.93-.4.6-.83.36-.9.27-.4.23-.32.32-2.46 1.88-.7.36-.8.32-2.2.23-.58-.13-.4-.54.13-.74 1.1-.92-.12-.37v-.27l.26-.1.13-.13.2-.36.12-.2.26-.2.77-.8.4-.27.45-.27 4-1.1v-.28l-1.15.32-1.17.23h-3.56l-.2-.1-.06-.22v-.32l-.13-.23-.97-.9-.58-.38-.46-.14.13.4.2.38.5.64-.44.6-.25.32-.45.23.32.32-.52.32-.4.45-.37.46-.6.14-.5-.32-.26-.73-.2-.84-.06-.64-.32-.23-.26-.05-.2.04-.3.22-.34-.27-.32-.2-.4-.08-.44-.04v.27l.64.32-.7.28-5.97.87v-.32l.5-.23 1.24-.92v-.27h-.78l-.7.1-.72.22-.65.27-.85-.7-.58-.76.45-.1.4-.18.3-.23.27-.32-1.95.1-.72-.1-1.94-1.47-.14-.13-.2-.42-.12-.12-.26-.2-.13-.12-.2-.14-.12-.28 1.94-.73.84-.22.92.1.77.36.7.5.9.42 1.12.13-.52-.56-2.66-1.2-.52-.35-.26-.1-.5-.1-.47.1-.9.18h-.53l.58-.28v-.27l-.32-.05-.85-.27.33-.04.14-.04.13-.2-.4-.08-.25-.23-.13-.35.18-.46-.58.08-.84.6-.58.18.26-.37v-.42l-.13-.37-.38-.3-.33.54-.52.18-.46.1-.4.36-.05.46.45.78-.13.46-.66.32-3.88-.7-.97-.36-.8-.5-.3-.6-.4-1.1-1.75-.73-.46-.9h2.6l-.6-.37-.4-.46-.05-.5.32-.55.6-.46.37-.1.4.14 2.26 1.8.26.36.4.27.7.32.58.05-.26-.5v-.28l.2-.1.13-.13.27-.05-.78-.5-.07-.1-.13-.14-.4-.26-.06-.2.07-.17.4-.1.13-.13.32-.18.7.04 1.24.33-.4-.78-1.03-.65-1.3-.45-1.03-.2.5-.4.47-.6.07-.6-.45-.36v-.33h.84l.65.32.46.36.9.32.2.37.07.36.06.3.45.26.25.14 1.95.55.45.23.45.4.65.33h.52l.58-.17h.72l-.98 1.24.46.04.9-.58.46-.83.58.13 3.18 2.3v-.28l-.2-.14-.2-.27-.2-.18v-.55l-.57-.55-1.43-.92-.7-.87.2-.4.5-.42.52-.87-.45.04-.53-.03-.4-.14-.3-.14.18-.6-.2-.32-.38-.28-.2-.27-.06-.46.14-.18.26-.06 1.68-.55.26-.2.4-.5.25-.5.3-.28.53.14.33-.1.13-.04zm-35.96-.5l-1.23.32-.97-.1 1.75-1.05.8-.08.38.46zm-58.62-3.85l-.9.08-.85-.32-.46-.87.65.3 1.54.1.72.18zm65.82-4.55v.92l-.46.18-1.5-.55-.18.5-.26.28-.46.14h-.58l.13-.32v-.1l-.06-.04-.08-.14 1.75-.92.9-.22zm5.7-14.16l1.36.82.45-.14.4.23.3.24.27.32.2.36h-3.5v-.27H536.9v-.28l-.52-.13-.4-.42-.18-.5.26-.4zm27.9-4.32l.53.14.64-.04v.32l-.9.23-1.9.77-.63.42.2.36-.06.28-.33.18-.5.05-.52.12-.4.6-1.22.28-.13.27.13.37-.07.32-.4.23-.45.08h-1.17l.78.7 1.56.2 1.68-.03 1.17-.28 2-1.2.65-.17.78-.14.45.05-.4.28v.28h.27l-.2.23-.2.22-.18.13.13.2.2.4-1.1.27-.4.14-.32.18-.4.42-.12.13-.78.18-.58-.05-1.23-.46-.7-.1-1.9.1-.64-.1-1.3-.45h-.64l.97 1.52.45.5-.32.18-.13.14v.23l.2.3-.72.33-2.13.23-1.42.96-.58.2H552l-.57-.24-.45-.05-1.1.6-2.2.32-.65-.05v.28l1.55.04 5.44-.73 1.3-.42.58-.05.52.23.45.4.2.56v.55l.12.05.38.23-.26.23-.38.18-.33.1-.44.04.45.18.53.1.52.04h.52l-.78.46-.6.45-.64.37-.97.14-3.96-.37-.9-.18h-.2l-.26.3.38.2.85.18.72.36 1.42.23.65.4v.33l-.46.14-.65.7-.33.26-.78.28h-.53l-.52-.18-.77-.1v.33l.2.04.18.14.2.1v.32l-.97.23-.8-.05-.64-.32-.52-.45-.4-.6-.18-.23-.4-.1-.18.24.2.46.38.55.32.27-.25.23-1.37-.37-.38-.18-.26-.23-.26-.5-1.1-1.24-.33-.6-.13-.6.65-1.1 1.23-.6 1.5-.26 1.55-.05v-.27h-4.02v.27l-.18.46-.98.7-1.16.58-.84.28.58.46.84 1.28.45.23.6.2.52.3.38.43.4.27-.2.1-.2.08-.2.1-.3.04.3.28.33.1.33.08.2.1.12.27.2.87-3.44-.46-1.5-.46-.38.14-.2.23-.18.27-.4.28.53.18.85.23.4.14.96.9.2.3-.26.3-.52.2-.77.08-.72-.04v.28h.26v.28l-.9-.1-1.96-.77-.32.3.26.1.32.32.33.14-.52.4-.44.28-1.1.5.2.05.25.13.14.1-.84.45-2.53.96-.78.46-.33-.1-2.14-1.36-.4-.1-2.5-1.74-.47-.18-.2-.27-.32-.33v-.27l.65-.1.5.05.33.2.26.35.12.5 3.44-1.7.5-.5.98-.13 2 .05-2-.87v-.28l2.14-.64 1.23-.18 1.24.18.85.32-.4-.18-.4-.2-.38-.17-.13-.1-.14-.13.78-.27.4-.05v-.27h-2.47l-.6-.14-1.1-.65-.57-.14-2.46.1-1.1-.23-.33-.7-.57.24h-.33l-1.94-.77.65-.32.53-.35.52-.23h.84v-.23l-.14-.1v-.05l-.07-.04-.07-.13 1.23-.1 1.42-.27 2.53-.78-3.94.6h-1.23l.2-.4.32-.2.45-.04.45.04v-.27h-1.16l.38-.14.32-.17.26-.23.2-.32-1.82.68-.32.05-1.23-1.36-.34-.23.2-.5-.26-.18-.33-.1-.2-.18.14-.55.46-.37v-.42l.33-.08.18-.1.06-.13.2-.23-.26-.1-.32-.13-.2-.1v-.27l3.1-.1.85-.18-1.1-.28-.38-.23-.2-.5.07-.52.25-.32.84-.5.58.27 1.62.46.32.04.32-.2 2.27.6v.28l-1.22-.04.33.6.85.73.52.33-.07.64.45.87.65.78.52.4-.06-.36v-.22l.06-.55-.26-.3-.65-.72-.25-.4.46-.2.14-.27.06-.3.13-.1 1.88-.28.4-.18.7-.1 1.1.28.98.55.52.6 1.1-.88-1.03-.37-.33-.23-.2-.23-.2-.7-.18-.22-.26-.04-.65.1-.26-.05-.07-.1-.13-.36-.07-.14-.5-.37-.2-.24-.2-.23.2-.1.2-.08.18-.1h.33l-.25-.3-.2-.2-.26-.1h-.45l3.43-1.6.84-.68.52.18.33-.13.25-.2.38-.12h1.43l1.1-.2 2.66-.72.32-.18 1.1-.74 7.45-3.07 2.06-1.43 1.17-.6 1.04.05.84.46.72.78.58.78.2.7.7.67.14.43-.7.23-.34.22-.97 1.75.33.27zm174.78 106.86l-1.88.4-.26.1-.2.14-.12.32-.13.65-.13.18-.2.23-1.03.64-.2.1-.66.17-.25.1-.4.27-.46.14-.2.14-.12.18-.2.32-.2.28-2.32 1.97-.26.18-.45.14-.6.03-1.62.05-.5.1-.27.08-.12.1-.07.18v.18l.08.18.13.1.14.13.64.23.2.05.06.2v.13l.13.14.13.13.52.28.13.14v.13l.06.14.14.3.72 1.06.64.74.6.46.44.5v.14l.07.14-.06.04v.18l.07.14.07.14.97.78.13.14.13.1.07.17v.14l-.07.18-.2.23-.45.32-.5.32-.86.32-.52.14-1.17.14-.57.27-.4.27-1.22.32-.32.13-.26.32-.13.23-.2.36-.2.23-.38.23-.78.28-.4.04-.25-.04-.14-.14-.45-.2-.2-.03-.57-.04-1.03.1-.46.13-3.76 1.92-2.26 1.6-.52.28-.2.13-.12.14v.32l.13.17.13.14.07.1v.1l-.07.13-.06.37-.2.18-.2.14-.57.14-.7.32-1 .9-.5.47-.9.5-1.18.47-1.8.5-.8.14-.57.27-1.17.96-.9.82-.13.14-.33.23-.32.12-1.36.37-.2.13-.7.9-.2.1-.2.14-.64.05h-.33l-1.62-.5-.2-.05-.25.1-.13.17-.07 1.1-.06.2-.58.67-.13.75-3.57.55-13.34-.55-.7-.14-.66-.17-.65-.14-.57.13.13.1.06.03.07.2-.72.17-.65-.14-1.23-.65-.52 1.15.32.45.2.83.06.92-.06.68-.46.7-.7.22-3.9-.23-1.1.1-.9.86-2.98-.27.13.23.18.08-.4.18-.3-.04-.27-.2-.18-.26.45-.5.2.1.2.17-.08-.32-.07-.13-.13-.14-.52.5-.65.33.2.46.13.18h-.33l-.58.27 1.42.83-.38.23-2.22.55-3.24 1.46-2 .14-1.3-.04v-.32l-.2-.05h-.12l-.13-.1-.14-.08.13-.15.12-.14v-.03l-.07-.42.2-.55-.13-.4-.6-.15v-.23l-.57.33-.52.6-.13.72.4.65-1.63.18-2.13-.83-1.5-1.42.4-1.7-.65.24-1.05.77-.65.18-.65-.05-3.1-.87-.46-.23-.4-.27-.4-.6-.18-.45-.32-.33-.65-.1-.26.2-.33.4-.26.56-.12.47.4.96.3.6.27.27.65.05.64.1.52.22.52.36.13.55-.38.46-.2.55.6.6-.53.58.12.87.2.83-.26.32-.26.1-.2.17-.26.23-.45.1-.98-.1-.84-.23-1.1-.46-.4-.12-1.48.04-.33-.18-2.46-2.15-1.35-.8-5-1.78-1.86-.32-.92-.32-.78-1.2-.84-.22h-1.62l-1.04.27-.9.46-.85.5-.64.5-.38.4-.13.24-.08.23v.27l.07.37.25.52.26.4.46.2.26.45.52 1 .65.97 1.22.6v.36l-.2.78-.06.37.06.23.52.68-.9-.13-1.82-.6-.84-.1-.4-.3-.25-.65v-.7l.52-.4-.33-.23-.2-.28v-.32l.2-.32-.77-.04-.33-.06-.32-.18-.13-.37-.2-.6-.25-.56-.46-.22-.84-.23-3.95-2.8-1.23-1.25-.78-1.5-.2-1.66.14-1.52.25-.78.6-.32.9.05.45-.05.2-.14.2-.5.44.23.4.46.12.23.65.6.33.4.2.46.06.46-.08 1 .13.37.6.46.7.38.7.1.8-.47.12-.17.13-.14v-.28l-1.5-1.74-.2-.42-.12-.32-.06-.04-.58-.87-.13-.46.07-.96.07-.27.2-.37.7-1 .33-.55.06-.86.4-.78.77-.46 1.75-.64 2.72-2.16.2-.1.45-.03.06-.14v-.64l.97-1.43.2-.37v-.4l-.13-.93.13-.4.2-.24 1.42-1 .7-.38.4-.22.2-.42.38-1 .4-.45 1.35-.7 2.78-.77.98-.82.38-1.15-.38-1-.98-.73-1.55-.28.9-.8v-.03l-.2-.87-.9-.87-1.23-.6-2.33-.55-1.3-.04-.45-.14.33-.4v-.33l-2.4-.87-1.36-.74-.85-.64 1.88-1.15.64-.9-.2-1.4-.25-.5-.26-.36-.2-.45-.25-1.78v-.05l-.2-1.14.27-1.1.65-.74.9-.5 1.3-.28.85-.1h.5l2.67.75.7.05.53-.1.9.33 6.94.6 1.04-.37-4.53-.54-1.67-.23-1.82-.64-2.12-1.52-1.7-.37-.77-.45-.63-.55-.52-.55-.52-1.23-.07-.23-.58-.1-.2.32v.45l.27.5 2 1.7.46.74-.25.37-.78.05h-1.03l-.98-.23-.45-.6-.12-.74-.06-1.6.06-.37 1.62-2.4 2.98-2.7.2-.6-.2-.17-.45.18-.6.47-2.38 2.8-.6.5-.9.04-.32-.3.07-1.34-.2-.55-.4-.4-.57-.14-.58.4.52.75.58 1.47.32 1.47-.06.64-.57.1-.07.3.13.9v.8l.12.56.2.46-.6.18-.57-.14-.7-.18-.73-.14v.28l.52.18.58.18.46.33.2.5-.2.6-.4.4-.5.32-.33.36-.2.5-.13.42-.2.4-.38.43-.58.36-.52.04-1.3-.14-.7-.5-.6-1.06-.38-1.2-.2-.8-1.68-1.3-.2-.5-.32-.37-.64.32.64.68 1.56 2.25.32.87-.32.4-.78-.13-2.8-1.28-.37-.56v-.87l-.46.32-.3.54-.27.6-.13.4-.2.33-1.22 1 1.03 1.2.4.64.32.74h-.77l-1.82-.6-1.42-.27-.45-.32-.25-1.05-.26-.2-.33-.08-.3-.18-.14-.32v-1.15l.13-.32.38-.46.06-.37-.06-.37-.52-1.24 1.04-.64 4.6-4.5 2.4-.58 1.74-.74.4-.27 1.48-1.94.7-.55 1.24-.45 1.62-.4 1.5-.6.77-1.1-.7.27-1.57.96-.7.23-1.7.1-.7.14-.66.32-.45.55-.97 1.48-.45.27-5 1.93-3.42 2.98-.4.13-.77.04-.32.1.06.22-.26.6-.26.5-.13-.04-.4.45-.9.2-1.03-.06-.78-.13v-.59l-.13-.23-.3.1-.14.22v.5l-.26 2.3.13.1.65.17h.2l.45.87.13.47.06.4.13.33.52.28v.27h-.26v.28l.14.04.45.23-.2.1-.2.08-.2.1 2.28 1.42 1.1 1 .32 1.06-.26.6-.58.27-1.43.27-.64.23-1.9 1.24-.5.4-.4.47-.26.5-.13.37-.12.74-.06.33-.9.4.06.2.2.17.06.14-.07.96.4.23.5.1.33.4-.26.56-.7.18-.46.24.26.78-.9 1-.27.42v1.01l-.07.32-.13.04-.2-.03-.18.1-.92 1.4-.65.56-.97.32v.28l.52-.05.4.1.38.22.38.32.72.96v.2l.5.26-.44.6-1.36 1.14-.7.42-.8.36-.96.28-.97.1-.4-.06-.83-.23h-.46l-.45.1-.98.4-.45.1-1.24-.05-.77-.13-.4-.5-.5-1.84-.07-.92.18-.8 1.17-.56 1.62-1.1.38-.4v-.88l-.2-.97-.06-.97.58-1.2-.2-.3-.26-.3-.13-.3.12-.47 1.04-1.23.84-1.47.2-.87-.46-.56 2.27-1.1.27-.5.26-.55.65-.75.7-.6.6-.27 1.16-.32 1.5-.73 1.28-1.1.78-1.28-4.08 2.6-1.5.7-.5.13h-.53l.25-.55-1.16-.23-.53-.22-.58-.42-.34-.55-.06-1.13-.2-.32 1.75-1.52.26-.32.27-.54.65-.45.78-.4.64-.46-.97.27-1.42.97-1.1.32-.78.4-.33.05-.32-.27-.26-.5-.06-.47 4.53-4.02.4-.5-.2-.2.25-.17.26-.17-.58-.14-.52.13-.58.32-.65.23-.25.78-1.8 1.14.05.96-.7.74-.14.14-.45-.1-.12-.23.06-.3.2-.24.2-1.14 1.55-1.7 3.16-2.56.13-.2.05-.17.07-.2.32-.04h.26l.33.1.25.13v.04l.13.1.34.13h.32l.07-.23-.2-.28-.26-.18-.26-.1-.12-.04-.25-.7-.07-.3.13-.33 1.35-1.13.26-.42.27-.55-1.23.2-.97.67-.85.7-.97.45.26-.87.6-.83.7-.82.78-.7-.38-.54.5-.4.92-.33.84-.1.46-.13.06-.32-.26-.32-.58-.14-1.75.32-.33.14-.4.27-.45.23-.38-.04-.26-.37.13-.5.46-.87.52-1.56.4-.55.76-.47.78.23 1.17-.05 2.06-.5v-.22h-.97l-1.83.37-.97-.14.85-1.36.32-.33.45-.17.6-.14.3-.2-.18-.36 1.03-.82 1.43-.37 4.2-.23 3.38.55 1.42-.18 1.1-.56 2.66-2.02 1.36-1.74.9-.68-.9.32-.6.6-.44.73-.65.64-1.68.86-.97.9-.46.3-1.8.08-4.48-.55-1.16.6-.65-.3-.72-1.6-.5.14-.52.37-.78.93-.58-.28 1.5-2 .18-.6 1.04.6 1.04.17h.9l.78-.18 2-.87 1.04-.28.6-.2.38-.4-1.36.5-.52.05h-.97l-.72.32-.44.1-.9.45-.53.04-.5-.14-.66-.4-.58-.05.1-.32.14-.14.2-.04.26-.18.2-.23.12-.32.13-.18 1.1-1.15.33-.27 1.75-.88.25-.27.26-.28-.84-.32v-.27l.4-.13.9-.46 1.1.1.52-.04 1.23-.6h.97l1.8.28.85-.14 1.62-.6 3.43-.4.7-.28-6.92.82-3.23-.87v-.23l.4-.6.25-.22 2.85-1.7.77-.68.65-.83-2.47 1.25-.32.32-.2.27-.44.23-.52.2-.45.03-.34.14-.13.27-.13.43-.12.32-.52.6-.6.36-.57.2h-.8l-.3.08-.46.37-.85.23-.33.23-.52.5-1.16.84-.66.27-.84.1-.46.14-.58.78-.4.18-.57.1-.46.18-.46.32-1.68 1.37-2.8 1.84-2.84 1.3-.26.08-.4-.18-.44-.55-.45-.1-.7-.08-.78-.2-.7-.26-.53-.36.57-.64.2-.37.06-.4h-.26l-1.62 1.18-2.53-.26-6.2-2.84-.27-.37.06-.64.4-.33.65-.14 2.07-.05 1.43.14 1.36.4 1.17.6.33-.27-.98-.45-.45-.28v-.4l4.4-1.66 1.04-.1 2.67.8 1.03.08 2.27-.1 1.23-.18.84-.32-3.88.32-.9-.1-2.15-.77-1.67-.24-4.6 1.38-1.55.27h-.46l-.52-.12-.97-.37-.52-.04-2.9.1-3.1-.46-1.05.04-.84.46-.7.28-1.04-.14-.97-.28-.6-.32-.2-.23-.18-.22-.13-.22-.08-.28.13-.4h.2l.26.03.33-.08.9-.78.53-.27 6.47-.37.52-.14 1.43-.6.65-.13.7.1.4.22.38.28.66.27 2.2.55.4.14-.07-.47-.2-.4-.46-.33-.7-.1v-.27l.5-.04h.53l.45.12.45.2.65-.43.9-.2 1.1.2.85.13-3.17-.87-.78-.55-.07-.45.6-.32 4.33-.32 1.75-.4 1.36-.78-.6-.14-.77.05-.65.18-.7.74-.86-.04-1.62-.23.33-.4 1.68-1.02-1.87-.18-3.95.45-1.94-.27 1.42-.23 1.5-.05v-.32l-.33-.1-.84-.5.7-.45.45-.87.4-.96.45-.83.7-.55 1.24-.47 1.23-.23 1.1.1.4.27.83.83.52.32.58.27.65.17 1.36.1 2.28-.28 2-.56v-.32l-.7.14-.65.23-.65.08-.52-.14-.97.32-.92-.14-.84-.32-.9-.18-.6-.23.14-.56.06-.55-.9-.37-.4.04-.83.18-.45.05-.45-.1-.7-.4-.47-.05-.45-.32.65-.7 1.75-1.23.5-.45.27-.2h.52l1.23.06.46-.17.7-.23 1.05.23 1.82.73.84.23 4.08.03.26-.13.32-.32h.65l.72.1.3.08h.27v-.32l-.84-.28-3.5.32-.97.23-.6.06-.25-.18-1.1-.74-.44-.23-3.5-.58-.52-.4.26-.75 1.5-1.14.5-.6-.77-.7 1.04-.8 1.75-.6 1.42-.2 1.36.56 1.3.86 1.42.6 1.7-.28v-.27l-1.76-.22-.4-.23-.64-.6-.38-.27-.46-.14-.4-.28.6-.6.97-.6 1.03-.22v-.32l-1.03-.23-.7.32-.53.55-.46.22-.77.13-1.44.6-.84.13-.9-.04-1.56-.4-.84-.1-1.82.32-.84-.05-.4-.6.2-.14.98-1.3.32-.17.9-.33.4-.23.4-.18.24.18.26.28.2.13.97-.1 4.73-1.18 1.88-.96.32-1.18-.7-.1-1.1.65-1.96 1.46-1.1.46-.97-.1-.97-.28-1.23-.1 1.03-.35.33-.28-.08-.38-.4-.5-.05-.27h-.2l-.64.36-2.8 2.03-1.1.27-2.2.2-.96-.24-.72-1.7.13.05.2-.04.2-.14.06-.13-.07-.15-.4-.32-.12-.14v-.56l.13-.27.46-.28-.4-.15-1.3-.23-.3-.1-.07-.45-.4-.73-.06-.5.08-.32.58-.7.2-.27V269.9l.2-.3h.64l-.07-.2-.13-.45-.13-.23.78-.14.7.1.72.22 2.27 1.28.7.28.4-.18.72.6.38.17 1.23.46.46.1-.2-.22-.13-.23-.13-.23-.12-.2 3.04-.26 1.67.14h1.04l.14-.28-1.23-.6-1.93-.22-1.82.13-1.16.55-1.44-.9.2-.15.38-.4-1.42-.15-.7-.64-.53-.83-.8-.67-.64-.14-.64-.06-.52-.13-.26-.54.26-.5.84-.5-.26-.38v-.32l1.62-.5h.78l1.23.73.53-.06.45-.32.32-.46-.45-.04-.32-.23-.26-.3-.46-.26-.44-.14-3.5-.46-.13-.45.2-1.1-.07-.47.13-.37-.4-.82-.06-.55.2-.47.32-.37.38-.36.6-.23 1.02-.23 1.1-.05 1.1.22 1.04.32-.2.6.14.82.32.83.33.63.37.4.6.33.64.18h.65l-.32-.22-.2-.2-.32-.5.53-.04.45.1.78.27-.26-.83.13-.6.07-.54-.6-.64-1.54-.83-.6-.45.47-.45-.33-.05-.13-.05-.12-.18.38-.4.98-.7.4-.32.58.4.45.15h1.55l-.25 1.15 1.16.87 1.74.5 1.36.1-.26-.33.46-.37.5-1.2.4-.4h.6l1.86.46.6.23 1.15.78 1.44.46 3.04.64-.65-.6-.45-.27-1.23-.28-1.88-1.02-2.65-.68-.33-.14-.07-.28-.13-.1v-.08l.2-.27.25-.05.33.18.25.05.26-.5.77.28 1.17.92.97.27.46-.04.78-.23.45-.05.5.1.98.4.4.05.5.18 1.56.83 1.75.47 1.22 1.14.85.3-.26-.24-.25-.37-.26-.42-.14-.28-.2-.27-4.2-1.97-.98-.14v-.32h.78l.32-.32-.06-.46-.33-.55-.52-.23-1.36-.14-.6-.32-1.22-.13-1.75-1.2-1.1-.13.13-.1v-.04l.2-.1-.6-.5-.83-.13-1.75.04.13-.2.13-.13.13-.14.2-.13v-.28l-1.38-1.33.78-.6 1.62.27.97 1.1.9-.4.9.13.9.1 1.05-.7H603l.2-.4v-.38l-.27-.36-.26-.28h.58v-.32l-.84-.27.53-.24 1.23-.2.52-.12v-.33l-1.36.06-.65-.1-.6-.22.34-.27-.32-.23-.38-.14-.33-.14-.4-.1.08-.17.13-.52.06-.18h-.52l-.38-.14-1.95-1.6v-.7l.7-.13.98.23 1.75.64.7.14.72-.14 1.62-.6.9-.13.9.05.92.36.3-.27.53-.27.6-.23.37-.04.78.14 1.23.6.6.08 2.07-.1.65.1 2.9 1.2-.44-.46-.46-.23-1.16-.52.58-.23 1.17-.1.6-.22-2.67-.27h-.84l-.33.1-.46.36-.44.1-.45-.1-.83-.37-.46-.1-.64-.22-1.23-1-.4-.2-.05-.18-.78-.64-.2-.08-.32-.5-.13-.32-.06-.32h.83l-.45-.42v-.46l.32-.4.4-.42.06-.23-.07-.27v-.23l.12-.1.32.05.6.14.25.04 2.38.92 1.75-.05-1.16-.5-.4-.27.14-.32-.25-.33-.4.23-.38.1h-.97v-.33H611.28v-.27l-.32-.05-.13-.08-.4-.18 2.28-.73 1.04.28 1.3.46-4.6-2.16v-.73l.07-.36.33-.2 2.2-.73.65-.37.45-.64h-.26l.33-.82.13-.87.32-.74.65-.46 5.44.65.97.36.72.5.07.24.18.64.26.55.13-.04-.06.5-.12.37-.13.28-.33.33.78-.32.33-.36.12-.46v-.4l.13-.65.4-.23.25-.32-.26-.7.78.33 1.3.93.7.18 1.17.5.52.06.46.18v.32l-.13.42-.2.23-.52.37-1.5.78-.7 1.06-.78.78-.45.55.78-.04 2.52-1.48.4-.14.25-.64.7-.27.86-.23.77-.4.46-.75.26-.74.38-.6 1.04-.22 1.82.18 1.74.4 2.08.8v.3l-.07.15-.05.04.13.43-.97.6-.64.77-.52.87-.78.92.7-.2.73-.36 1.15-.87.07-.2-.07-.17v-.18l.13-.05.2-.04 1.68-1 .13-.1 1.6-.6 1.18-.27.38-.05.85.2 1.24.6.97.13-.57-.32.38-.18.27-.23.2-.24.32-.18.45-.04.77.22.6.05.37-.08.32-.55.45-.14h1.62l.83.14h.4l.45-.14.38-.32.52-.68.4-.13.38-.06.06-.05.07.1.77.8.2.1.96-.1 3.56.33 3.56-.32 1.8-.45 2.93-1.14 1.54-.4 2.66-.23h1.3l.96.22-.38.22-.2.1 1.04.45 1.16-.04 2.4-.4 2.33.54h1.18l.52-.88-.72-.14-.7-.32-.72-.42-.46-.55.98-.68.64-.24.65.04.2.23.13.4.13.38.32.15h1.3l2.72-.46 1.68-.1 2.2.87h1.36l2.8-.32 1.42.32-.26.78-.84.87-.2.6-.45.36-.64.78-.4.32-1.03.55-.32.28-.46.83v.7l.4.5.9.27h.52l.45-.14.38-.1.4.24.12.5-.2.37-.4.23-.44.1-.4 1.46-1.8 1.87-2.2 1.74-1.56.97-1.75.5-3.7.7-1.48.5-2.2 1.18-.4.42-.3.68-.8.7-1.74 1.05-9.2 4.03-3.1.82-.8.4-.37.47-.4.86-.25.28-.32.23-1.1.32-1.3.13-2.65 1-.45.14-.26.28-.13.32-.07.46-.65-.23-.2-.1.26-.27-.58-.14-1.1-.1-1.17-.37-.2.14.13.37.32.36.65.23 1.3.05.64.18.26.2.9.8-.83.8-.2.4.13.5-.65-.04-1.23-.23h-.64l-.4.13-.7.55-.33.18-1.17-.04-2.46-.65-1.16-.18-3.37.45-.92-.32-1.36-1-.78-.42-.84-.13 2.2 1.8 1.36.58 1.56.2 1.68-.47.9-.05.72.37.72.46 1.03.36h.65l-.2-.68 2.66.96 1.5.23 2.32-1 1.36.17.72.5-.52.56 1.36.23 1.55-.43 1.5-.73 1.16-.96.65-.37.5.06.27.4-.13.7-.32.36-5.7 4-.9.4-1.1.92-.6.32-.83.1-.65-.2-.2-.4.52-.65-1.1-.58-1.5.27-3.23 1.6-.57.14-1.04.04-2.73.4-.77-.08h-.72l-.32.5-.26.56-.65.27-.58.14-2.72 1.5-.4.3-.3.4-.4.64.26.06.52-.23 1.3-.32.58-.32.6-.4.44-.42.52-.4 1.88-.6 1.62-.92 1.8-.5.33-.05.5.12.53.37 2.14.26.9-.04.65-.28.52-.32 1.88-.6.58-.04.26.5-.9.88-1.24.82-1.16.5-1.5 1.3.14.22.13.13.13.1.2.1-1.95.13-.84.22-.7.5.38.42-.26.05-.97-.2h-2.26v.33h1.17l.6.05.5.23-.77.96-.45.4-.45.33 1.5.23.76.05.84-.28.7-.45.27-.28.07-.1.97-.04.4-.13.77-.65.66-.32.64-.23.6-.1.77-.17-.52-.46-1.56-.78 1.16.05 3.88-.33 4.02.23 1.3-.23 6.34-2.57 2.53-.32-.32.46-.2.18-.3.23.5.23.52-.05.6-.13.64-.05L673 265l1.5.33.85.04.84-.1.57-.22.65-.46.4-.56-.2-.5.38-.4.4-.06.38.14.52.04.58-.1 1.1-.35.52-.1 5.18.1 3.1 1.15 5.52 1 1.87.06 1.7-.3 2.58-1.02.65-.14h6.67l.26.14.45.36.4.14.44-.1.4-.13.32-.04.45.28 1.42-.4 3.56.68 1.3-.05.7.6.33-.1.27-.3.58-.2.7.06 2.02.55.33-.3.32.08.32.18.46.05.52-.13.7-.37.4-.1.77.3.5.08.27-.23.13-.23.26-.23.4-.15.38-.1.84.1 1.88.6.84.14 1.1-.1 2.46-1.06.72-.05 4.6.04.06.18.26.37.32.36.4.23.5.03.72-.32h.46l.32.2.45.54 3.57 2.16.38.73.13.73.26.78.66.64v.28l-.2.5.46.46 1.17.73-.6.05-.26.32v.37l.4.17.5.1-.25.27-.98.46-1.68 1.23-.78.78-.07.56-4.4 2.25-1.05.92-2.72 3.9-.97 2.15-.26.87.13.78.78.32.14.37-.65.8-.08.03-3.75 3.3-1.3 1.52-.58 1.5.12.37.26.23.2.32v.5l-.2.24-.78.56-.13.23-.26.72-.64.5-1.42.6-1.1.92-1.04.96-.7.46-2.34.82-.65.37-.77.46-.4.46-.18.23-.45 1.83-.52.55-.6.4-.37.6v.37l.26.55v.23l-.25.32-.7.46-.46.7-.65.45-3.96 1.56-.7.93-.85.32-1.63.46-.33.33-.84 1.1-.4.1-.3-.1-.34-.2-.5-.08-2.28.2-9.9.8h-.2l-1.63.42-1.42.64-4.4 2.5-1.75.4-1.82-.32.52.37.7.18h1.83l.85-.14 1.75-.6 1.62-.23 8.35-2.38.46-.3.38-.36.92-.32 1.04-.13.7.26.72.4 1.5.06.5.55.08.78-.33.78-.52.6-.7.45h1.04l.2.1.12.6.13.13.44.14.4.05.25.08.32.28 3.82.18.9.27 1.43.75.32.1 1.55.77v.23l-2.27 1.23-.7.83-1.05.28-2 .23-2.66 1.07-.9.13-1.04-.1-2.6-.77h-2l-1.04.14-.4.32-.32.36-2.27.9-2.32 1.48-.65.23-.84.18-.47.46-.58 1.4-.52.63-.58.23-2.9.1-.86.22-1.5.55-1.62.4-1.68.2-1.62-.1-6.8-1.1-3.7.05-1.6-.32-1.5-.6h-.07l-1.48-.82-.84-.64-.58-.23h-.84v.27l2.46.96.4.32.3.14 1.44 1.42.25.32.34.1.84-.1h.26l.32.23.2.28.26.24.52.13 2.33-.32.97.05 7.2 1.1h1.93l.78-.2.4.06.44.32.7.37 7.58.32.33.14.78.6.2.14.58.1 2.6-.2 3.17-.77.97-.46.7-.63.72-.55 1.04-.05-.26-.5-.06-.18-.2-.2.7-.36 1.3-.87.85-.2 7 .3.83.17 1.16.96.77.28-.4.68-.25.23.65.1 1.04-.1.66.22.13-.13.44-.24.26-.2.65.38 1.68.7 1.62.26 2.66 1.24 1.82.6 6.74.73.38.1.2.36.06.36.13.3.33.15.9.18.78.55zm-36.15-126.3l-1.17.43-.26.18-.07.37.26.27.07.22-.52.28.46.68.2.55-.33.46-.9.3-2-1.13v-.28l.57-.33-.45-.64-1.3-1.05.52.18.52.04.5-.04.46-.18v-.33h-2.85v-.27l1.63-.37 1.88-.17 1.9.1.96.22zm-15.1-3.15l2.2 1.78-.58.23v.33h.52l.32.14.6.4v.28l-.8.05-.96.18-.9.37-.46.6 1.23-.05 2.46-.64 1.16.1-1.04.82-2.08.32h-3.88l-.26-.23-.78-1.06-.2-.35-.38-.23-.52-.2-.4-.22-.83-.82v-.27l.13-.18.13-.18-.27-.23-.26-.04-.52.23-.2-.05-.38-.2-.45.06-.33-.04-.14-.4.65-.83.08-.14.97-.52 1.8-.36h.53l.65.23 1.42.73.97.14zm3.76-10.32l1.5.74h.5l.52-.14h.46l.45.18.64.5.4.14-.6.23-.25.05.76.46 2.4.73-.32.05-.13.04-.12.18.2.1.18.1.2.08-2.53.5-.32-.1-.38.7-.84.64-.97.4-.7.15.64.3.78.17 1.62.14.58-.27.65-.55.7-.27 1.63.8.58-.1.52-.28.6-.18.7.22.45.42.45.23.72-.3-.13.2-.08.47-.13.23.9.1.7-.24.66-.32.78-.13.97-.04.4.1.2.22-.27.46-1.68.64-.65.32.52.55.58.32.72.14.77-.08-.6-.87-.25-.32h.78l1.42-.5.65-.1.58.18.26.34.07.5v.6l-.32.32-.84.22-1.55.2-.6.17-.97.96-.65.3-.64-.06-3.18-.68-.52-.23-.38-.37-1.56-1.7-.32-.27-.52.04-.58.4-.65.37-.78-.08-.45.2-.4-.06-.38-.1-.58-.04.65.6-1.3-.05-.53.14-.2.47-1.03-.23-2.53.23-1.02-.55-.46-.92.13-.9.52-.8.65-.6v-.26l-.32-.23-.2-.27-.2-.32-.12-.3-.46.17-.32.2-.06.22.25.26v.28l-.4-.14-.32-.05-.4.05-.3.14.38.18.13.27-.08.3.13.1.2.56-.33.36-1.03.5v.28l-1.44-.27-1.23-1.1-.58-1.38.65-1.23.32-.33-.26-1.88 1.1-1.24 1.88-.7 2-.17 2.02.05zm22.67-.4l-.13.13h1.17l.5.05.4.23-.58-.1-.46.24-.07.37.45.4.52.05.6-.1.96-.27v.18l-.07.1-.13-.05-.13.1-.26.46.27.27 1.17.37-.78.4-1.8.2-.85.27-.12-.96-.6-.45-.83-.1-.78.33.13.7-.9.12-.65-.32.84-.78.64-.13.65-.05.5-.18.2-.46-.26-.28-1.3-.73-.45-.14 1.68-.32.58.06v.27zm-17.36-1.3h.32l1.74-.22h.52l.65.18v.23l-.06.05h-.13l-.12.04-.7.5.12.7-.06.54-1.23.28-1.3-.05-1.22-.18-1.1-.4-.97-.65-.25-.78.77-.55 1.17-.32 1.03.04.06.08.06.14.2.18.25.14zm10.95-2.6v.27l.5-.05.53.05.4.18.25.42-.26.36-.9.75-.2.18v.7l.06.54.33.32.7.03v.28l-1.22.24-.7.04-.33-.13-.2-.55-.38-.42-.53-.23-.64-.1V201l.5.22.47-.04.4-.14.5-.05v-.15l-.2-.73.07-.27-.13-.55.13-.42.46-.23h.7v.33zm15.6-2.1l.14.4-2 .05-.8.23-.3.45-.47.24-.85.96-.26.23-.46.14-.07-.92-.7.05-1.82 1.15.2-.46.12-.15v-.27l-.84.27-.32-.05-.32-.22-1.55 1.1-.84.45-.73-.1-.13.56-.26.27-.2-.1v-.45l.2-.64.26-.2.46-.08.52-.23.38-.27.65-.65.4-.22.5-.14h.4l.32-.15.2-.6-.26-.13-.64-.46h1.03l1.68-.55 1.04-.04v.32l-.6.23-.64.3-1.03.68.32.04.13.05.13.13.45-.22 1.37-.14 1.1-.64.64-.05h.7l.6-.1.9-.72.58-.37.26.14zm-23.05-2.3l-.07.04h-.13l-.06.05-.5.32v.17l.18.37-.9.04-.26-.04v.27l3.3.56.58.2.78 1.1.26.22.45.13.45.06.4.04.38.33v.22h-.85l-.52.23-.97.7.06-.38.06-.27.2-.28.32-.22-2.07-1.06-1.17-.32-1.1-.1v.33l.2.14.38.46-.58-.32-.32.36-.33.14-.32-.05-.45-.12-.33-.2-.2-.22-.58-.87-.12-.24-.13-.18-.4-.37-.38-.12-.33.04-.24-.1-.2-.4h.9l1.3.18.72-.18 1.16-.87.65-.23.77.27zm56.03-8.3l-.07.37h.6v.27l-.73.23-.77.42-.6.13-.25-.64.33-.7.8-.4.96-.18h.77l.07.18-.07.1h-.13l-.12.04-.6.05zm11.98-22.86l-.06.23.4-.23h.24l.13.27-.2.45-.32.4-.4.65-.25.32-.26-.04.06-.28.2-.45v-.5l-.07-.1-.06.28-.07.22-.64.55-.6.28-.13-.18.6-.42.18-.45.2-.6.38-.4-.13-.3-.25-.17.06-.18.8-.1.25-.18h.2l.06.37zm-30.38-1.52l-.65.5-.97-.22-.78-.37-.32-.26.07-.28.32-.23.65-.22.97-.04.44.05.2.37zm40.75-2.24l.06.4.14.38.32.04.52-.22v.27l-.13.6-.26.45-.33.32-.26.92-.44.1-1.23-.47-.4-.27.14-1.37-.65-.5v-.46l.84-.04.7.18.4-.1.13-.36.25-.1zm4.14-6.6l-1.63.28-.84-.23.26-.22.18-.2.13-.17.2-.3.4-.33.5-.1.47-.04.4-.14.25-.23 1.48-.05.46-.1.13-.04.25-.04.06.18-.25.23-.58.37-.7.5zm7-11.18h.38l.25-.1.2-.13.2-.1.64.1.45.23.13.37-.26.46-1.04.5-1.17-.17-1.17-.32h-1.23v.33l.25.13.13.14.07.14.13.14-1.1-.14-.9-.7-1.43-1.4V141h4.92l.4.1.05.28v.32zm-20.22.32l-.07.28-.25.18-.4.05.34.97-.4.46-.58.32-.52.55h.84l-.2.23-.2.04-.44.05.26.1.13.08.12.05.32.04-.84 1.4.4-.03.38-.1.38-.18.33-.24.25.28-.6.64-.12.23.13.28v.28l-.84.18-.97 1.47-.78.37v.33l.52.04.5-.04.53-.14.45-.2-.06-.72 1.1-.46 2.65-.23-1.94-.78-.58-.36.4-.3.57-.24.4.1.05.72.4-.27.83-.72.2-.28.4-.14.76.23.52.45-.26.46.52.15.45.18.32.32.13.5-.2.2-.06.08.5.27-.5.23-.92-.27-.4.18-.38.32-.38.2-.4.12.14.14.5-.1 1-.22-.2.1-.4.17v.33l1.43-.42.44.2.07.77h.33l.2-.42.12-.04.2.08.32-.18.2-.28.13-.27.2-.37.38-.28.13.14.07.14.07.32.4-.7.57-.5.85-.22h.78l-.58.7-2.98 1.77-.2.32v.32l.26.1.33-.24.45-.4.2-.1.6-.24h.5l.26.46v.23l-.13.47-.2.4-.38.2-3.24.18-.64.14.85.4 2.14.27 1.1.42-2 1.04-.46.14-.2.1v.22l.07.23.13.18.2.06.26-.23.26.04.32.1.58.04.2.1-1.62.83-.78.18-.7-.08-.4-.55-.4-.32-.38-.05-.26.28v.23l.26.28.33.14v.23h-.46l-.33.1-.65.22v.23h1.7l-.27.32-.26.27-.34.6.72-.6.45-.2.52-.08-1.23 1.42-.2.6.65-.46.9-.2.46.2-.58.73 1.42.6v.28H776v.32h.33v.28l-.7-.23-.4.18-.45.27-.72.05.6.28-.2.36-.27.18-.27.1-.45-.06v.28l.32.04.85.23-.72.5.4.56.77.36.4.04-.2.6-.65.3-.78.06-.65-.14.13.6.97 1.2-.4.45h-.57l-1.3-.45.13.87-.06.87-.32.77-.65.6-.13-.2-.13-.08.3.45.14.46-.06.5-.4.56.46.32.13.37-.2.32-.38.18-.2-.23-.65-.64-.33.46-.4-.1-.05-.27.52-.4v-.28l-.66-.3-1.3.15-.7-.18-.53-.5.8-.56-.27-.63.33-.37.45-.18.46-.1.52.05v-.23l-.78-.45-.38-.15v-.28h1.16l-.26-.73.46-.7.64-.67.6-2.02.63-.78.46-.87-.25-1.1-.2-.18-.25.04-.26-.04-.13-.4v-.15l.14-.23.64-.87h-.38l-.65.23-.13.13h-.46l-.2-.18.14-.32.65-1.1.32-.4.4-.38.38-.18v-.32l-.78-.05-.65.46-1.1 1.33-.58-.97-.65-.74-.85-.42-1.36-.18v.32l.77.18.64.37.6.5.52.64-.26.6-.85-.45-.37-.14h-.52v.75l-.25.55-.4.13-.18-.6-.52.28-.2.43-.13.45-.32.33h-.4l-1.6-.6-.14-.08-.84-.5-.13.04-.27-.4v-.2l.26-.27.44-.24 1.23-.18.6-.14-.53-.23-1.04-.86-.2.32-.2.6-.5.36-.52.1-.2-.42-.26-.36-.58.1-1.3.4-.9.04-.4-.04-.25-.14-.07-.23-.07-.18-.32-.1-.84-.05-.4-.23-.38-1.1-.46-.82.2-.23.58-.37.6-.27.76-.23.84-.14.72.05.58.28.45.32.5.28h.72l-.32-.6 1.5.32v-.32h-.33v-.27l1.94-.13.6.37.06 1.23.2-.04.45-.2.2-.08-.2-.23-.25-.46-.13-.18h.9l-.13-.14-.2-.45.97-.24 1.1.18.9.6.46.9.6-.5.57-.36-1.17-.6.84-1.1.33.2.26.04.58.04-.52-.5.78-.14 2.07.05-.97-.37-1.23-.14-1.04-.32-.26-.87-.77.46-.46.14-.45-.05-.46-.32-.13-.4.14-.38.45-.32v-.28H765l-.6-.1-.38-.22.07-.55-.08-.68-.32-1.33-.58.78-.4.45-.45.2-.64-.15-.13-.32.26-.4.5-.3h-.83l-.7.1h-.66l-.65-.36-.38.46-.6.18-1.48-.05-.13-.23.26-.5.38-.5.32-.23 1.04.1.26-.1.2-.28.06-.33-.07-.27.12-.23.4-.42.5-.32.53-.04.58.45.52.87 1.36.68 1.63.33 1.36-.46-.46-.2-.65-.08h-1.05l-.32-.15-.4-.32-.44-.32-.73-.03.4-.32.5-.74.27-.12.45-.05 1.3-.5-.46-.23-.2-.1.4-.27.12-.23-.07-.14-.13-.18 1.03-.27 1.1.1 1.17.32.97.46.13-.2.2-.12-.72-.42.07-.4.97-.93.38.84.06.32-.2.32zm8.87-5.68l.45.73.46-.46.9-.2 1.82.1v.55l-.07.2-.25.08v.32l.2.04.2.13.2.1-.47.5v.4l.78.8-.26.45-.32.45-1.36-.82-.7-.26-.86-.05.52.26.58.55.9 1.16-.5.23-.6.08-.57-.1-.6-.22.2.46.52.27.64.13.65.05-.05.13-.26.1.7.42.07.55-.52.4-.84.1.65.73.2.37.06.46-.12.55-.32.1-.97-.24-1.05.05-.52-.15-.2-.32-.2.05-.18.13-.06.3.44.26v.28l-1.43-.2-.96-.5-.58-.9-.52-3.95.4-.92 1.35-.14v.27l-.14.52.45.46.66.32.52-.14-.13-.18-.58-1.1-.2-.6.13-.27.4-.6-.07-.13-.26-.13v-.42l.06-.4.2-.33.38-.47.53-.4zm12.7-2.34l-.78.23-.58.33.3.5v.33h-.83l.26.04.32.1.26.13v.32l-1.74.87-.32.23.32.5.58.46.33.43-.65.36-.4.04-.3-.1-.34-.13-.38-.13-.78-.04-.65.04-1.23.1-.65-.1-.72-.23.2-.4.06-.42-.07-.37-.2-.27.8.27.18-.32-.06-.6-.34-.5.72-.18.38-.55v-.64l-.5-.32v-.32l.63-.14.77-.4.58-.52v-.4l.4-.42h.45l.45.32.13.55-.13.47-.45.27-.46.23-.4.37.14.13.52-.13.58-.23.33-.22.92-1.56.45-.32.26.23.26.04.57.05.52.1.44.22.33.32.12.5-.33.05-.78.24.77.23.32.05zM629.3 447.15h.44l.78-.04.26.2.65.36.58.4.4.56.13.55.2.23.38.23.2.32-.2.45-.3.14-.47-.14-.84-.45-.85-.97-.45-.27-.33-.04-1.23.05-.26-.08-.7-.74v-.32l1.1-.6zm65.74 2.57l.77.23 1.57.18.4.1 2.7 1.27 1.37.97.2.13.2.28.05.37v.18l-.14.14-1.55.6-.12.08-.07.14v.13l.27.23 2 1.33.27.17 1.1 1.5.26.56.26.74.06.13-.06.2.13.22.18.22 1.04.74.32.4.2.15.32.04 1.56.14 1.68.65h.07l.06.37.26.37.05.12.07.2-.07.63v.18l-.2.14-.25.1-.52.08-.45.1-.84.4-.34.05-.4-.04-.24-.1-2.27-1.37-.2-.1-.5-.1h-.53l-1.62.33h-.65l-.2-.1-.2-.1-.7-.5-.2-.08-.5-.05h-.73l-.45.14-2.14 1-.2.05h-.2l-.18.04-.52.27-.26.15-.2.23-.32.46-.32.18-.26.14-.45.1-.13.13-.08.17.13.37.07.18.06.2.07.12-.07.2-.2.22-.57.32-.12.1-.26.26-.07.14-.06.23.05.24.46.96.46.28.7.18 1.3.1.2.04.13.1.25.3.2.15.25.1 1.17.08.97.23.26.1h.06l.46.5.2.13.2.08.7.23.06.1-.06.14-.26.37-.26.15-.26.1-.78.03-.25.05-.2.04-.12.1-.13.13-.2.42-.32.36-.06.14V474.65l-.13.36-.13.24-.18.1-.78.3-.2.1-.06.14-.13.23-.06.6-.08.2-.13.13-.27.23-.32.18-1.16.46-.13.1-.12.13-.06.14-.07.27.07.18.2.28.32.36.06.14.07.14v.14l-.07.13-.2.24v.14l.2.1h.45l.26-.05.27-.05.2-.1.13-.13.2-.27.12-.1.2-.1 1.16-.4.78-.46.2-.1h.25l.2.06 1.04.73.13.2.07.13-.07.18-.2.2-.32.23-1.03.6-.4.6-.32.08-3.23.15-.4.1-1.1.5-1.94.45-.2.1-.25.18-.52.5-.06.18v.32l.06.33.07.2.13.17.12.2.13.08.14.13 1.43.55 1.1.65 1.5.64 1.1.73.32.18 4.7.23.08.42-.07.13-.25.24-.9.32-.26.23-.2.27-.14.27v.05l.07.45.2.18.12.14 1.1.18.2.1.06.08v.14l-.18.18-.26.1-1.42.04-.46.08-.13.05-.13.1-.32.27-.13.1-.13.08-.58.23-.2.1-.13.1-.06.13-.26.5-.2.23-1.67 1.56-.06.18.06.2.32.26.26.05h.27l.2-.04.2.05.06.14-.07.23-.2.14-.2.15-1.1.23-.38.13-.06.15v.14l.32.22.65.27v.04l-.08.1-.2.08-.12.14-.13.14-.2.36-.25.7.06.13v.08l.33.1.4.18.77.5.07.18.13.2v.35l-.07.18.07.32.13.23 1.16 1.42.97.82 1.23.7.07.08.13.1v.13l.06.32.2.18.26.2.84.5.4.08h.7l.45-.13 1.23-.6.46-.1.45-.04 4.1 2.28.45.37.13.14.5.35.14.14.2.22.13.14.2.1.25.04h1.04l.32.1.78.45.78.32.38-.14.07-.05-.26.6-.9.9-.13.34-.13.27.07.3.14.3.26.35v.23l-.13.32-.13.14-.26.28-.07.18.08.23.4.55.3.73.14.24.07.18v.14l-.2.18-.66.14-.13.1.08.13.2.24.25.27v.43l.33.82-1.23.92-.78.4-2 .3-1.56.67-.8.32-1.74.42-3.56.13-.6-.12-.3-.32-.2-.28-.2-.14-.45.2-1.04.86-.25.27-2.46.96-.07.05-.52.1-.7.3-1.1.75-.14.13-.25.5-.2.2-.25.13-.65.03-.2.1-.05.04.58.87-.33.92-.7.5-.85-.14-.58-.04-2.98.78-10.44-.64-.78-.28-.78-.64-1.23-1.05-2.46-1.3h-.57l-.78.24-.9-.33-.85-.5-.45-.42v-.18l.06-.1h.14l.07-.04-.25-.82-.13-.22-.32-.55-.46-.7-.52-.54-.32-.24-.7-.32-.4-.32-.65-.78-.4-.23-.57-.12-1.3.13-3.17.24-.57.14-.6.23-.38.28v.42l.33.4.4.38.3.36h-1.74v.1l-.2.22-.25.05-.08-.22-.13-.14-.26-.13-.4-.1-.25-.03-.14.1-.4.4-.18.1-.26-.05-.46-.23-1.03-.15-.4-.04-.45.14-.45.28-.58.4-.4.2-.44-.1-.45-.18h-.4l-.12.4h-.5l-2.54-.63-.72-.04-.13-.13-.07-.14-.13-.33.85-.37-.13-.46-.4-.5v-.64l1.43-.32.2-.14.4-.5.3-.23.27.33h-.26v.27l.27.14.32.14 1.3-.23 2.13-.1 1.94-.3.9-.98v-.55l-.2-.1-.5.38-.33.18-.52.05-1.62-.14-2.27-.8-.58.24-3.3.32-.9-.23-1.18-.55-.97-.73-.58-.78 1.75.18.78-.1.38-.36-.77.04-.78-.14-.65-.27-.4-.5.14-.1.26-.32.2-.36v-.36l-.33-.32-.26.13-.32.45-.2.14-.38.36-.26.1-.4-.1-.38-.2-.32-.3-.85.08-.12.28.33.4.65.42-1.43.46-1.62.05-3.17-.28-1.23.1-1.5.27h-.25l-1.36.64-.07 1.06-.4.04-.1.05v.18l-.08.33-.78 1.15-.4-.05-.58-.32-.26.15-.7.46-3.77-.04-.65.1-.65.27-.4.32-.3.36-.4.33-.78.2-.32.4-.4.1-.2-.05-.44-.2-2.72-.54-1.04-.46.4-.45-.6-.83-2.07-.32-.84-.55.25-.32 3.24.33-.07-.18-.13-.28-.07-.13.58-.05 1.12.22.58.1.58-.1 1.43-.5 2-.28 1.05-.4.45-.1.52.18v-.23l-1.16-.8-.26-1 .7-.82 1.56-.28v-.32l-.45.23-1.22.33-2.33.14-.52.18h.65l.52.2.2.35-.27.64.65.33-.2.45-.58.42-3.3.5h-.9l-5.84-.5-.7.18.38.7-.46.35h-.58l.07-.46v-.26l-2.08-1-.85-.15h.9l.6-.1.5-.18.46-.46.6-.37 1.42-.2.7-.17.73-.4.13-.43-.26-1.05v-.64l-.2-.63-.4-.5-.5-.33-.33.28-.72-.42-1.7-.13-.7-.32-.65.32-2.33.27h-.77l.25-.14.33-.13v-.32l-.2-.2-.05-.08.13-.14.4-.18v-.23l-.34-.55.4-.23 1.48-.1.78-.17 1.3-.83.5-.18 1.3-.1 1.76-.4 1.3-.7.12-1.1h.6v-.27l-.53-.28.06-.28.47-.18.7-.1 1.17.05.46.06 2.26.78h.78l1.23-.32-.32-.55.78.04 1.62.43.9.1.4-.2-.07-.4-.2-.47.07-.36.32-.2 1.36-.12.84-.37.6-.45 1.02-1.05.77-.5h.58l1.36.68-.05-1.24 1.55-.5 5.18.14.52-.14.26-.23.2-.26.26-.23 1.23-.27.84-.32.83-.45 1.23-.9.58-.3.72-.08.84-.05.78-.13 4.98-2.67 2.47-2.1 1.23-1.48.5-.96.4-1.8.33-.96.5-.82.46-.6-.2-.4-.13-.5.07-.52.26-.32.32-.04.9.27.46.06.7-.14 2.22-.96v-.32h-1.17l-2.15.45-1.16.13-.66-.32-1.88-1.6-.52-.63.13-1.06.72-1.04.9-.78.7-.32.13-.14.2-.55.13-.18.13-.06.44-.14 1.75-.78.5-.45-1.1.1-.7.35-.72.1-3.17-2.4-.83-1-.2-.4.13-.33.7-.15.53-.32-.13-.64-.32-.65-.2-.27v-.6l.13-.27.27-.18 2.46-1.1-.32-.04-.12-.1-.13-.13-.45.32-.46.18-.45-.04-.33-.45-1.1.46-1.1.1-2.4-.28-3.05.6-.7.23-.85.32h-2.85l-.9.27-.8.42-1.48 1.05.13.1.13.18-.64.23-.4.52-.06.55.52.4-.52.38-.32.13-.26.1-.52-.05-.58-.4-.9-.2-.85-.4-.45-.1-.52.1-.26.13-.26.18-.32.14-.9.18-2.34-.18-.65.27-.58.42-.6.13-.64-.22.45-.42.07-.18-.2-.23.27-.23.58-.7 5.83-4.06.65-.23.78-.05.77-.14.85-.27 3.36-1.56.85-.86 2.73-1.1.32-.5.2-.78.06-1.74.14-.5.26-.15.32.1.13.27.13.28.4-.37.25-.46.06-.2 1.68-1.23.45-.18.78-.2.53-.5.9-1.05.9-.7 1.18-.45 1.17-.23 1.36-.04.33.04.32.14.32.05.6-.22.9-.28.97-.14 1.42-.72 4.6-1.15h1.42l-.46-.77-1.23-.74-.32-.5.78.04.85.14.7.28.53.4.84-.27.9.2.85.46.7.64.66.23 4.8-.1 1.7-.22 7.95-2.33 1.75-.05 1.56.46.9.4.4.47.45.32 5.38 2.1.65.42.52.54.26.2.14-.2zm-46.84-1.65l.52.04.6-.03.9-.14.5-.05.27-.1.38-.4.26-.1.26.05.5.2.2.03h1.24l.58.05.52.28-.84.55-1.5 1.65-.96.32-1.04.14-1.1.32-.97.46-.78.55-.2.14-.06.1v.5l-.07.33-.13.04-.2-.04-1.5.64-.63.5-2.66.96-.44.1-.52-.1-1.04-.27v.1l-.26.13-.32.08-.26-.05-.06-.27v-.37l.06-.38.13-.13.3-.2.47-.4.2-.37-.4-.2-.65.2-.9.82-.65.14-.06-.15-1.36-.73-.12-.05-.33.1-.14-.05v-.1l.07-.36-.07-.1v-.45l-.2-.3-.83-.47-1.36-1.65-.78-.55v-.32l.25-.4.06-.64v-.92l.2-1.42-.06-.6-.45-.64.77-.32 5.3-1.1h.6l2.84.28.85.04 1.56.55.46.23.2.5.06.5.13.24v.1l.52.22.58.23h.26v.5l-.06.28.2.1v.08l.7.47.2.5.07.37z"/>
</svg>
